<svg width="398" height="371" viewBox="0 0 398 371" fill="none" xmlns="http://www.w3.org/2000/svg">
<g id="animate-coral-yellow" clip-path="url(#clip0)">
<g id="tenticles">
<path id="Vector" d="M324.464 370.5H300.177C289.96 370.5 280.439 365.711 273.365 357.016C266.579 348.673 262.842 337.644 262.842 325.963V191.549C262.842 189.189 264.894 187.276 267.426 187.276C269.957 187.276 272.01 189.189 272.01 191.549V325.963C272.01 345.808 284.645 361.953 300.177 361.953H324.464C326.995 361.953 329.048 363.866 329.048 366.226C329.048 368.587 326.995 370.5 324.464 370.5Z" fill="#75D8B4"/>
<path id="Vector_2" d="M317.186 370.5C305.191 370.5 295.433 359.115 295.433 345.12V164.628C295.433 162.268 297.486 160.354 300.018 160.354C302.549 160.354 304.602 162.268 304.602 164.628V345.121C304.602 354.245 310.365 361.954 317.186 361.954C319.717 361.954 321.77 363.867 321.77 366.227C321.77 368.587 319.717 370.5 317.186 370.5Z" fill="#75D8B4"/>
<path id="Vector_3" d="M293.84 370.5H287.797C272.707 370.5 258.605 363.378 248.086 350.447C237.854 337.867 232.219 321.208 232.219 303.535V225.984C232.219 223.624 234.271 221.711 236.803 221.711C239.334 221.711 241.387 223.624 241.387 225.984V303.535C241.387 335.748 262.206 361.954 287.796 361.954H293.84C296.371 361.954 298.424 363.867 298.424 366.227C298.425 368.587 296.372 370.5 293.84 370.5Z" fill="#75D8B4"/>
<path id="Vector_4" d="M330.041 370.5H305.755C303.223 370.5 301.171 368.587 301.171 366.227C301.171 363.867 303.223 361.954 305.755 361.954H330.041C345.572 361.954 358.208 345.809 358.208 325.964V191.549C358.208 189.189 360.26 187.276 362.792 187.276C365.323 187.276 367.376 189.189 367.376 191.549V325.963C367.376 337.644 363.639 348.672 356.852 357.016C349.78 365.711 340.257 370.5 330.041 370.5Z" fill="#75D8B4"/>
<path id="Vector_5" d="M313.033 370.5C310.501 370.5 308.448 368.587 308.448 366.227C308.448 363.867 310.501 361.954 313.033 361.954C319.854 361.954 325.617 354.245 325.617 345.121V164.628C325.617 162.268 327.669 160.354 330.201 160.354C332.732 160.354 334.785 162.268 334.785 164.628V345.121C334.785 359.115 325.026 370.5 313.033 370.5Z" fill="#75D8B4"/>
<path id="Vector_6" d="M342.422 370.5H336.378C333.846 370.5 331.794 368.587 331.794 366.227C331.794 363.867 333.846 361.954 336.378 361.954H342.422C368.012 361.954 388.832 335.748 388.832 303.535V225.984C388.832 223.624 390.884 221.711 393.416 221.711C395.947 221.711 398 223.624 398 225.984V303.535C398 321.208 392.365 337.867 382.133 350.447C371.614 363.378 357.511 370.5 342.422 370.5Z" fill="#75D8B4"/>
</g>
<path id="leaves branch" d="M199.375 152.413C174.266 152.413 153.348 169.106 148.676 191.235C144.725 183.386 141.46 174.8 141.46 159.778C141.46 141.854 146.104 133.091 151.02 123.813C156.254 113.933 161.667 103.717 161.667 83.5012H151.139C151.139 101.425 146.496 110.189 141.581 119.467C139.237 123.89 136.859 128.384 134.947 133.808C129.774 112.291 109.174 96.2087 84.5304 96.2087C84.5304 121.559 105.541 142.321 132.212 144.226C131.41 148.704 130.935 153.801 130.935 159.777C130.935 179.992 136.348 190.208 141.582 200.087C146.497 209.364 151.14 218.128 151.14 236.051C151.14 244.563 150.086 250.996 148.46 256.412C144.487 233.487 123.167 215.976 97.4511 215.976C97.4511 241.471 118.702 262.327 145.591 264.026C144.341 266.793 142.974 269.386 141.582 272.015C136.348 281.895 130.935 292.112 130.935 312.326H141.462C141.462 294.403 146.106 285.64 151.022 276.361C156.255 266.482 161.669 256.265 161.669 236.051C161.669 218.899 157.772 208.947 153.394 200.29C179.252 197.645 199.375 177.223 199.375 152.413Z" fill="#9BC9CC"/>
<path id="Vector_7" d="M368.464 370.5C368.464 303.164 309.904 248.577 237.668 248.577C165.432 248.577 106.871 303.164 106.871 370.5" fill="#E8BF4D"/>
<path id="Vector_8" d="M185.03 370.5C185.03 322.872 143.609 284.261 92.515 284.261C41.4206 284.261 0 322.872 0 370.5" fill="#F9D25B"/>
<path id="Vector_9" d="M78.8074 253.038H74.8623C65.3801 253.038 57.6941 260.202 57.6941 269.041V370.501H95.9765V269.041C95.9756 260.202 88.2886 253.038 78.8074 253.038Z" fill="#F74B4B"/>
<path id="Vector_10" d="M76.8348 281.162C82.708 281.162 87.4692 276.724 87.4692 271.249C87.4692 265.774 82.708 261.336 76.8348 261.336C70.9616 261.336 66.2004 265.774 66.2004 271.249C66.2004 276.724 70.9616 281.162 76.8348 281.162Z" fill="#7F3030"/>
<path id="Vector_11" d="M34.1428 281.454H30.1977C20.7156 281.454 13.0295 288.619 13.0295 297.458V370.5H51.312V297.458C51.311 288.62 43.624 281.454 34.1428 281.454Z" fill="#F74B4B"/>
<path id="Vector_12" d="M32.1703 309.58C38.0435 309.58 42.8046 305.141 42.8046 299.667C42.8046 294.192 38.0435 289.754 32.1703 289.754C26.2971 289.754 21.5359 294.192 21.5359 299.667C21.5359 305.141 26.2971 309.58 32.1703 309.58Z" fill="#7F3030"/>
<path id="Vector_13" d="M231.933 281.454H227.988C218.506 281.454 210.82 288.619 210.82 297.458V370.5H249.102V297.458C249.101 288.62 241.414 281.454 231.933 281.454Z" fill="#F74B4B"/>
<path id="Vector_14" d="M229.961 309.58C235.834 309.58 240.595 305.141 240.595 299.667C240.595 294.192 235.834 289.754 229.961 289.754C224.087 289.754 219.326 294.192 219.326 299.667C219.326 305.141 224.087 309.58 229.961 309.58Z" fill="#7F3030"/>
<path id="bubble left btm" d="M28.9816 199.05C17.4553 199.05 8.07812 190.309 8.07812 179.565C8.07812 168.821 17.4553 160.08 28.9816 160.08C40.5078 160.08 49.885 168.821 49.885 179.565C49.885 190.309 40.5078 199.05 28.9816 199.05ZM28.9816 168.082C22.1893 168.082 16.6627 173.233 16.6627 179.565C16.6627 185.897 22.1893 191.048 28.9816 191.048C35.7739 191.048 41.3004 185.897 41.3004 179.565C41.3004 173.233 35.7739 168.082 28.9816 168.082Z" fill="#51CAF4"/>
<path id="bubble right btm" d="M271.881 66.742C264.934 66.742 259.283 61.4739 259.283 54.9983C259.283 48.5228 264.934 43.2546 271.881 43.2546C278.827 43.2546 284.479 48.5228 284.479 54.9983C284.479 61.4739 278.828 66.742 271.881 66.742ZM271.881 51.2577C269.668 51.2577 267.867 52.9364 267.867 54.9992C267.867 57.062 269.668 58.7407 271.881 58.7407C274.093 58.7407 275.894 57.062 275.894 54.9992C275.894 52.9355 274.094 51.2577 271.881 51.2577Z" fill="#51CAF4"/>
<path id="bubble right top" d="M254.238 31.622C245.033 31.622 237.544 24.6405 237.544 16.0604C237.544 7.48026 245.033 0.498779 254.238 0.498779C263.443 0.498779 270.932 7.48026 270.932 16.0604C270.932 24.6405 263.443 31.622 254.238 31.622ZM254.238 8.50098C249.766 8.50098 246.128 11.8921 246.128 16.0604C246.128 20.2287 249.766 23.6198 254.238 23.6198C258.71 23.6198 262.348 20.2287 262.348 16.0604C262.348 11.8921 258.71 8.50098 254.238 8.50098Z" fill="#51CAF4"/>
<path id="bubble middle" d="M203.2 238.482C189.178 238.482 177.771 227.849 177.771 214.777C177.771 201.707 189.178 191.074 203.2 191.074C217.221 191.074 228.629 201.707 228.629 214.777C228.629 227.849 217.221 238.482 203.2 238.482ZM203.2 199.076C193.912 199.076 186.356 206.12 186.356 214.777C186.356 223.436 193.912 230.48 203.2 230.48C212.488 230.48 220.045 223.436 220.045 214.777C220.045 206.12 212.488 199.076 203.2 199.076Z" fill="#51CAF4"/>
<path id="bubble left top" d="M40.6118 152.921C24.4279 152.921 11.2611 140.648 11.2611 125.562C11.2611 110.477 24.4279 98.2039 40.6118 98.2039C56.7956 98.2039 69.9615 110.477 69.9615 125.562C69.9615 140.648 56.7956 152.921 40.6118 152.921ZM40.6118 106.207C29.1619 106.207 19.8457 114.89 19.8457 125.563C19.8457 136.237 29.1619 144.92 40.6118 144.92C52.0617 144.92 61.3769 136.237 61.3769 125.563C61.3769 114.89 52.0617 106.207 40.6118 106.207Z" fill="#51CAF4"/>
<g id="fish">
<path id="Vector_15" d="M362.35 107.899C352.974 121.832 338.228 129.719 322.766 131.568C302.554 133.995 281.121 126.1 268.864 107.899C279.681 91.8326 297.642 83.8037 315.612 83.8037C318.006 83.8037 320.391 83.946 322.766 84.2305C338.228 86.0799 352.974 93.9665 362.35 107.899Z" fill="#F9993A"/>
<path id="Vector_16" d="M362.35 107.899C352.974 121.832 338.228 129.718 322.766 131.568C318.054 124.748 315.326 116.621 315.326 107.899C315.326 99.1766 318.054 91.0499 322.766 84.2302C338.228 86.0796 352.974 93.9662 362.35 107.899Z" fill="#F9D43A"/>
<path id="Vector_17" d="M334.093 115C338.563 115 342.187 111.622 342.187 107.455C342.187 103.288 338.563 99.9094 334.093 99.9094C329.622 99.9094 325.998 103.288 325.998 107.455C325.998 111.622 329.622 115 334.093 115Z" fill="#4D4D4D"/>
<path id="Vector_18" d="M234.367 84.2306C233.46 84.1221 232.552 84.0403 231.642 83.9736V131.825C232.552 131.757 233.461 131.677 234.367 131.568C249.829 129.719 264.576 121.832 273.952 107.899C264.576 93.9666 249.828 86.08 234.367 84.2306Z" fill="#F9993A"/>
</g>
</g>
<defs>
<clipPath id="clip0">
<rect width="398" height="371" fill="white"/>
</clipPath>
</defs>
</svg>
