<svg width="390" height="350" viewBox="0 0 390 350" fill="none" xmlns="http://www.w3.org/2000/svg">
<g id="cactus" clip-path="url(#clip0)">
<path id="left_cactus" d="M194.945 38.3152C180.898 38.3152 169.511 49.2649 169.511 62.7715V67.7336L182.283 80.1621L169.511 92.1899C169.511 107.553 158.523 120.494 143.707 124.131V24.4563C143.707 10.9497 132.318 0 118.272 0C104.226 0 92.8375 10.9497 92.8375 24.4563V67.7336L105.413 80.1621L92.8375 92.1899V116.646L106.545 129.075L92.8375 141.103V190.016C92.8375 201.721 95.4106 212.858 100.033 222.938C81.8931 222.107 67.4022 207.659 67.4022 190.016L55.1088 178.532L67.4022 165.56V111.684C67.4022 98.1775 56.0145 87.2278 41.9676 87.2278C27.9208 87.2278 16.5331 98.1775 16.5331 111.684V118.206L29.6743 130.705L16.5331 142.662V190.015C16.5331 235.162 54.7318 271.892 101.685 271.892L114.457 260.597L127.119 271.892H169.566L169.567 271.491C169.597 271.494 169.626 271.496 169.656 271.499L196.414 246.467L169.699 221.999C154.79 218.424 143.707 205.443 143.707 190.016L130.847 179.077L143.707 173.662C186.693 169.558 220.38 134.586 220.38 92.1914V62.7715C220.38 49.2649 208.992 38.3152 194.945 38.3152Z" fill="#FB5858"/>
<path id="right_cactus" d="M348.032 136.141C333.985 136.141 322.598 147.091 322.598 160.597L336.587 173.641L322.598 185.054V238.93C322.598 256.574 308.107 271.021 289.967 271.852C294.589 261.772 297.162 250.635 297.162 238.93V185.054L285.717 173.641L297.162 160.597V136.141L285.152 125.272L297.162 111.685C297.162 98.1782 285.775 87.2285 271.728 87.2285C257.681 87.2285 246.293 98.1782 246.293 111.685V214.473L259.153 226.901L246.293 238.929C246.293 254.281 235.323 267.213 220.525 270.863L220.576 211.974C220.576 198.467 209.189 187.518 195.142 187.518C181.095 187.518 169.707 198.467 169.707 211.974L169.699 221.999L169.698 222.979C169.707 222.979 169.693 227.697 169.693 227.697L169.655 271.499V271.892H169.565L185.108 284.51L169.565 296.349H169.634L169.613 320.393H169.565L182.848 333.423L169.565 344.849H169.592L169.565 375H220.435L220.483 320.806H262.882L274.978 308.967L288.316 320.806C335.268 320.806 373.468 284.076 373.468 238.929L361.457 226.901L373.468 214.473V160.598C373.468 147.092 362.079 136.141 348.032 136.141Z" fill="#F72349"/>
<path id="Vector" d="M195 320.396H169.565V344.853H195V320.396Z" fill="#FB5858"/>
<path id="Vector_2" d="M288.311 296.348H262.877V320.804H288.311V296.348Z" fill="#FB5858"/>
<path id="Vector_3" d="M297.162 111.685H271.728V136.141H297.162V111.685Z" fill="#FB5858"/>
<path id="Vector_4" d="M297.162 160.598H271.728V185.054H297.162V160.598Z" fill="#FB5858"/>
<path id="Vector_5" d="M348.032 160.598H322.598V185.054H348.032V160.598Z" fill="#FB5858"/>
<path id="Vector_6" d="M373.467 214.476H348.032V238.932H373.467V214.476Z" fill="#FB5858"/>
<path id="Vector_7" d="M271.728 214.476H246.293V238.932H271.728V214.476Z" fill="#FB5858"/>
<path id="Vector_8" d="M195 271.891H169.565V296.347H195V271.891Z" fill="#FB5858"/>
<path id="Vector_9" d="M127.123 247.435H101.688V271.891H127.123V247.435Z" fill="#F72349"/>
<path id="Vector_10" d="M67.4022 165.562H41.9677V190.019H67.4022V165.562Z" fill="#F72349"/>
<path id="Vector_11" d="M194.949 67.7366H169.514V92.1929H194.949V67.7366Z" fill="#F72349"/>
<path id="Vector_12" d="M118.271 67.7366H92.8368V92.1929H118.271V67.7366Z" fill="#F72349"/>
<path id="Vector_13" d="M118.271 116.649H92.8368V141.105H118.271V116.649Z" fill="#F72349"/>
<path id="Vector_14" d="M143.707 165.562H118.272V190.019H143.707V165.562Z" fill="#F72349"/>
<path id="Vector_15" d="M41.9669 118.206H16.5323V142.663H41.9669V118.206Z" fill="#F72349"/>
</g>
<defs>
<clipPath id="clip0">
<rect width="390" height="375" fill="white"/>
</clipPath>
</defs>
</svg>
