<svg width="1440" height="629" viewBox="0 0 1440 629" fill="none" xmlns="http://www.w3.org/2000/svg">
<g id="canvas">
<g id="Group">
<path id="Vector" d="M287.676 506.628H159.236C131.995 506.628 109.912 527.336 109.912 552.881V630.275H337V552.881C336.999 527.336 314.917 506.628 287.676 506.628Z" fill="#999999"/>
<path id="Vector_2" d="M313.404 561.943C313.404 570.803 309.697 578.851 303.672 584.798C303.465 585 303.258 585.204 303.042 585.406C299.396 588.826 294.971 591.5 290.026 593.169C287.785 593.925 285.445 594.469 283.026 594.792C281.384 595.013 279.713 595.124 278.013 595.124H168.896C162.073 595.124 155.713 593.317 150.305 590.182C140.218 584.337 133.504 573.873 133.504 561.943C133.504 550.014 140.218 539.55 150.305 533.696C155.712 530.561 162.073 528.754 168.896 528.754H278.012C279.713 528.754 281.384 528.865 283.025 529.086C285.444 529.409 287.784 529.962 290.026 530.717C295.256 532.479 299.916 535.373 303.672 539.089C309.697 545.036 313.404 553.084 313.404 561.943Z" fill="#666666"/>
<path id="Vector_3" d="M177.763 464.34H49.3235C22.0831 464.34 0 485.049 0 510.594V630.277H227.088V510.594C227.088 485.049 205.005 464.34 177.763 464.34Z" fill="#B3B3B3"/>
<path id="Vector_4" d="M203.492 519.655C203.492 528.515 199.785 536.563 193.759 542.509C193.552 542.713 193.346 542.915 193.13 543.118C187.841 548.078 180.891 551.471 173.114 552.503C171.472 552.724 169.801 552.835 168.1 552.835H58.9845C52.1616 552.835 45.8013 551.028 40.3938 547.893C30.3071 542.048 23.5926 531.584 23.5926 519.655C23.5926 507.726 30.3071 497.262 40.3938 491.408C45.8004 488.273 52.1616 486.466 58.9845 486.466H168.101C169.802 486.466 171.473 486.577 173.115 486.799C181.196 487.867 188.402 491.5 193.76 496.801C199.785 502.748 203.492 510.795 203.492 519.655Z" fill="#666666"/>
<path id="Vector_5" d="M61.0387 400.728V552.836H58.9843C52.1614 552.836 45.8012 551.029 40.3936 547.894V400.728C40.3936 388.513 29.8351 378.603 16.8082 378.603C13.9576 378.603 11.3817 377.524 9.51346 375.772C7.64526 374.021 6.48565 371.596 6.48565 368.922C6.48565 366.259 7.64616 363.834 9.51346 362.082C11.3817 360.33 13.9576 359.242 16.8082 359.242C29.0189 359.242 40.0781 363.889 48.0806 371.393C56.0939 378.907 61.0387 389.269 61.0387 400.728Z" fill="#CE3E3E"/>
<path id="Vector_6" d="M89.0574 356.486V552.835H68.4123V356.486C68.4123 344.26 57.8538 334.36 44.818 334.36C41.9664 334.36 39.3815 333.272 37.5133 331.521C35.6451 329.769 34.4954 327.353 34.4954 324.68C34.4954 322.007 35.646 319.591 37.5133 317.839C39.3815 316.087 41.9664 315 44.818 315C57.0377 315 68.0977 319.646 76.1002 327.151C84.1126 334.655 89.0574 345.027 89.0574 356.486Z" fill="#F74B4B"/>
<path id="Vector_7" d="M258.949 455.131V595.124H238.304V455.131C238.304 442.907 227.746 433.006 214.71 433.006C211.859 433.006 209.273 431.917 207.405 430.166C205.537 428.414 204.387 425.999 204.387 423.326C204.387 420.652 205.538 418.237 207.405 416.485C209.273 414.733 211.858 413.646 214.71 413.646C226.929 413.646 237.99 418.292 245.992 425.796C254.004 433.3 258.949 443.671 258.949 455.131Z" fill="#F74B4B"/>
<path id="Vector_8" d="M186.386 338.509C186.386 341.182 185.235 343.598 183.368 345.35C181.5 347.102 178.915 348.189 176.063 348.189C171.59 348.189 167.529 349.885 164.59 352.641C161.661 355.389 159.841 359.196 159.841 363.391V552.836H139.196V363.391C139.196 344.298 155.703 328.828 176.063 328.828C178.914 328.828 181.5 329.916 183.368 331.667C185.235 333.419 186.386 335.835 186.386 338.509Z" fill="#F74B4B"/>
<path id="Vector_9" d="M220.303 388.283C220.303 390.956 219.142 393.381 217.275 395.133C215.407 396.885 212.822 397.963 209.98 397.963C205.497 397.963 201.437 399.668 198.507 402.416C195.578 405.173 193.759 408.98 193.759 413.175V542.511C193.552 542.714 193.345 542.917 193.129 543.12C187.84 548.08 180.89 551.472 173.113 552.505V413.174C173.113 394.081 189.62 378.602 209.98 378.602C212.821 378.602 215.407 379.681 217.275 381.433C219.143 383.185 220.303 385.609 220.303 388.283Z" fill="#CE3E3E"/>
<path id="Vector_10" d="M316.569 444.556C316.569 447.229 315.41 449.654 313.541 451.406C311.673 453.158 309.088 454.236 306.247 454.236C301.764 454.236 297.704 455.941 294.773 458.689C291.844 461.446 290.025 465.253 290.025 469.448V593.169C287.783 593.925 285.443 594.468 283.025 594.791C281.382 595.012 279.711 595.123 278.011 595.123H269.38V469.448C269.38 450.355 285.886 434.876 306.247 434.876C309.088 434.876 311.673 435.955 313.541 437.707C315.41 439.458 316.569 441.883 316.569 444.556Z" fill="#CE3E3E"/>
<path id="Vector_11" d="M153.943 420.088C153.943 422.761 152.793 425.186 150.925 426.938C149.057 428.69 146.472 429.768 143.621 429.768C142.087 429.768 140.603 429.971 139.196 430.348C136.493 431.059 134.075 432.414 132.148 434.221C129.218 436.978 127.399 440.785 127.399 444.98V552.834H106.754V444.98C106.754 427.298 120.92 412.704 139.196 410.657C140.642 410.491 142.126 410.408 143.621 410.408C146.471 410.408 149.057 411.487 150.925 413.239C152.793 414.99 153.943 417.414 153.943 420.088Z" fill="#CE3E3E"/>
</g>
<g id="fish-sky" clip-path="url(#clip0)">
<g id="Group_2">
<path id="Vector_12" d="M922.638 170.709L924.772 170.869C927.144 171.047 929.539 171.137 931.891 171.137C937.26 171.137 942.614 170.672 947.805 169.755L951.206 173.766C944.002 178.179 931.909 183.605 915.216 184.392L907.66 184.748L922.638 170.709Z" fill="#F4A026"/>
<path id="Vector_13" d="M888.937 180.373C881.593 176.983 863.807 168.226 857.265 160.139L856.064 158.654L874.746 145.469L877.043 148.583C879.977 152.559 883.899 156.182 888.7 159.352C893.249 162.356 898.431 164.848 904.101 166.759L907.981 168.067L891.741 181.668L888.937 180.373Z" fill="#F4A026"/>
<path id="Vector_14" d="M976.045 160.306L970.595 162.417C968.853 163.092 967.141 163.794 965.506 164.503C955.539 168.842 943.913 171.137 931.891 171.137C915.553 171.137 900.214 166.952 888.698 159.353C877.189 151.754 870.914 141.668 871.028 130.952C871.216 113.426 889.307 97.7798 915.024 92.9042C920.834 91.8499 926.623 91.3188 932.27 91.3188C947.587 91.3188 959.283 95.1527 966.398 98.3688C974.525 102.044 981.241 107.009 985.821 112.729C992.584 121.184 1000.41 128.869 1009.08 135.573C1009.51 135.905 1010.74 136.836 1010.99 137.019L1011.03 137.053C1013.2 138.643 1014.39 140.692 1014.39 142.821V142.91C1014.39 146.23 1011.43 149.298 1006.85 150.726C995.943 154.128 979.432 159.284 978.646 159.543L977.47 159.93L976.045 160.306Z" fill="#61ACD2"/>
<path id="Vector_15" d="M954.051 94.0461C947.079 92.2362 939.751 91.3185 932.27 91.3185C930.016 91.3185 927.672 91.409 925.3 91.5869L923.251 91.7409L906.317 77.0144L911.853 76.2415C915.329 75.756 918.819 75.5098 922.225 75.5098C939.077 75.5098 953.418 81.5995 958.76 91.0242L961.58 96.0003L954.051 94.0461Z" fill="#F4A026"/>
<path id="Vector_16" d="M856.064 103.4L857.265 101.915C863.793 93.8397 881.588 85.0726 888.936 81.678L891.74 80.3823L908.405 94.3442L904.503 95.6473C896.377 98.3619 889.166 102.278 883.651 106.973C881.185 109.075 879.038 111.326 877.271 113.663L874.951 116.73L856.064 103.4Z" fill="#F4A026"/>
<path id="Vector_17" d="M845.028 142.278C839.257 133.225 842.121 122.825 844.342 117.432L845.62 114.326L871.681 125.196L871.424 126.666C871.179 128.075 871.045 129.517 871.029 130.952C871.016 132.273 871.101 133.613 871.281 134.932L871.501 136.549L846.506 144.597L845.028 142.278Z" fill="#F4A026"/>
<g id="Group_3">
<path id="Vector_18" d="M981.03 135.672C983.021 135.672 984.636 134.613 984.636 133.307C984.636 132.002 983.021 130.943 981.03 130.943C979.038 130.943 977.423 132.002 977.423 133.307C977.423 134.613 979.038 135.672 981.03 135.672Z" fill="black"/>
<path id="Vector_19" d="M1013.74 135.488C1013.74 135.488 1012.05 134.214 1011.48 133.768C1003.12 127.263 995.571 119.824 989.011 111.632C984.165 105.573 977.051 100.312 968.444 96.4227C967.101 95.8139 965.604 95.1873 963.959 94.5667C962.309 88.6735 957.611 83.3862 950.555 79.5529C942.941 75.4212 932.883 73.1455 922.225 73.1455C916.689 73.1455 911.026 73.7425 905.404 74.9217C904.291 75.1552 903.421 75.7286 903.069 76.4586C902.713 77.1886 902.92 77.9866 903.624 78.5983L916.91 90.1512C915.963 90.299 915.012 90.4527 914.06 90.6241C912.582 90.9049 911.126 91.227 909.683 91.5787L894.607 78.9471C893.448 77.9806 891.357 77.7531 889.788 78.4269C888.57 78.95 859.924 91.3689 852.819 102.549C852.278 103.404 852.544 104.388 853.505 105.067L870.97 117.398C870.28 118.695 869.69 120.019 869.198 121.358L847.716 112.397C846.801 112.016 845.674 111.924 844.641 112.149C843.613 112.373 842.793 112.891 842.41 113.556C841.977 114.294 832.031 131.87 843.514 145.67C844.168 146.456 845.403 146.902 846.684 146.902C847.22 146.902 847.761 146.825 848.27 146.66L868.815 140.048C869.333 141.656 869.992 143.237 870.79 144.786L853.505 156.986C852.544 157.666 852.278 158.65 852.819 159.504C859.924 170.685 888.57 183.1 889.788 183.624C890.392 183.887 891.082 184.011 891.762 184.011C892.835 184.011 893.899 183.697 894.607 183.106L909.255 170.832C911.63 171.418 914.06 171.908 916.536 172.301L905.039 183.083C904.286 183.786 904.178 184.702 904.755 185.477C905.332 186.248 906.5 186.753 907.812 186.798C908.885 186.833 909.958 186.854 911.026 186.854C925.124 186.854 938.478 183.712 949.821 177.707C957.422 173.681 961.903 169.561 963.337 168.14C964.752 167.62 966.145 167.064 967.507 166.47C972.268 164.401 977.497 162.483 983.507 160.612L1008.39 152.86C1014.23 151.048 1018 147.141 1018 142.909V142.82C1018 140.11 1016.49 137.507 1013.74 135.488ZM867.688 135.142L848.356 141.366C842.928 132.852 845.854 122.833 847.824 118.048L867.841 126.397C867.58 127.895 867.44 129.409 867.422 130.934C867.408 132.349 867.498 133.753 867.688 135.142ZM912.604 78.554C915.841 78.1018 919.06 77.8742 922.225 77.8742C937.905 77.8742 950.605 83.4246 955.379 91.8477C948.946 90.1778 941.192 88.9543 932.27 88.9543C929.831 88.9543 927.369 89.0518 924.889 89.238L912.604 78.554ZM860.452 103.022C866.664 95.3381 884.22 86.7495 891.014 83.6108L902.866 93.5411C894.309 96.3991 886.695 100.507 880.794 105.531C878.165 107.772 875.911 110.139 874.04 112.613L860.452 103.022ZM891.014 178.44C884.22 175.304 866.664 166.712 860.452 159.031L873.797 149.612C876.871 153.779 881.014 157.633 886.14 161.017C890.996 164.224 896.496 166.854 902.452 168.861L891.014 178.44ZM914.958 182.034L924.362 173.217C926.842 173.404 929.353 173.501 931.891 173.501C937.635 173.501 943.288 173.002 948.743 172.038C941.66 176.377 930.376 181.306 914.958 182.034ZM1010.79 142.909C1010.79 145.324 1008.63 147.552 1005.3 148.59C1005.3 148.59 978.133 157.066 977.028 157.429C969.842 156.303 964.923 152.934 962.412 147.396C960.311 142.753 960.726 138.29 960.735 138.201C960.87 136.898 959.374 135.769 957.39 135.677C955.397 135.583 953.68 136.567 953.54 137.87C953.513 138.083 953.008 143.14 955.438 148.607C957.89 154.122 962.435 158.106 968.76 160.382C966.952 161.082 965.207 161.797 963.517 162.53C954.135 166.615 943.198 168.772 931.891 168.772C916.518 168.772 902.091 164.836 891.257 157.686C880.428 150.537 874.527 141.047 874.635 130.969C874.811 114.481 891.848 99.7594 916.026 95.1755C921.481 94.1854 926.945 93.683 932.27 93.683C946.656 93.683 957.656 97.2887 964.351 100.315C971.997 103.773 978.318 108.446 982.628 113.827C989.521 122.446 997.492 130.269 1006.33 137.102C1006.81 137.471 1008.33 138.621 1008.34 138.627C1009.92 139.782 1010.79 141.269 1010.79 142.82V142.909Z" fill="black"/>
<path id="Vector_20" d="M931.89 159.316C920.389 159.316 909.596 156.37 901.499 151.021C894.97 146.709 890.825 141.284 889.511 135.333C889.225 134.041 887.392 133.145 885.425 133.332C883.453 133.519 882.087 134.718 882.372 136.011C883.91 142.972 888.753 149.315 896.379 154.352C905.841 160.602 918.452 164.044 931.891 164.044C933.883 164.044 935.498 162.986 935.498 161.68C935.498 160.374 933.883 159.316 931.89 159.316Z" fill="black"/>
</g>
</g>
</g>
<g id="fish-red">
<g id="Group_4">
<path id="Vector_21" d="M232.501 169.571C232.501 157.188 242.034 147.151 253.794 147.151H278.243C278.243 159.533 268.709 169.571 256.949 169.571H232.501Z" fill="#F74B4B"/>
<path id="Vector_22" d="M303.207 179.728C297.647 168.816 301.542 155.227 311.905 149.373L333.449 137.205C339.008 148.116 335.114 161.706 324.751 167.559L303.207 179.728Z" fill="#F74B4B"/>
<path id="Vector_23" d="M319.716 115.579C327.077 101.131 321.92 83.1354 308.198 75.3849L279.67 59.272C272.308 73.7201 277.465 91.7157 291.187 99.4662L319.716 115.579Z" fill="#F74B4B"/>
<g id="Group_5">
<path id="Vector_24" d="M211.523 123.32H199.836C186.119 123.32 175 111.614 175 97.1724H186.687C200.403 97.1724 211.523 108.879 211.523 123.32Z" fill="#F74B4B"/>
<path id="Vector_25" d="M211.523 123.32H199.836C186.119 123.32 175 135.027 175 149.469H186.687C200.403 149.469 211.523 137.762 211.523 123.32Z" fill="#F74B4B"/>
</g>
<path id="Vector_26" d="M402 123.324C384.104 136.131 364.604 145.283 344.416 150.782C329.203 154.931 313.604 157 298.01 157C261.708 157 225.406 145.778 194.025 123.324C238.891 91.2171 293.817 82.0645 344.421 95.8612C364.609 101.361 384.104 110.518 402 123.324Z" fill="#51CAF4"/>
<path id="Vector_27" d="M401.998 123.324C370.617 145.78 334.314 157.001 298.012 157.001C261.709 157.001 225.406 145.78 194.025 123.324H401.998Z" fill="#85E1F9"/>
<path id="Vector_28" d="M402 123.324C384.104 136.13 364.604 145.283 344.416 150.782C340.812 142.411 338.802 133.112 338.802 123.324C338.802 113.53 340.812 104.237 344.421 95.8608C364.609 101.36 384.104 110.518 402 123.324Z" fill="#45BDDD"/>
<g id="Group_6">
<path id="Vector_29" d="M358.634 134.864C364.689 134.864 369.598 129.696 369.598 123.32C369.598 116.945 364.689 111.776 358.634 111.776C352.578 111.776 347.669 116.945 347.669 123.32C347.669 129.696 352.578 134.864 358.634 134.864Z" fill="white"/>
<path id="Vector_30" d="M358.634 130.383C362.339 130.383 365.342 127.221 365.342 123.32C365.342 119.42 362.339 116.257 358.634 116.257C354.929 116.257 351.925 119.42 351.925 123.32C351.925 127.221 354.929 130.383 358.634 130.383Z" fill="#4D4D4D"/>
</g>
</g>
</g>
<path id="turtle" d="M813.833 491.684C811.247 492.672 808.732 494.94 806.648 497.536C808.301 504.503 804.996 512.043 802.373 517.447C809.343 517.233 821.414 519.686 826.947 516.629C833.557 512.967 839.521 500.202 837.652 493.981C830.898 492.292 819.582 489.775 813.833 491.684ZM760.196 494.727L759.585 499.206C764.004 500.237 767.992 501.837 771.692 504.361C772.267 500.379 773.309 496.896 776.111 494.656C770.83 494.301 765.297 494.336 760.196 494.727ZM829.641 495.438C824.575 498.282 819.618 500.308 817.282 503.401C814.983 501.41 813.51 499.135 814.193 495.971C819.258 493.803 824.683 494.301 829.641 495.438ZM753.585 495.438C749.705 495.936 745.861 496.647 742.017 497.607C745.897 497.642 749.885 497.784 753.19 498.14L753.585 495.438ZM779.883 499.917C776.901 505.964 778.77 510.088 781.177 514.816C784.338 509.484 787.104 503.792 789.44 497.855C786.206 497.216 782.039 497.678 779.883 499.917ZM796.445 497.713C775.5 554.382 717.623 586.803 667 582.999C667.431 596.01 688.714 590.5 696.441 589.078C715.18 585.523 739.359 577.347 756.675 562.559C770.578 550.721 783.368 536.643 791.954 523.028C794.613 517.198 802.337 506.355 800.577 499.668C800.002 498.069 798.026 498.069 796.445 497.713ZM731.132 504.613C734.976 506.711 738.281 509.306 741.442 511.794C742.664 509.199 744.532 506.604 747.298 504.112C742.017 503.899 735.982 504.183 731.132 504.613ZM756.855 505.147C750.208 508.915 747.694 512.328 746.652 515.918C750.28 519.473 754.232 524.414 757.465 528.787C757.142 520.362 764.579 513.11 770.686 511.723C766.698 508.026 762.459 506.284 756.855 505.147ZM720.426 507.28C719.923 511.83 719.42 516.416 720.066 520.717C723.875 516.984 729.335 514.852 734.006 514.247C729.802 511.119 725.635 508.453 720.426 507.28ZM713.528 510.906C709.145 516.06 705.373 522.139 702.103 528.04C705.444 526.512 709.396 525.41 714.426 525.161C713.025 520.255 713.133 515.385 713.528 510.906ZM767.094 520.077C762.459 524.272 764.004 531.24 765.19 536.217C770.543 530.493 775.393 524.201 779.596 517.447C775.429 517.518 770.291 517.624 767.094 520.077ZM721.611 529.107C721.432 535.612 723.228 543.433 725.455 549.654C730.988 537.923 740.365 531.773 752.328 532.733C749.238 528.609 745.574 524.023 742.484 520.859C733.646 520.148 726.138 521.286 721.611 529.107ZM698.511 521.25C694.494 524.912 690.894 528.751 687.693 532.697C689.051 532.839 690.406 533.23 691.717 533.835C693.718 529.96 695.974 525.623 698.511 521.25ZM715.145 531.453C705.085 531.631 701.205 535.435 695.974 540.056C694.225 547.344 693.603 554.56 694.131 561.563C700.487 553.565 710.043 549.014 719.348 551.858C717.156 545.815 715.36 538.492 715.145 531.453ZM739.071 542.153C733.826 545.815 730.305 552.534 729.192 560.212L728.689 563.554C740.077 557.831 750.783 550.33 760.268 541.193C752.939 538.35 745.287 537.887 739.071 542.153ZM681.694 540.874C677.86 546.704 674.825 552.711 672.522 558.755C678.917 557.12 684.586 560.71 687.966 565.011C686.989 556.764 687.489 548.268 689.407 539.807C686.677 538.278 683.828 539.345 681.694 540.874ZM788.29 539.7C785.129 543.86 781.751 547.912 778.195 551.787C780.71 557.937 780.386 565.118 777.656 570.557C774.279 577.276 768.674 582.537 764.399 592.171C762.603 596.401 760.34 614.389 765.693 614.674C782.65 605.04 801.726 582.644 802.696 564.052C800.325 554.062 794.685 546.81 788.29 539.7ZM706.882 558.861C701.744 561.385 696.93 567.002 694.408 575.107C705.157 573.188 715.935 569.704 726.246 564.763C720.318 558.648 714.139 555.271 706.882 558.861ZM675.479 564.585C669.213 566.078 668.602 571.233 667.754 576.6C673.909 577.063 680.196 576.92 686.522 576.245C685.121 570.984 681.058 564.62 675.479 564.585ZM712.27 591.816C708.822 592.811 705.444 593.7 702.139 594.446C699.265 599.565 694.778 606.568 694.099 612.505C694.365 618.549 695.903 623.845 697.9 629C714.534 617.375 716.51 605.751 712.27 591.816Z" fill="#3B9957"/>
<g id="fish-sky-yellow">
<g id="Group_7">
<path id="Vector_31" d="M670.5 304.383C661.513 299.038 651.187 297.451 641.284 299.918L585.374 313.198L552.957 279L652.718 279.866C659.388 279.929 665.237 285.037 667.103 292.444L670.5 304.383Z" fill="#61ACD2"/>
<path id="Vector_32" d="M653.597 365.353C645.38 371.763 622.938 386.953 598.688 383.494L619.783 363.297C630.569 365.295 642.108 366.296 653.597 365.353Z" fill="#61ACD2"/>
<path id="Vector_33" d="M601.997 359.026C593.98 363.539 575.287 373.084 559.359 373.819L581.048 351.634C586.905 354.052 594.039 356.694 601.997 359.026Z" fill="#61ACD2"/>
</g>
<path id="Vector_34" d="M715 331.745C706.159 345.037 695.419 353.887 683.792 359.484C674.148 364.121 663.898 366.525 653.601 367.363H653.597C642.108 368.308 630.569 367.305 619.783 365.304C613.553 364.151 607.574 362.663 601.997 361.025C594.039 358.689 586.905 356.043 581.048 353.62C570.747 349.365 564.379 345.798 564.379 345.798V345.793L533 376.808L547.644 331.502L533 286.192L564.379 317.207L585.374 312.211L641.284 298.908C651.187 296.436 661.513 298.026 670.5 303.381C670.86 303.599 679.257 308.949 679.257 308.949L715 331.745Z" fill="#F4A026"/>
<path id="Vector_35" d="M679.311 309.206L678.656 309.693L668.887 319.544H626.436C624.591 319.544 623.094 321.224 623.094 323.296C623.094 325.368 624.591 327.048 626.436 327.048H661.447L654.008 334.549L663.503 342.055H619.334C617.488 342.055 615.992 343.735 615.992 345.806C615.992 347.878 617.488 349.558 619.334 349.558H672.807C672.866 349.558 672.923 349.552 672.981 349.548L683.668 357.997L683.84 358.11C695.449 352.693 706.173 344.129 715 331.266L679.311 309.206Z" fill="#61ACD2"/>
<path id="Vector_36" d="M683.696 330.781C685.706 330.781 687.336 329.171 687.336 327.185C687.336 325.199 685.706 323.589 683.696 323.589C681.686 323.589 680.056 325.199 680.056 327.185C680.056 329.171 681.686 330.781 683.696 330.781Z" fill="#495577"/>
</g>
<path id="left-cactus" d="M1273.95 315.761C1259.9 315.761 1248.51 325.981 1248.51 338.587V343.218L1261.28 354.818L1248.51 366.044C1248.51 380.383 1237.52 392.461 1222.71 395.855V302.826C1222.71 290.22 1211.32 280 1197.27 280C1183.23 280 1171.84 290.22 1171.84 302.826V343.218L1184.41 354.818L1171.84 366.044V388.87L1185.54 400.47L1171.84 411.696V457.348C1171.84 468.273 1174.41 478.667 1179.03 488.076C1160.89 487.3 1146.4 473.815 1146.4 457.348L1134.11 446.63L1146.4 434.522V384.238C1146.4 371.632 1135.01 361.413 1120.97 361.413C1106.92 361.413 1095.53 371.632 1095.53 384.238V390.325L1108.67 401.991L1095.53 413.151V457.347C1095.53 499.484 1133.73 533.766 1180.68 533.766L1193.46 523.224L1206.12 533.766H1248.57L1248.57 533.392C1248.6 533.395 1248.63 533.397 1248.66 533.399L1275.41 510.035L1248.7 487.199C1233.79 483.862 1222.71 471.747 1222.71 457.348L1209.85 447.139L1222.71 442.085C1265.69 438.254 1299.38 405.614 1299.38 366.045V338.587C1299.38 325.981 1287.99 315.761 1273.95 315.761Z" fill="#FB5858"/>
<path id="right-cactus" d="M1427.03 407.065C1412.99 407.065 1401.6 417.285 1401.6 429.891L1415.59 442.065L1401.6 452.717V503.001C1401.6 519.469 1387.11 532.953 1368.97 533.729C1373.59 524.32 1376.16 513.926 1376.16 503.001V452.717L1364.72 442.065L1376.16 429.891V407.065L1364.15 396.92L1376.16 384.239C1376.16 371.633 1364.77 361.413 1350.73 361.413C1336.68 361.413 1325.29 371.633 1325.29 384.239V480.174L1338.15 491.774L1325.29 503C1325.29 517.328 1314.32 529.399 1299.53 532.805L1299.58 477.842C1299.58 465.236 1288.19 455.016 1274.14 455.016C1260.09 455.016 1248.71 465.236 1248.71 477.842L1248.7 487.199L1248.7 488.114C1248.71 488.114 1248.69 492.517 1248.69 492.517L1248.66 533.399V533.766H1248.57L1264.11 545.542L1248.57 556.592H1248.63L1248.61 579.033H1248.57L1261.85 591.195L1248.57 601.859H1248.59L1248.57 630H1299.44L1299.48 579.419H1341.88L1353.98 568.369L1367.32 579.419C1414.27 579.419 1452.47 545.138 1452.47 503L1440.46 491.774L1452.47 480.174V429.891C1452.47 417.285 1441.08 407.065 1427.03 407.065Z" fill="#F72349"/>
<path id="Vector_37" d="M1274 579.037H1248.57V601.862H1274V579.037Z" fill="#FB5858"/>
<path id="Vector_38" d="M1367.31 556.592H1341.88V579.418H1367.31V556.592Z" fill="#FB5858"/>
<path id="Vector_39" d="M1376.16 384.239H1350.73V407.065H1376.16V384.239Z" fill="#FB5858"/>
<path id="Vector_40" d="M1376.16 429.892H1350.73V452.717H1376.16V429.892Z" fill="#FB5858"/>
<path id="Vector_41" d="M1350.73 480.177H1325.29V503.003H1350.73V480.177Z" fill="#FB5858"/>
<path id="Vector_42" d="M1274 533.765H1248.57V556.591H1274V533.765Z" fill="#FB5858"/>
<path id="Vector_43" d="M1206.12 510.939H1180.69V533.765H1206.12V510.939Z" fill="#F72349"/>
<path id="Vector_44" d="M1146.4 434.525H1120.97V457.351H1146.4V434.525Z" fill="#F72349"/>
<path id="Vector_45" d="M1273.95 343.221H1248.51V366.047H1273.95V343.221Z" fill="#F72349"/>
<path id="Vector_46" d="M1197.27 343.221H1171.84V366.047H1197.27V343.221Z" fill="#F72349"/>
<path id="Vector_47" d="M1197.27 388.873H1171.84V411.698H1197.27V388.873Z" fill="#F72349"/>
<path id="Vector_48" d="M1222.71 434.525H1197.27V457.351H1222.71V434.525Z" fill="#F72349"/>
<path id="Vector_49" d="M1120.97 390.326H1095.53V413.152H1120.97V390.326Z" fill="#F72349"/>
<path id="red-branch" d="M1188.64 588.041C1184.12 586.073 1178.87 588.124 1176.9 592.645C1176.56 593.398 1170.66 606.176 1156.83 613.422C1160.96 607.588 1164.22 601.899 1166.78 596.628C1178.96 571.571 1178.51 550.369 1178.49 549.478C1178.35 544.549 1174.25 540.638 1169.31 540.803C1164.38 540.941 1160.5 545.048 1160.64 549.978C1160.65 550.498 1161.15 588.142 1127.97 619.374C1114.78 603.654 1116.4 581.849 1116.43 581.526C1116.86 576.628 1113.24 572.3 1108.34 571.851C1103.43 571.399 1099.09 575.018 1098.64 579.93C1098.53 581.159 1096.23 609.077 1114.07 630.576C1105.53 636.464 1095.42 641.86 1083.46 646.41C1082.25 629.689 1078.12 611.326 1069.06 592.398C1065.42 584.783 1062.06 577.392 1058.96 570.247C1091.02 556.061 1105.07 531.514 1111.2 512.667C1111.24 512.561 1111.27 512.456 1111.3 512.351C1141.14 511.851 1158.52 488.154 1162.59 474.792C1164.03 470.075 1161.38 465.064 1156.66 463.628C1151.94 462.186 1146.96 464.829 1145.53 469.545C1145.2 470.567 1137.99 492.489 1115.46 494.373C1117.39 481.24 1116.47 471.824 1116.41 471.271C1115.9 466.375 1111.54 462.832 1106.64 463.319C1101.74 463.813 1098.17 468.189 1098.65 473.087C1098.66 473.249 1100.15 489.376 1094.02 507.74C1092.21 513.175 1089.92 518.208 1087.21 522.875C1076.6 515.043 1071.05 494.158 1069.83 486.335C1069.08 481.466 1064.53 478.124 1059.65 478.873C1054.78 479.62 1051.43 484.177 1052.18 489.052C1052.8 493.069 1058 523.405 1076.39 537.128C1069.7 543.958 1061.59 549.51 1052.07 553.758C1028.33 494.582 1023.4 456.071 1023.35 455.611C1022.76 450.719 1018.32 447.237 1013.42 447.819C1008.52 448.407 1005.03 452.853 1005.62 457.749C1005.9 460.116 1013.04 516.674 1052.95 600.106C1064.97 625.231 1068.68 652.303 1063.99 680.573C1063.9 681.084 1063.81 681.59 1063.72 682.092C1063.5 681.391 1063.27 680.683 1063.02 679.97C1055.92 659.03 1039.91 628.919 1003.97 604.386C1001.17 602.473 998.479 600.45 995.868 598.347C1006.32 589.121 1011.78 575.588 1011.78 558.659C1011.78 544.001 1007.59 531.796 1007.41 531.284C1005.78 526.628 1000.69 524.171 996.037 525.792C991.381 527.416 988.922 532.506 990.545 537.162C990.668 537.516 1001.98 570.851 982.678 586.061C968.886 571.164 958.728 552.814 952.366 531.223C945.317 507.304 945.828 488.186 945.834 488.011C946.006 483.082 942.149 478.948 937.221 478.778C932.286 478.587 928.158 482.463 927.988 487.391C927.958 488.265 927.334 509.083 935.052 535.637C945.328 570.995 965.681 599.869 993.908 619.137C994.051 619.235 994.186 619.337 994.329 619.435C987.339 619.256 978.967 618.467 970.233 616.359C941.12 609.33 922.381 591.334 914.539 562.868C913.229 558.115 908.312 555.324 903.559 556.631C898.805 557.941 896.013 562.857 897.323 567.611C906.884 602.313 930.646 625.172 966.042 633.716C977.755 636.544 988.86 637.334 997.612 637.334C1006.08 637.334 1012.33 636.596 1014.82 636.247C1024.16 645.442 1031.84 655.607 1037.82 666.682C1024.82 669.858 987.667 675.93 958.158 651.416C954.366 648.266 948.737 648.785 945.585 652.579C942.434 656.371 942.955 662 946.748 665.152C968.314 683.069 992.546 687.74 1011.96 687.74C1027.28 687.74 1039.59 684.828 1045.22 683.223C1045.42 683.796 1045.65 684.359 1045.85 684.936C1052.71 704.743 1052.06 719.692 1052.06 719.811C1051.82 724 1054.53 727.789 1058.57 728.916C1059.37 729.138 1060.18 729.245 1060.97 729.245C1064.21 729.245 1067.28 727.473 1068.86 724.496C1069.18 723.9 1071.12 720.142 1073.52 713.872C1125.19 712.042 1158.6 681.743 1160.11 680.35C1163.73 677.009 1163.95 671.379 1160.62 667.756C1157.29 664.134 1151.64 663.897 1148.01 667.221C1147.7 667.5 1120.62 691.819 1079.2 695.596C1081.32 686.963 1083.08 676.722 1083.66 665.329C1106.11 657.657 1123.13 647.305 1136.04 636.2C1136.12 636.2 1136.2 636.201 1136.27 636.201C1176.95 636.201 1192.61 601.309 1193.26 599.816C1195.22 595.29 1193.16 590.008 1188.64 588.041Z" fill="#A91523"/>
<path id="Vector_50" d="M1188.64 588.041C1184.12 586.073 1178.87 588.124 1176.9 592.645C1176.56 593.398 1170.66 606.176 1156.83 613.422C1160.96 607.588 1164.22 601.899 1166.78 596.628C1178.96 571.571 1178.51 550.369 1178.49 549.478C1178.35 544.549 1174.25 540.638 1169.31 540.803C1164.38 540.941 1160.5 545.048 1160.64 549.978C1160.65 550.498 1161.15 588.142 1127.97 619.374C1114.78 603.654 1116.4 581.849 1116.42 581.526C1116.86 576.628 1113.24 572.3 1108.34 571.851C1103.42 571.399 1099.09 575.018 1098.64 579.93C1098.53 581.159 1096.23 609.077 1114.07 630.576C1105.53 636.464 1095.42 641.86 1083.46 646.41C1082.25 629.689 1078.12 611.326 1069.06 592.398C1065.42 584.783 1062.06 577.392 1058.96 570.247C1091.02 556.061 1105.07 531.514 1111.2 512.667C1111.24 512.561 1111.27 512.456 1111.3 512.351C1141.14 511.851 1158.52 488.154 1162.59 474.792C1164.03 470.075 1161.38 465.064 1156.66 463.628C1151.94 462.186 1146.96 464.829 1145.52 469.545C1145.2 470.567 1137.99 492.489 1115.46 494.373C1117.39 481.24 1116.47 471.824 1116.41 471.271C1115.9 466.375 1111.54 462.832 1106.63 463.319C1101.74 463.813 1098.17 468.189 1098.65 473.087C1098.66 473.249 1100.15 489.376 1094.02 507.74C1092.21 513.175 1089.92 518.208 1087.21 522.875C1076.6 515.043 1071.05 494.158 1069.83 486.335C1069.08 481.466 1064.53 478.124 1059.65 478.873C1054.78 479.62 1051.43 484.177 1052.18 489.052C1052.8 493.069 1058 523.405 1076.39 537.128C1069.7 543.958 1061.58 549.51 1052.07 553.758C1049.19 546.587 1046.59 539.723 1044.25 533.19V581.193C1046.96 587.327 1049.86 593.635 1052.95 600.106C1064.97 625.231 1068.68 652.303 1063.99 680.573C1063.9 681.084 1063.81 681.59 1063.72 682.092C1063.5 681.391 1063.27 680.683 1063.02 679.97C1059.47 669.475 1053.67 656.677 1044.25 643.431V683.493C1044.58 683.4 1044.91 683.309 1045.22 683.223C1045.42 683.796 1045.65 684.359 1045.85 684.936C1052.71 704.743 1052.06 719.692 1052.06 719.811C1051.82 724 1054.53 727.789 1058.57 728.916C1059.37 729.138 1060.18 729.245 1060.97 729.245C1064.21 729.245 1067.28 727.473 1068.86 724.496C1069.18 723.9 1071.12 720.142 1073.51 713.872C1125.19 712.042 1158.6 681.743 1160.11 680.35C1163.73 677.009 1163.95 671.379 1160.62 667.756C1157.28 664.134 1151.64 663.897 1148.01 667.221C1147.7 667.5 1120.62 691.819 1079.2 695.596C1081.32 686.963 1083.08 676.722 1083.66 665.329C1106.11 657.657 1123.13 647.305 1136.04 636.2C1136.12 636.2 1136.19 636.201 1136.27 636.201C1176.95 636.201 1192.6 601.309 1193.25 599.816C1195.22 595.29 1193.16 590.008 1188.64 588.041Z" fill="#8E1325"/>
<path id="Vector_51" d="M584.537 546.393C582.862 552.805 579.66 560.572 572.525 571.358C571.083 570.388 569.558 569.238 568.04 567.876C560.301 560.935 556.219 551.998 555.561 540.552C555 530.792 546.958 523.352 537.6 523.94C528.242 524.525 521.111 532.912 521.672 542.672C522.92 564.363 531.836 582.829 547.456 596.075C547.672 596.257 547.886 596.433 548.101 596.611C540.06 602.416 530.353 607.702 518.642 611.972C516.193 600.866 512.766 590.234 509.449 579.943C503.446 561.318 497.776 543.726 497.19 524.067C496.932 515.409 497.255 505.401 497.894 495.186C515.031 493.85 543.315 488.691 561.446 469.9C568.096 463.007 568.13 451.799 561.52 444.864C554.912 437.927 544.164 437.894 537.515 444.785C528.97 453.641 513.628 457.632 501.133 459.249C503.116 441.664 505.095 428.526 505.137 428.247C506.605 418.591 500.289 409.522 491.031 407.991C481.768 406.459 473.075 413.046 471.607 422.703C471.218 425.263 462.087 485.849 463.258 525.165C463.999 550.051 471.049 571.924 477.27 591.224C487.218 622.089 495.013 646.275 479.139 676.854C472.791 658.624 462.595 635.562 446.512 612.056C440.491 603.257 434.152 594.381 427.439 584.984C412.603 564.216 396.711 541.967 384.914 520.962C400.4 511.82 420.539 491.109 425.79 444.54C426.885 434.829 420.224 426.031 410.914 424.889C401.599 423.748 393.168 430.694 392.073 440.404C388.709 470.234 378.047 483.232 370.318 488.823C368.304 482.435 367.068 476.354 366.817 470.689C366.384 460.922 358.457 453.358 349.077 453.821C339.712 454.272 332.472 462.556 332.904 472.323C334.54 509.248 360.21 549.516 388.154 589.175C369.122 589.846 345.36 587.372 333.548 574.628C327.016 567.581 316.231 567.407 309.493 574.256C302.701 581.161 302.963 592.728 309.63 599.762C324.68 615.642 347.857 624.014 378.531 624.647C379.76 624.672 380.973 624.684 382.174 624.684C394.517 624.684 405.274 623.42 411.797 622.431C414.22 625.875 416.584 629.268 418.879 632.623C448.75 676.282 455.227 718.72 455.283 719.097C456.234 725.857 460.832 731.442 467.094 733.447C468.735 733.972 470.412 734.227 472.075 734.227C476.76 734.227 481.326 732.201 484.592 728.482C491.771 720.312 497.697 712.394 502.562 704.706C507.728 706.132 515.39 707.815 523.996 708.276C525.563 708.359 527.085 708.4 528.57 708.4C554.422 708.4 568.076 696.088 575.048 685.424C580.33 677.346 578.332 666.332 570.586 660.824C562.841 655.315 552.28 657.399 546.999 665.478C541.222 674.313 527.411 673.665 517.728 671.887C520.127 663.695 521.425 655.774 521.89 648.093C568.671 633.475 592.857 605.513 605.041 583.934C610.793 573.747 614.446 564.105 616.763 556.088C619.891 545.266 612.439 534.254 601.619 533.627C593.756 533.172 586.607 538.469 584.537 546.393Z" fill="#F15A24"/>
<path id="orange branch" d="M472.075 741C469.741 741 467.425 740.637 465.189 739.922C456.577 737.164 450.167 729.375 448.859 720.081C448.805 719.728 442.297 678.51 413.594 636.558C412.127 634.415 410.557 632.146 408.837 629.684C401.146 630.695 390.371 631.665 378.404 631.42C345.984 630.75 321.293 621.702 305.013 604.525C300.51 599.774 297.962 593.212 298.022 586.522C298.08 579.974 300.544 573.898 304.961 569.408C309.464 564.829 315.43 562.352 321.693 562.46C327.981 562.558 333.849 565.208 338.218 569.923C346.437 578.791 362.136 581.636 375.337 582.321C350.526 546.349 328.016 508.722 326.417 472.637C325.821 459.155 335.851 447.681 348.777 447.058C355.041 446.755 361.03 449.002 365.662 453.401C370.3 457.807 373.015 463.836 373.305 470.378C373.38 472.084 373.564 473.877 373.854 475.747C378.632 469.032 383.564 457.895 385.624 439.615C387.135 426.215 398.814 416.589 411.673 418.165C424.525 419.741 433.752 431.929 432.241 445.333C427.298 489.168 409.632 511.665 393.754 523.162C404.934 542.143 419.003 561.838 432.648 580.941C439.394 590.384 445.746 599.278 451.8 608.126C462.644 623.974 471.862 641.017 479.305 658.959C485.315 637.443 479.127 618.239 471.117 593.389C464.753 573.639 457.54 551.263 456.769 525.379C455.58 485.415 464.802 424.23 465.196 421.645C467.223 408.316 479.266 399.191 492.051 401.305C504.831 403.419 513.58 415.983 511.554 429.312C511.487 429.754 510.169 438.552 508.632 451.134C519.68 448.802 528.157 444.941 532.941 439.985C537.369 435.395 543.241 432.87 549.482 432.87C549.507 432.87 549.532 432.87 549.556 432.87C555.825 432.89 561.712 435.455 566.13 440.094C570.548 444.729 572.971 450.884 572.951 457.422C572.932 463.96 570.472 470.099 566.026 474.707C548.787 492.575 523.789 499.163 504.05 501.402C503.619 510 503.496 517.535 503.684 523.86C504.24 542.517 509.76 559.647 515.605 577.782C518.225 585.912 520.915 594.255 523.167 602.943C528.184 600.792 532.926 598.371 537.359 595.697C524.008 581.815 516.385 563.788 515.193 543.08C514.817 536.555 516.901 530.266 521.06 525.374C525.22 520.483 530.957 517.573 537.215 517.182C543.461 516.785 549.5 518.96 554.192 523.3C558.882 527.639 561.672 533.623 562.047 540.149C562.563 549.111 565.402 555.94 570.947 561.484C574.535 555.338 576.902 549.871 578.274 544.615C581.126 533.701 591.087 526.236 601.982 526.867C609.157 527.282 615.639 531.042 619.765 537.18C623.875 543.297 625.049 550.902 622.984 558.044C620.052 568.194 615.899 578.062 610.641 587.374C598.476 608.917 574.326 637.513 527.994 653.204C527.551 657.536 526.858 661.853 525.922 666.125C533.804 666.64 539.389 665.102 541.636 661.665C545.168 656.262 550.506 652.619 556.665 651.403C562.825 650.188 569.071 651.547 574.248 655.232C579.427 658.914 582.921 664.48 584.086 670.904C585.252 677.329 583.948 683.842 580.416 689.243C572.683 701.074 557.41 715.176 528.574 715.176C526.969 715.176 525.318 715.131 523.666 715.043C516.723 714.671 510.367 713.548 505.402 712.397C500.77 719.284 495.396 726.216 489.383 733.061C484.947 738.105 478.639 741 472.075 741ZM411.798 615.659C413.846 615.659 415.798 616.672 417.033 618.425C419.71 622.23 422.044 625.589 424.165 628.69C454.906 673.62 461.638 717.634 461.703 718.074C462.293 722.264 465.156 725.742 469.001 726.973C470 727.292 471.034 727.455 472.075 727.455C475.007 727.455 477.824 726.162 479.803 723.908C486.509 716.275 492.342 708.561 497.142 700.975C498.677 698.549 501.525 697.415 504.222 698.158C508.892 699.447 516.171 701.075 524.328 701.512C525.758 701.588 527.186 701.627 528.57 701.627C551.733 701.627 563.712 690.741 569.682 681.609C571.259 679.197 571.841 676.289 571.32 673.42C570.8 670.551 569.239 668.065 566.926 666.421C564.613 664.776 561.825 664.169 559.075 664.711C556.324 665.255 553.94 666.882 552.362 669.295C546.319 678.54 533.954 681.743 516.601 678.559C514.77 678.222 513.164 677.084 512.192 675.429C511.219 673.775 510.973 671.766 511.516 669.911C513.645 662.64 514.955 655.156 515.408 647.667C515.58 644.839 517.422 642.421 520.025 641.607C565.1 627.522 588.093 600.602 599.444 580.5C604.175 572.121 607.91 563.251 610.544 554.136C611.451 550.995 610.934 547.649 609.123 544.955C607.297 542.239 604.43 540.576 601.258 540.393C596.44 540.113 592.052 543.387 590.801 548.176C588.596 556.611 584.488 565.2 577.868 575.206C575.876 578.218 571.951 579.035 569.004 577.053C567.158 575.812 565.409 574.453 563.805 573.014C554.791 564.93 549.835 554.146 549.076 540.96C548.909 538.044 547.663 535.372 545.569 533.435C543.474 531.498 540.771 530.525 537.99 530.703C535.193 530.878 532.632 532.178 530.774 534.362C528.917 536.547 527.986 539.355 528.155 542.269C529.291 562.017 537.382 578.807 551.553 590.823C551.693 590.941 551.835 591.058 551.974 591.174L552.139 591.31C553.748 592.644 554.658 594.694 554.59 596.836C554.522 598.979 553.486 600.962 551.795 602.182C542.736 608.723 532.302 614.169 520.783 618.368C519.041 619.003 517.12 618.836 515.503 617.904C513.886 616.974 512.726 615.369 512.312 613.492C509.934 602.709 506.557 592.234 503.291 582.103C497.131 562.986 491.313 544.936 490.698 524.279C490.456 516.143 490.696 506.207 491.412 494.748C491.622 491.379 494.18 488.686 497.407 488.434C512.328 487.271 539.89 482.692 556.867 465.098C558.852 463.039 559.951 460.298 559.96 457.379C559.969 454.459 558.887 451.711 556.914 449.64C554.94 447.568 552.312 446.423 549.513 446.413C549.502 446.413 549.491 446.413 549.48 446.413C546.692 446.413 544.07 447.541 542.092 449.59C531.902 460.152 514.628 464.327 501.932 465.972C499.952 466.229 497.97 465.522 496.555 464.055C495.139 462.589 494.449 460.526 494.682 458.459C496.647 441.04 498.636 427.762 498.72 427.205C499.627 421.236 495.72 415.625 490.013 414.682C484.302 413.737 478.926 417.813 478.021 423.765C477.635 426.299 468.596 486.257 469.748 524.957C470.46 548.842 477.347 570.211 483.424 589.065C493.429 620.108 502.068 646.913 484.849 680.08C483.632 682.425 481.195 683.808 478.659 683.609C476.109 683.412 473.907 681.673 473.034 679.166C465.185 656.622 454.484 635.368 441.227 615.991C435.251 607.257 428.936 598.417 422.251 589.058C407.023 567.741 391.296 545.725 379.311 524.387C378.431 522.822 378.191 520.955 378.644 519.204C379.096 517.453 380.202 515.964 381.716 515.069C396.174 506.533 414.437 487.231 419.34 443.749C420.015 437.763 415.894 432.321 410.155 431.617C404.414 430.914 399.197 435.211 398.522 441.197C394.924 473.114 383.21 487.74 374.018 494.39C372.333 495.609 370.198 495.926 368.253 495.246C366.309 494.567 364.788 492.971 364.148 490.94C361.881 483.748 360.596 477.04 360.329 471.002C360.2 468.077 358.988 465.383 356.915 463.415C354.85 461.453 352.169 460.453 349.382 460.588C343.603 460.867 339.123 465.991 339.389 472.013C340.983 507.97 368.096 549.274 393.384 585.165C394.81 587.19 395.045 589.871 393.994 592.132C392.943 594.392 390.777 595.861 388.37 595.945C368.888 596.633 342.753 594.308 328.877 579.337C326.925 577.231 324.304 576.048 321.497 576.005C318.705 575.954 316.035 577.063 314.024 579.108C312.105 581.06 311.033 583.737 311.007 586.648C310.979 589.755 312.159 592.8 314.247 595.003C328.066 609.585 349.737 617.28 378.657 617.877C391.906 618.148 403.646 616.824 410.86 615.73C411.175 615.682 411.488 615.659 411.798 615.659Z" fill="black"/>
<path id="Vector_52" d="M409.616 598.665C407.532 598.665 405.485 597.62 404.23 595.684L388.613 571.591C386.603 568.492 387.384 564.281 390.355 562.186C393.326 560.092 397.364 560.904 399.373 564.004L414.99 588.097C417 591.196 416.219 595.407 413.247 597.502C412.133 598.287 410.868 598.665 409.616 598.665Z" fill="black"/>
<path id="Vector_53" d="M381.614 555.467C379.53 555.467 377.484 554.422 376.229 552.486L371.639 545.406C369.63 542.308 370.411 538.097 373.382 536.002C376.353 533.908 380.391 534.72 382.399 537.819L386.989 544.899C388.998 547.998 388.218 552.209 385.246 554.304C384.131 555.09 382.867 555.467 381.614 555.467Z" fill="black"/>
</g>
<defs>
<clipPath id="clip0">
<rect width="180" height="118" fill="white" transform="translate(838 71)"/>
</clipPath>
</defs>
</svg>
