<svg width="196" height="131" viewBox="0 0 196 131" fill="none" xmlns="http://www.w3.org/2000/svg">
<g clip-path="url(#clip0)">
<path d="M108.604 124.91C109.935 123.74 111.932 123.907 113.059 125.299C116.248 129.222 119.903 132.702 121.314 134.003H150.432C152.096 134.003 153.726 134.707 154.903 135.931L172.018 153.745C173.194 154.969 173.87 156.666 173.87 158.398V173.487C173.87 175.305 172.457 176.777 170.709 176.777C168.962 176.777 167.548 175.305 167.548 173.487V158.398L150.433 140.584H121.315C119.765 140.584 118.28 139.999 117.135 138.939C115.607 137.532 111.686 133.798 108.231 129.547C107.104 128.162 107.271 126.086 108.604 124.91Z" fill="#C85A41"/>
<path d="M125.42 130.39C123.413 130.743 121.348 130.053 119.903 128.552L114.732 123.17C113.497 121.884 113.497 119.802 114.732 118.517C115.967 117.231 117.968 117.231 119.203 118.517L124.377 123.899L159.83 117.749C160.95 117.553 162.136 117.682 163.22 118.128L177.414 124.041C178.427 124.455 179.329 125.146 180.023 126.046L191.6 141.112C192.31 142.031 192.767 143.13 192.931 144.3L195.969 166.442C196.216 168.241 195.015 169.909 193.286 170.166C193.135 170.189 192.983 170.198 192.835 170.198C191.285 170.198 189.933 169.016 189.708 167.374L186.667 145.232L175.084 130.159L160.871 124.24L125.42 130.39Z" fill="#C85A41"/>
<path d="M194.535 90.7163L160.357 113.353C159.597 113.861 158.72 114.201 157.733 114.343L129.957 117.534C129.84 117.546 129.723 117.553 129.609 117.553C128.019 117.553 126.648 116.306 126.469 114.623C126.278 112.816 127.532 111.191 129.266 110.992L129.626 110.95C129.636 109.698 130.32 108.505 131.492 107.965L159.354 95.1055L174.119 79.737L177.092 64.2625C177.432 62.4791 179.083 61.3065 180.813 61.6826C182.523 62.0392 183.634 63.7712 183.291 65.5546L180.318 81.0359C180.068 82.3117 179.472 83.4715 178.59 84.3903L163.824 99.7589C163.336 100.266 162.78 100.681 162.046 101.057L144.255 109.271L156.94 107.814L191.139 85.1649C192.612 84.1975 194.569 84.6442 195.505 86.1738C196.443 87.7053 196.008 89.7394 194.535 90.7163Z" fill="#C85A41"/>
<path d="M144.628 90.5107C144.628 90.5107 146.9 100.382 138.108 95.549L136.857 108.505C136.857 108.505 146.341 108.093 153.816 100.073C158.737 94.792 144.628 90.5107 144.628 90.5107Z" fill="#FFBE7D"/>
<path d="M157.273 73.5952C157.273 73.5952 160.83 68.7462 158.064 61.6174C156.054 56.4385 134.813 24.3245 117.539 27.4343C116.188 27.6773 115.95 29.5798 117.18 30.2114C129.586 36.5812 132.774 48.4562 132.774 48.4562C126.717 49.8575 118.08 46.784 112.629 44.3802C111.249 43.7714 110.037 45.5305 111.029 46.6999C118.661 55.6938 136.045 72.3449 145.418 75.9639L157.273 73.5952Z" fill="#C85A41"/>
<path d="M112.629 44.3806C118.079 46.7839 126.716 49.8571 132.774 48.4566C135.301 53.7176 135.812 65.2719 137.529 71.3815C128.26 64.7834 116.831 53.5363 111.029 46.6999C110.036 45.5309 111.249 43.7714 112.629 44.3806Z" fill="#E6785A"/>
<path d="M126.611 37.6352C124.31 34.9745 121.236 32.2934 117.166 30.2052C115.927 29.5693 116.204 27.6727 117.566 27.4316C122.955 26.4762 128.728 28.9505 134.182 32.9536C131.238 33.8612 127.976 35.4223 126.611 37.6352Z" fill="#585661"/>
<path d="M112.63 44.3774C114.961 45.4046 117.876 46.5545 120.924 47.4251C119.773 49.0782 118.798 51.7529 119.502 55.75C116.164 52.4299 113.2 49.2511 111.027 46.6936C110.031 45.5202 111.244 43.767 112.63 44.3774Z" fill="#585661"/>
<path d="M142.257 81.3596C142.257 76.8354 144.791 74.0376 147.789 72.9968C154.112 70.8034 158.063 71.4888 161.225 78.0694C163.655 83.1299 156.366 101.101 151.741 101.101C146.604 101.101 142.257 90.4082 142.257 81.3596Z" fill="#E6785A"/>
<path d="M87.3956 124.91C86.0649 123.74 84.0674 123.907 82.9408 125.299C79.7519 129.222 76.0968 132.702 74.6854 134.003H45.5675C43.9035 134.003 42.2734 134.707 41.0974 135.931L23.9827 153.745C22.8063 154.969 22.1306 156.666 22.1306 158.398V173.487C22.1306 175.305 23.5443 176.777 25.2919 176.777C27.0394 176.777 28.4531 175.305 28.4531 173.487V158.398L45.5683 140.584H74.6862C76.2358 140.584 77.7211 139.999 78.8661 138.939C80.3943 137.532 84.3151 133.798 87.7696 129.547C88.8958 128.162 88.7293 126.086 87.3956 124.91Z" fill="#C85A41"/>
<path d="M70.5798 130.39C72.5865 130.743 74.6518 130.053 76.0965 128.552L81.2676 123.17C82.5025 121.884 82.5025 119.802 81.2676 118.517C80.0326 117.231 78.0324 117.231 76.7975 118.517L71.6234 123.899L36.1703 117.749C35.0498 117.553 33.8643 117.682 32.7805 118.128L18.5858 124.041C17.5729 124.455 16.6718 125.146 15.977 126.046L4.39996 141.112C3.68985 142.031 3.23315 143.13 3.06931 144.3L0.031689 166.442C-0.215225 168.241 0.985658 169.909 2.71444 170.166C2.86565 170.189 3.01724 170.198 3.16539 170.198C4.71502 170.198 6.06749 169.016 6.29259 167.374L9.33327 145.232L20.916 130.159L35.1295 124.24L70.5798 130.39Z" fill="#C85A41"/>
<path d="M1.46517 90.7163L35.6431 113.353C36.4026 113.861 37.2796 114.201 38.2672 114.343L66.0422 117.534C66.1597 117.546 66.2769 117.553 66.3909 117.553C67.9808 117.553 69.3516 116.306 69.5304 114.623C69.7218 112.816 68.4681 111.191 66.7336 110.992L66.3741 110.95C66.3641 109.698 65.6793 108.505 64.5079 107.965L36.646 95.1055L21.8802 79.737L18.9073 64.2625C18.5677 62.4791 16.9162 61.3065 15.1871 61.6826C13.4767 62.0392 12.3654 63.7712 12.7084 65.5546L15.6813 81.0359C15.9313 82.3117 16.5273 83.4715 17.4101 84.3903L32.1759 99.7589C32.6636 100.266 33.2195 100.681 33.9541 101.057L51.7449 109.271L39.06 107.814L4.86072 85.1649C3.38804 84.1975 1.43072 84.6442 0.495506 86.1738C-0.442767 87.7053 -0.00750922 89.7394 1.46517 90.7163Z" fill="#C85A41"/>
<path d="M69.3895 37.6352C71.6898 34.9745 74.7646 32.2934 78.8343 30.2052C80.073 29.5693 79.7959 27.6727 78.4342 27.4316C73.0454 26.4762 67.2726 28.9505 61.8179 32.9536C64.7617 33.8612 68.0244 35.4223 69.3895 37.6352Z" fill="#585661"/>
<path d="M83.3704 44.3774C81.0387 45.4046 78.1236 46.5545 75.0764 47.4251C76.2272 49.0782 77.2018 51.7529 76.4982 55.75C79.8363 52.4299 82.7997 49.2511 84.9729 46.6936C85.9693 45.5202 84.7558 43.767 83.3704 44.3774Z" fill="#585661"/>
<path d="M51.3716 90.5107C51.3716 90.5107 49.0996 100.382 57.8917 95.549L59.1431 108.505C59.1431 108.505 49.6593 108.093 42.1841 100.073C37.2627 94.792 51.3716 90.5107 51.3716 90.5107Z" fill="#FFBE7D"/>
<path d="M38.7266 73.5952C38.7266 73.5952 35.1703 68.7462 37.9365 61.6174C39.9459 56.4385 61.187 24.3245 78.4606 27.4343C79.8116 27.6773 80.05 29.5798 78.8201 30.2114C66.4143 36.5812 63.2258 48.4562 63.2258 48.4562C69.2834 49.8575 77.9205 46.784 83.3706 44.3802C84.7506 43.7714 85.9634 45.5305 84.9715 46.6999C77.339 55.6938 59.9547 72.3449 50.5815 75.9639L38.7266 73.5952Z" fill="#C85A41"/>
<path d="M83.3709 44.3806C77.9208 46.7839 69.2837 49.8571 63.2261 48.4566C60.6988 53.7176 60.1885 65.2719 58.4712 71.3815C67.7402 64.7834 79.1695 53.5363 84.971 46.6999C85.964 45.5309 84.7509 43.7714 83.3709 44.3806Z" fill="#E6785A"/>
<path d="M53.7426 81.3596C53.7426 76.8354 51.2091 74.0376 48.2106 72.9968C41.888 70.8034 37.9366 71.4888 34.7754 78.0694C32.3445 83.1299 39.6336 101.101 44.2592 101.101C49.3957 101.101 53.7426 90.4082 53.7426 81.3596Z" fill="#E6785A"/>
<path d="M82.1937 81.3594C80.4462 81.3594 79.0325 79.888 79.0325 78.0691V71.4885C79.0325 69.6697 80.4462 68.1982 82.1937 68.1982C83.9413 68.1982 85.355 69.6697 85.355 71.4885V78.0691C85.355 79.888 83.9413 81.3594 82.1937 81.3594Z" fill="#C85A41"/>
<path d="M113.806 81.3594C112.059 81.3594 110.645 79.888 110.645 78.0691V71.4885C110.645 69.6697 112.059 68.1982 113.806 68.1982C115.554 68.1982 116.968 69.6697 116.968 71.4885V78.0691C116.968 79.888 115.553 81.3594 113.806 81.3594Z" fill="#C85A41"/>
<path d="M142.257 104.391C142.257 86.2193 122.443 71.4883 98 71.4883C73.5574 71.4883 53.7427 86.2193 53.7427 104.391C53.7427 113.617 63.7999 121.954 74.3878 127.928C75.4309 128.516 76.249 129.486 76.6762 130.684C78.0976 134.671 81.6038 137.294 85.51 137.294H110.491C114.397 137.294 117.903 134.67 119.325 130.684C119.752 129.486 120.57 128.517 121.613 127.928C132.2 121.954 142.257 113.617 142.257 104.391Z" fill="#E6785A"/>
</g>
<defs>
<clipPath id="clip0">
<rect width="196" height="204" fill="white"/>
</clipPath>
</defs>
</svg>
