<svg width="331" height="272" viewBox="0 0 331 272" fill="none" xmlns="http://www.w3.org/2000/svg">
<g clip-path="url(#clip0)">
<path d="M143.336 37.3765C146.971 37.3765 149.919 34.9545 149.919 31.9668V6.47318C149.919 3.48597 146.972 1.06348 143.336 1.06348C139.7 1.06348 136.753 3.48544 136.753 6.47318V31.9668C136.753 34.9545 139.7 37.3765 143.336 37.3765Z" fill="#3B9957"/>
<path d="M143.336 270.936C146.971 270.936 149.919 268.514 149.919 265.526V240.033C149.919 237.046 146.972 234.623 143.336 234.623C139.7 234.623 136.753 237.045 136.753 240.033V265.526C136.753 268.514 139.7 270.936 143.336 270.936Z" fill="#3B9957"/>
<path d="M80.2486 50.7754C81.3651 50.7754 82.4964 50.5416 83.5334 50.0497C86.6818 48.5558 87.7614 45.2472 85.9428 42.66L70.4304 20.5818C68.6138 17.9947 64.5869 17.1075 61.4378 18.6019C58.2895 20.0957 57.2098 23.4044 59.0284 25.9915L74.5408 48.0697C75.7607 49.8048 77.9736 50.7754 80.2486 50.7754Z" fill="#3B9957"/>
<path d="M221.947 253.448C223.064 253.448 224.195 253.214 225.232 252.722C228.38 251.228 229.46 247.92 227.642 245.332L212.13 223.254C210.314 220.667 206.286 219.78 203.138 221.274C199.99 222.768 198.91 226.077 200.728 228.664L216.241 250.742C217.459 252.478 219.672 253.448 221.947 253.448Z" fill="#3B9957"/>
<path d="M33.4458 89.2249C35.7221 89.2249 37.9337 88.2543 39.1536 86.5192C40.9722 83.9321 39.8926 80.6234 36.7442 79.1296L9.877 66.3822C6.72604 64.8862 2.70168 65.7756 0.884415 68.3622C-0.934143 70.9494 0.145481 74.258 3.29385 75.7519L30.1611 88.4992C31.1967 88.9917 32.3294 89.2249 33.4458 89.2249Z" fill="#3B9957"/>
<path d="M280.08 205.666C282.356 205.666 284.568 204.697 285.788 202.961C287.606 200.373 286.526 197.065 283.378 195.571L256.511 182.824C253.361 181.328 249.336 182.217 247.518 184.804C245.7 187.391 246.779 190.699 249.928 192.193L276.795 204.941C277.832 205.433 278.964 205.666 280.08 205.666Z" fill="#3B9957"/>
<path d="M206.423 50.775C208.7 50.775 210.911 49.8044 212.131 48.0694L227.642 25.9912C229.461 23.404 228.381 20.0954 225.233 18.6015C222.082 17.1071 218.057 17.9959 216.24 20.5815L200.728 42.6597C198.909 45.2468 199.989 48.5555 203.137 50.0493C204.174 50.5407 205.306 50.775 206.423 50.775Z" fill="#3B9957"/>
<path d="M64.7232 253.448C66.9995 253.448 69.2111 252.477 70.4297 250.742L85.9421 228.664C87.7607 226.077 86.681 222.768 83.5326 221.274C80.3817 219.78 76.3573 220.667 74.5401 223.254L59.0277 245.333C57.2091 247.92 58.2888 251.228 61.4371 252.722C62.4754 253.214 63.6074 253.448 64.7232 253.448Z" fill="#3B9957"/>
<path d="M253.226 89.2249C254.343 89.2249 255.474 88.9912 256.511 88.4992L283.378 75.7519C286.526 74.258 287.606 70.9494 285.788 68.3622C283.97 65.7745 279.944 64.8879 276.795 66.3823L249.928 79.1296C246.779 80.6234 245.7 83.9321 247.518 86.5193C248.738 88.2554 250.951 89.2249 253.226 89.2249Z" fill="#3B9957"/>
<path d="M6.59087 205.666C7.70735 205.666 8.83869 205.432 9.87565 204.94L36.7429 192.193C39.8912 190.699 40.9709 187.391 39.1523 184.803C37.3344 182.216 33.3087 181.328 30.1597 182.823L3.29253 195.571C0.14415 197.065 -0.93549 200.373 0.883068 202.96C2.10298 204.696 4.3159 205.666 6.59087 205.666Z" fill="#3B9957"/>
<path d="M15.4988 135.661C15.4988 136.568 15.515 137.474 15.5402 138.38C15.6552 142.038 15.9927 145.643 16.5526 149.199C24.633 200.821 78.3182 240.71 143.334 240.71C206.63 240.71 259.171 202.903 269.366 153.277L331 193.139L306.922 135.066L331 78.184L269.366 118.046C259.171 68.4197 206.63 30.6128 143.334 30.6128C72.7384 30.6128 15.4988 77.6427 15.4988 135.661Z" fill="#61BD6D"/>
<path d="M106.442 88.5505C107.558 88.5505 108.689 88.3168 109.726 87.8254C112.875 86.3315 113.954 83.0224 112.136 80.4352L103.181 67.6879C101.362 65.1001 97.3352 64.2151 94.1874 65.7074C91.039 67.2012 89.9594 70.5104 91.7773 73.0976L100.733 85.8449C101.953 87.581 104.166 88.5505 106.442 88.5505Z" fill="#3B9957"/>
<path d="M189.198 206.341C190.315 206.341 191.446 206.107 192.483 205.615C195.632 204.122 196.711 200.812 194.893 198.225L185.938 185.478C184.119 182.89 180.093 182.005 176.944 183.497C173.796 184.991 172.716 188.3 174.534 190.888L183.49 203.635C184.711 205.37 186.923 206.341 189.198 206.341Z" fill="#3B9957"/>
<path d="M180.23 88.5507C182.507 88.5507 184.718 87.5801 185.939 85.845L194.895 73.0977C196.712 70.5105 195.633 67.2014 192.484 65.7075C189.334 64.2152 185.31 65.1019 183.491 67.688L174.535 80.4353C172.718 83.0225 173.797 86.3316 176.946 87.8255C177.982 88.3164 179.114 88.5507 180.23 88.5507Z" fill="#3B9957"/>
<path d="M97.4728 206.34C99.7491 206.34 101.961 205.37 103.181 203.635L112.137 190.887C113.955 188.3 112.875 184.991 109.727 183.497C106.577 182.004 102.552 182.892 100.734 185.478L91.7779 198.225C89.96 200.812 91.0397 204.121 94.188 205.615C95.2243 206.107 96.357 206.34 97.4728 206.34Z" fill="#3B9957"/>
<path d="M143.336 108.721C146.971 108.721 149.919 106.299 149.919 103.312V95.4615C149.919 92.4743 146.972 90.0518 143.336 90.0518C139.7 90.0518 136.753 92.4737 136.753 95.4615V103.312C136.753 106.299 139.7 108.721 143.336 108.721Z" fill="#3B9957"/>
<path d="M143.336 181.271C146.971 181.271 149.919 178.849 149.919 175.862V168.011C149.919 165.024 146.972 162.602 143.336 162.602C139.7 162.602 136.753 165.024 136.753 168.011V175.862C136.753 178.849 139.7 181.271 143.336 181.271Z" fill="#3B9957"/>
<path d="M109.237 124.897C111.513 124.897 113.725 123.927 114.945 122.191C116.763 119.604 115.684 116.296 112.535 114.802L104.262 110.876C101.111 109.381 97.087 110.27 95.2697 112.856C93.4511 115.444 94.5308 118.752 97.6792 120.246L105.952 124.171C106.989 124.663 108.121 124.897 109.237 124.897Z" fill="#3B9957"/>
<path d="M185.694 161.172C187.971 161.172 190.182 160.203 191.402 158.467C193.22 155.88 192.141 152.57 188.992 151.076L180.718 147.151C177.568 145.658 173.543 146.545 171.725 149.132C169.907 151.719 170.986 155.028 174.135 156.522L182.409 160.447C183.447 160.938 184.579 161.172 185.694 161.172Z" fill="#3B9957"/>
<path d="M177.434 124.897C178.55 124.897 179.682 124.663 180.719 124.172L188.993 120.247C192.141 118.753 193.221 115.443 191.403 112.856C189.584 110.269 185.559 109.384 182.41 110.876L174.135 114.801C170.987 116.295 169.907 119.604 171.725 122.191C172.946 123.928 175.159 124.897 177.434 124.897Z" fill="#3B9957"/>
<path d="M100.977 161.172C102.093 161.172 103.225 160.938 104.262 160.446L112.535 156.521C115.683 155.027 116.763 151.718 114.944 149.131C113.127 146.544 109.1 145.657 105.951 147.151L97.6784 151.077C94.53 152.571 93.4504 155.879 95.269 158.466C96.4882 160.201 98.7011 161.172 100.977 161.172Z" fill="#3B9957"/>
<path d="M210.273 141.071H227.742C231.378 141.071 234.326 138.649 234.326 135.662C234.326 132.674 231.378 130.252 227.742 130.252H210.273C206.638 130.252 203.69 132.674 203.69 135.662C203.69 138.649 206.638 141.071 210.273 141.071Z" fill="#3B9957"/>
<path d="M59.9594 109.965C56.3236 109.965 53.3762 107.543 53.3762 104.555C53.3762 101.568 56.3236 99.1455 59.9594 99.1455C63.5951 99.1455 66.5425 101.568 66.5425 104.555C66.5425 107.543 63.5951 109.965 59.9594 109.965Z" fill="#33854B"/>
<path d="M15.5401 138.38C15.6552 142.038 15.9927 145.643 16.5525 149.199H60.0253C63.6243 149.199 66.5425 146.801 66.5425 143.844V143.735C66.5425 140.778 63.6243 138.38 60.0253 138.38H15.5401Z" fill="#33854B"/>
</g>
<defs>
<clipPath id="clip0">
<rect width="331" height="272" fill="white" transform="matrix(-1 0 0 1 331 0)"/>
</clipPath>
</defs>
</svg>
