<svg width="337" height="316" viewBox="0 0 337 316" fill="none" xmlns="http://www.w3.org/2000/svg">
<path d="M287.676 192.351H159.236C131.995 192.351 109.912 213.06 109.912 238.604V315.998H337V238.604C336.999 213.06 314.917 192.351 287.676 192.351Z" fill="#999999"/>
<path d="M313.404 247.666C313.404 256.526 309.697 264.574 303.672 270.521C303.465 270.724 303.258 270.927 303.042 271.13C299.396 274.549 294.971 277.224 290.026 278.892C287.785 279.648 285.445 280.192 283.026 280.515C281.384 280.736 279.713 280.847 278.013 280.847H168.896C162.073 280.847 155.713 279.04 150.305 275.905C140.218 270.06 133.504 259.596 133.504 247.666C133.504 235.737 140.218 225.273 150.305 219.419C155.712 216.285 162.073 214.478 168.896 214.478H278.012C279.713 214.478 281.384 214.589 283.025 214.809C285.444 215.132 287.784 215.685 290.026 216.44C295.256 218.202 299.916 221.096 303.672 224.812C309.697 230.759 313.404 238.807 313.404 247.666Z" fill="#666666"/>
<path d="M177.763 150.063H49.3235C22.0831 150.063 0 170.772 0 196.317V316H227.088V196.317C227.088 170.772 205.005 150.063 177.763 150.063Z" fill="#B3B3B3"/>
<path d="M203.492 205.378C203.492 214.238 199.785 222.286 193.759 228.233C193.552 228.436 193.346 228.639 193.13 228.841C187.841 233.801 180.891 237.194 173.114 238.226C171.472 238.447 169.801 238.558 168.1 238.558H58.9845C52.1616 238.558 45.8013 236.751 40.3938 233.616C30.3071 227.771 23.5926 217.308 23.5926 205.378C23.5926 193.449 30.3071 182.985 40.3938 177.132C45.8004 173.996 52.1616 172.189 58.9845 172.189H168.101C169.802 172.189 171.473 172.3 173.115 172.522C181.196 173.59 188.402 177.223 193.76 182.524C199.785 188.471 203.492 196.519 203.492 205.378Z" fill="#666666"/>
<path d="M61.0387 86.4514V238.559H58.9843C52.1614 238.559 45.8012 236.752 40.3936 233.617V86.4514C40.3936 74.2362 29.8351 64.3257 16.8082 64.3257C13.9576 64.3257 11.3817 63.2467 9.51346 61.4956C7.64526 59.7437 6.48565 57.3188 6.48565 54.6456C6.48565 51.9817 7.64616 49.5568 9.51346 47.8049C11.3817 46.053 13.9576 44.9656 16.8082 44.9656C29.0189 44.9656 40.0781 49.6119 48.0806 57.1163C56.0939 64.6299 61.0387 74.9923 61.0387 86.4514Z" fill="#CE3E3E"/>
<path d="M89.0574 42.2088V238.558H68.4123V42.2088C68.4123 29.9835 57.8538 20.0831 44.818 20.0831C41.9664 20.0831 39.3815 18.9949 37.5133 17.2438C35.6451 15.4919 34.4954 13.0764 34.4954 10.4031C34.4954 7.72994 35.646 5.31439 37.5133 3.56248C39.3815 1.81057 41.9664 0.723145 44.818 0.723145C57.0377 0.723145 68.0977 5.36948 76.1002 12.8738C84.1126 20.3781 89.0574 30.7497 89.0574 42.2088Z" fill="#F74B4B"/>
<path d="M258.949 140.854V280.847H238.304V140.854C238.304 128.63 227.746 118.729 214.71 118.729C211.859 118.729 209.273 117.64 207.405 115.889C205.537 114.137 204.387 111.722 204.387 109.049C204.387 106.375 205.538 103.96 207.405 102.208C209.273 100.456 211.858 99.3687 214.71 99.3687C226.929 99.3687 237.99 104.015 245.992 111.519C254.004 119.023 258.949 129.394 258.949 140.854Z" fill="#F74B4B"/>
<path d="M186.386 24.2321C186.386 26.9054 185.235 29.3209 183.368 31.0728C181.5 32.8247 178.915 33.9122 176.063 33.9122C171.59 33.9122 167.529 35.6081 164.59 38.3644C161.661 41.1122 159.841 44.9195 159.841 49.114V238.559H139.196V49.114C139.196 30.021 155.703 14.5513 176.063 14.5513C178.914 14.5513 181.5 15.6387 183.368 17.3906C185.235 19.1425 186.386 21.5581 186.386 24.2321Z" fill="#F74B4B"/>
<path d="M220.303 74.0061C220.303 76.6793 219.142 79.1042 217.275 80.8561C215.407 82.608 212.822 83.6861 209.98 83.6861C205.497 83.6861 201.437 85.3914 198.507 88.1392C195.578 90.8964 193.759 94.7036 193.759 98.8982V228.234C193.552 228.438 193.345 228.64 193.129 228.843C187.84 233.803 180.89 237.195 173.113 238.228V98.8974C173.113 79.8043 189.62 64.3252 209.98 64.3252C212.821 64.3252 215.407 65.4041 217.275 67.1561C219.143 68.908 220.303 71.332 220.303 74.0061Z" fill="#CE3E3E"/>
<path d="M316.569 130.279C316.569 132.952 315.41 135.377 313.541 137.129C311.673 138.881 309.088 139.959 306.247 139.959C301.764 139.959 297.704 141.664 294.773 144.412C291.844 147.169 290.025 150.976 290.025 155.171V278.892C287.783 279.648 285.443 280.191 283.025 280.514C281.382 280.735 279.711 280.846 278.011 280.846H269.38V155.171C269.38 136.078 285.886 120.599 306.247 120.599C309.088 120.599 311.673 121.678 313.541 123.43C315.41 125.181 316.569 127.606 316.569 130.279Z" fill="#CE3E3E"/>
<path d="M153.943 105.811C153.943 108.484 152.793 110.909 150.925 112.661C149.057 114.413 146.472 115.491 143.621 115.491C142.087 115.491 140.603 115.694 139.196 116.071C136.493 116.782 134.075 118.137 132.148 119.944C129.218 122.701 127.399 126.508 127.399 130.703V238.557H106.754V130.703C106.754 113.021 120.92 98.4269 139.196 96.38C140.642 96.2139 142.126 96.1309 143.621 96.1309C146.471 96.1309 149.057 97.2098 150.925 98.9617C152.793 100.713 153.943 103.138 153.943 105.811Z" fill="#CE3E3E"/>
</svg>
