<svg width="472" height="519" viewBox="0 0 472 519" fill="none" xmlns="http://www.w3.org/2000/svg">
<path d="M470.958 378.377C479.287 406.619 435.546 418.159 415.516 420.742C381.68 425.145 347.92 414.137 320.611 394.245C321.061 396.446 321.662 398.573 322.037 400.774C324.588 415.198 324.063 430.382 327.965 444.58C332.991 462.953 342.445 470.469 351.897 485.35C357.825 494.689 360.599 500.763 360.375 512.074C360.375 514.275 357.825 515.414 356.098 514.655C354.748 518.45 351.82 519.818 346.494 518.526C332.839 514.957 322.937 488.309 312.133 480.11C296.304 468.039 274.321 467.582 258.116 455.283C246.337 446.248 238.31 434.253 233.133 420.587C228.105 431.975 221.354 442.984 212.951 453.233C199.448 469.707 195.546 488.991 183.616 505.012C180.539 509.187 177.915 515.337 171.763 516.096C166.511 516.703 163.886 515.488 162.234 512.907C155.857 508.428 154.206 503.189 154.057 494.154C153.831 487.019 157.283 480.412 159.383 473.883C167.712 448.676 172.437 431.291 164.335 404.643C159.458 388.7 150.906 372.225 146.78 356.053C137.102 371.846 137.328 392.344 126.223 407.908C115.345 423.245 98.839 433.417 83.2353 442.984C70.557 450.728 56.8276 457.561 45.7232 467.658C37.546 475.097 33.0449 485.12 25.6164 492.711C21.791 496.659 19.3136 499.24 15.9382 500.075C16.4628 502.276 14.2879 504.783 11.7376 503.34C-0.192003 496.811 -1.76582 490.206 1.46022 476.843C4.91217 461.963 18.6415 448.829 25.7676 435.542C37.322 413.829 38.4459 392.875 39.2711 368.732C39.721 354.003 42.7977 340.11 48.1987 328.037C49.5485 324.546 51.3501 321.281 53.0004 319.079C64.6295 300.022 83.7599 287.496 110.619 287.343C88.7875 217.045 63.2797 129.584 110.769 63.7603C147.306 13.1961 219.179 -6.694 278.447 1.9607C338.466 10.7684 382.955 58.066 392.557 118.271C403.96 189.713 362.247 245.21 312.432 289.396C331.788 285.676 350.618 291.826 367.275 304.429C386.107 318.627 436.146 403.961 463.681 376.251C464.956 375.037 466.681 375.341 467.807 376.251C469.157 376.1 470.508 376.707 470.958 378.377ZM387.006 413.226C400.361 414.669 467.131 411.556 465.555 383.618C453.628 396.525 436.971 393.183 423.318 381.492C384.906 348.77 367.501 283.402 305.53 295.474C301.779 298.663 297.952 301.852 294.127 304.964C290.302 308.077 284.749 302.838 288.575 299.345C335.69 256.525 385.955 212.037 385.955 142.265C385.955 65.4323 328.562 10.0864 254.139 8.56744C245.212 8.33884 236.133 8.94718 226.981 10.0108C234.109 15.3253 237.335 25.1192 232.983 35.0643C224.506 54.0438 199.224 68.7725 178.891 66.7226C159.234 64.8239 153.833 50.0197 163.136 32.7859C164.036 31.1913 165.087 29.8254 166.061 28.382C140.554 41.5161 118.796 61.1795 106.042 87.8275C75.4315 151.677 101.165 223.044 115.869 287.348C115.944 287.879 115.869 288.335 115.72 288.714C116.545 290.385 115.72 292.739 113.394 292.965C104.391 293.8 96.2888 295.926 88.935 299.039C98.9884 302.379 97.1868 317.261 91.4852 325.003C83.8327 335.404 68.3036 348.691 54.423 346.945C52.698 346.717 51.2717 346.261 50.0712 345.579C48.7214 350.894 47.745 356.512 47.2951 362.433C46.3206 375.341 47.8963 388.475 46.02 401.38C45.9453 402.064 45.7194 402.899 45.4954 403.659C48.8708 397.965 53.9731 393.714 60.3505 391.891C61.1757 391.662 61.7003 392.27 61.7768 392.954C64.4783 393.334 66.7279 395.155 67.6278 397.965C68.9029 402.14 66.8026 406.544 65.0776 410.264C62.0756 416.489 56.2993 424.841 48.3481 423.551C42.8705 422.64 41.6701 417.857 42.1219 413.149C31.9938 437.065 6.11074 478.668 11.663 494.005C14.889 492.639 28.3925 475.936 28.3925 476.087C33.0449 469.862 38.4459 464.774 44.448 459.915C56.527 449.893 70.3311 442.606 83.5359 434.407C109.944 418.008 123.374 402.975 132.526 373.442C135.827 362.813 138.003 355.145 144.98 347.098C143.104 333.28 145.581 319.766 157.884 307.163C159.159 305.873 161.486 307.618 160.435 309.137C151.656 321.741 149.556 333.735 150.906 345.579C151.806 346.565 152.181 347.933 151.507 349.299C156.083 375.112 175.889 400.014 178.066 427.042C179.716 447.769 153.308 490.132 165.462 507.746C175.441 510.1 189.096 472.898 191.495 468.874C197.047 459.611 205.075 453.006 211.676 444.731C239.585 409.504 243.487 366.533 226.981 325.459C225.631 322.118 231.256 319.764 232.683 323.029C245.962 353.321 246.561 383.994 236.433 412.236C236.883 412.616 237.333 413.071 237.559 413.755C250.088 446.706 272.444 454.752 302.155 467.508C311.833 471.683 320.085 476.618 327.138 484.591C329.163 486.867 348.669 518.452 354.147 510.1C349.196 485.426 324.888 467.28 319.485 441.164C310.257 396.674 309.882 363.801 271.246 333.66C269.146 331.99 270.945 328.65 273.346 330.015C297.353 343.15 312.208 363.497 319.336 388.93C341.093 400.698 362.174 410.721 387.006 413.226ZM219.179 41.5161C228.258 31.1158 233.51 10.9196 211.827 12.7427C211.603 12.7427 211.303 12.6671 211.077 12.5916C202.524 14.4128 194.121 16.8424 185.944 19.8048C174.916 26.334 160.586 40.4563 169.889 52.982C178.742 64.9014 196.072 58.6007 206.876 51.7672C211.151 49.0316 215.727 45.3872 219.179 41.5161ZM78.5101 328.497C83.6124 323.866 99.4421 305.948 83.6871 303.367C82.9366 303.216 82.4866 302.837 82.1861 302.304C68.7573 309.895 58.7786 321.588 53.0023 336.545C53.4522 338.215 54.802 339.354 57.5035 339.581C64.5548 340.114 73.6337 332.9 78.5101 328.497ZM57.3522 412.011C58.5527 410.188 65.6806 398.042 60.0537 397.813C58.9279 397.738 58.3286 397.054 58.0281 396.294C52.627 400.243 48.2752 406.088 47.5247 412.922C46.5502 421.652 54.8767 415.656 57.3522 412.011Z" fill="#1D1D1B"/>
<path d="M465.558 383.616C467.133 411.554 400.363 414.668 387.009 413.224C362.177 410.719 341.093 400.697 319.338 388.93C312.21 363.497 297.357 343.15 273.348 330.016C270.947 328.65 269.148 331.99 271.248 333.66C309.886 363.801 310.261 396.675 319.487 441.165C324.888 467.282 349.196 485.426 354.149 510.1C348.671 518.452 329.166 486.868 327.14 484.591C320.089 476.618 311.835 471.684 302.157 467.509C272.448 454.754 250.09 446.706 237.561 413.755C237.337 413.071 236.885 412.616 236.435 412.236C246.563 383.994 245.964 353.322 232.685 323.029C231.258 319.765 225.633 322.119 226.983 325.459C243.489 366.531 239.587 409.504 211.678 444.732C205.077 453.007 197.049 459.611 191.497 468.874C189.096 472.899 175.441 510.1 165.464 507.746C153.311 490.132 179.718 447.768 178.068 427.042C175.893 400.015 156.087 375.112 151.509 349.299C152.185 347.934 151.81 346.566 150.908 345.58C149.558 333.736 151.658 321.741 160.437 309.138C161.488 307.619 159.161 305.873 157.886 307.163C145.583 319.767 143.106 333.28 144.982 347.098C138.005 355.147 135.829 362.813 132.528 373.442C123.374 402.975 109.946 418.008 83.5379 434.407C70.3332 442.606 56.5291 449.895 44.4501 459.916C38.448 464.775 33.0469 469.861 28.3946 476.088C28.3946 475.936 14.8911 492.638 11.665 494.005C6.11281 478.668 31.9959 437.065 42.1239 413.149C41.674 417.857 42.8744 422.639 48.3501 423.551C56.3032 424.841 62.0795 416.491 65.0797 410.264C66.8047 406.544 68.905 402.14 67.6299 397.965C66.73 395.156 64.4785 393.334 61.7789 392.955C61.7043 392.271 61.1796 391.664 60.3526 391.891C53.9752 393.712 48.8747 397.965 45.4975 403.659C45.7234 402.9 45.9474 402.065 46.0221 401.381C47.8983 388.473 46.3227 375.339 47.2972 362.434C47.7471 356.511 48.7235 350.894 50.0733 345.58C51.2737 346.263 52.7001 346.719 54.4251 346.945C68.3038 348.691 83.8348 335.406 91.4873 325.004C97.1889 317.259 98.9905 302.38 88.9371 299.039C96.289 295.926 104.392 293.801 113.396 292.966C115.722 292.739 116.547 290.385 115.722 288.715C115.871 288.335 115.948 287.88 115.871 287.349C101.167 223.044 75.4336 151.677 106.044 87.8279C118.799 61.1799 140.554 41.5165 166.064 28.3823C165.089 29.8257 164.038 31.1916 163.138 32.7862C153.835 50.02 159.236 64.8242 178.893 66.7229C199.224 68.7728 224.508 54.0441 232.985 35.0646C237.337 25.1196 234.111 15.3256 226.983 10.0112C236.137 8.94751 245.214 8.34106 254.141 8.56777C328.564 10.0867 385.957 65.4326 385.957 142.265C385.957 212.037 335.692 256.525 288.577 299.346C284.751 302.839 290.302 308.076 294.129 304.964C297.954 301.851 301.782 298.664 305.532 295.474C367.501 283.404 384.906 348.77 423.32 381.492C436.973 393.183 453.628 396.523 465.558 383.616ZM393.384 360.233C397.209 354.614 392.634 347.934 387.683 344.973C382.431 341.86 373.503 340.722 368.776 345.353C367.501 346.568 368.1 348.087 369.301 348.769C368.326 359.093 386.631 370.178 393.384 360.233ZM379.655 127.23C379.804 128.521 381.68 127.914 381.531 126.699C380.78 121.234 379.881 115.919 378.904 110.527C378.68 109.692 377.254 109.921 377.403 110.756C378.004 116.299 378.68 121.765 379.655 127.23ZM376.429 133.988C377.704 126.395 375.904 119.259 371.702 112.806C370.727 111.211 368.252 112.655 369.226 114.325C372.601 120.17 373.802 126.775 373.503 133.533C373.429 135.203 376.128 135.658 376.429 133.988ZM366.375 347.174C378.529 339.354 372.977 321.816 363.825 314.301C357.149 308.835 348.52 307.012 340.117 307.241C336.667 307.392 332.69 307.469 329.763 309.062C320.16 312.098 323.386 328.725 328.488 335.406C335.916 345.124 354.746 354.691 366.375 347.174ZM357.674 385.894C359.624 386.503 360.599 383.769 359.023 382.705C355.198 380.276 350.996 378.606 346.87 376.86C344.695 375.949 342.744 379.061 344.993 380.125C349.119 382.25 353.247 384.527 357.674 385.894ZM348.744 388.4C350.245 388.551 350.546 386.046 349.119 385.743C343.042 384.377 337.716 382.479 332.688 378.53C331.863 377.846 330.738 378.91 331.488 379.745C336.215 384.3 342.217 387.64 348.744 388.4ZM343.268 214.54C343.718 213.477 341.993 212.795 341.469 213.781C339.142 218.032 336.742 222.209 333.816 226.004C333.14 226.915 334.641 228.13 335.392 227.295C338.616 223.346 341.392 219.247 343.268 214.54ZM339.667 229.724C340.793 228.51 339.292 226.309 337.867 227.37C331.716 231.925 326.164 237.391 320.611 242.63C319.336 243.845 321.212 245.59 322.488 244.604C328.339 239.823 334.415 235.19 339.667 229.724ZM329.238 169.366C333.14 164.052 334.791 157.143 333.29 150.689C332.989 149.399 331.863 148.335 330.665 147.804C330.515 147.578 330.439 147.273 330.289 147.045C328.863 144.464 324.138 145.45 324.513 148.639C324.663 150.081 324.814 151.449 324.814 152.815C324.814 152.89 324.814 152.89 324.814 152.966C324.888 157.141 324.138 161.09 321.662 164.885C318.511 169.746 326.012 173.846 329.238 169.366ZM327.889 474.95C328.788 476.392 330.889 475.101 330.14 473.66C328.714 470.851 326.839 468.876 324.213 467.282C322.788 466.447 321.588 468.572 322.938 469.483C325.038 470.926 326.614 472.747 327.889 474.95ZM314.383 214.616C316.784 213.326 315.059 209.832 312.658 210.441C294.428 214.54 277.997 214.161 262.692 201.711C261.491 200.724 259.841 202.317 260.967 203.456C274.172 217.046 296.829 224.03 314.383 214.616ZM310.558 432.965C314.159 427.726 311.383 419.3 307.108 415.276C304.558 412.922 299.381 412.391 296.905 414.821C296.381 414.67 295.705 414.821 295.329 415.352C292.029 420.515 291.803 428.714 296.304 433.194C300.129 436.989 307.257 437.824 310.558 432.965ZM301.854 34.9097C302.078 33.011 299.304 32.8599 298.778 34.53C297.202 38.9338 295.701 42.7294 292.326 46.0696C291.05 47.4355 293.001 49.3342 294.351 48.1194C298.253 44.7036 301.33 40.1486 301.854 34.9097ZM300.505 401.458C304.406 389.008 298.705 372.456 288.651 364.485C282.5 359.551 270.57 360.386 270.57 369.42C267.57 380.58 270.195 392.879 277.472 401.915C283.924 409.962 296.603 414.061 300.505 401.458ZM293.603 34.8341C293.828 33.5438 291.726 33.0129 291.202 34.1502C289.176 38.7052 287.3 42.3496 282.799 44.8548C281.973 45.3101 282.573 46.9046 283.549 46.5249C288.5 44.4769 292.927 40.3772 293.603 34.8341ZM283.249 166.786C286.174 162.915 287.675 157.98 287.6 153.196C287.526 149.627 286.701 145.225 284.3 142.416C283.924 141.732 283.4 141.201 282.724 140.897C282.575 140.822 282.5 140.669 282.349 140.593C279.798 139.15 276.421 140.897 276.498 143.933C276.572 146.287 277.549 148.337 278.223 150.538C278.073 154.487 277.472 158.433 275.673 162.306C273.272 167.545 279.873 171.265 283.249 166.786ZM285.95 421.501C288.202 421.273 288.202 418.008 285.95 417.932C278.447 417.628 271.321 415.503 264.943 411.479C262.843 410.188 261.118 413.377 263.067 414.743C269.82 419.678 277.547 422.108 285.95 421.501ZM267.57 51.0818C275.822 49.1831 285.125 40.757 283.924 31.4939C283.4 27.6209 281.223 24.1296 277.398 22.9148C274.847 22.0797 272.221 22.3084 270.421 23.9785C262.619 25.4974 253.09 29.9769 251.44 38.0232C249.489 47.2107 259.841 52.8274 267.57 51.0818ZM278.447 409.582C280.323 409.733 280.547 406.848 278.897 406.317C274.095 404.951 270.044 402.902 267.193 398.726C266.293 397.511 264.268 398.575 265.093 400.017C267.869 405.102 272.596 408.898 278.447 409.582ZM243.561 37.5679C246.937 33.6949 249.188 28.3049 248.214 23.0678C247.913 21.3222 245.512 21.9286 245.363 23.4476C244.838 28.1537 244.237 31.9511 241.538 35.9753C240.711 37.1882 242.587 38.6316 243.561 37.5679ZM245.137 75.9085C246.188 73.0236 246.037 69.5304 243.487 67.558C243.186 67.3294 242.886 67.1783 242.512 67.0271C242.438 66.7229 242.212 66.4962 241.836 66.5718C241.762 66.5718 241.687 66.5718 241.611 66.5718C240.335 66.1921 239.06 66.2676 237.935 66.9515C232.832 67.711 228.256 70.065 224.881 74.3159C220.755 79.4792 222.105 86.6905 229.608 86.615C236.06 86.5375 242.886 82.1336 245.137 75.9085ZM207.926 383.161C210.476 378.53 211.602 373.822 210.476 368.508C210.101 366.762 207.476 367.217 207.476 368.963C207.401 373.291 206.8 377.542 204.925 381.413C203.949 383.389 206.8 385.135 207.926 383.161ZM200.872 379.137C203.723 375.037 204.774 370.027 202.823 365.318C202.299 364.104 200.047 364.71 200.197 366.078C200.721 370.253 200.721 373.973 198.471 377.693C197.497 379.29 199.898 380.655 200.872 379.137ZM191.42 376.405C199.147 363.575 190.294 345.202 181.891 334.952C178.591 330.928 174.164 327.437 168.761 329.334C165.309 330.624 163.284 333.205 163.284 336.469C160.659 339.506 160.659 345.049 160.358 348.769C159.834 356.362 161.109 364.332 164.859 370.937C170.488 380.96 183.768 389.083 191.42 376.405ZM191.42 402.142C192.171 396.297 187.518 391.742 183.693 388.097C183.168 387.566 182.567 387.566 182.043 387.642C181.742 387.338 181.292 387.187 180.842 387.491C176.642 390.376 174.765 395.235 175.141 400.321C175.516 404.725 177.991 410.19 183.017 410.266C187.369 410.264 190.895 406.242 191.42 402.142ZM189.844 449.213C191.194 445.417 191.42 438.129 187.143 436.154C186.243 435.699 184.891 436.003 184.442 436.989C180.164 437.445 177.465 441.089 175.738 444.962C173.938 449.137 173.036 455.591 178.889 456.73C183.768 457.715 188.269 453.539 189.844 449.213ZM186.469 118.424C194.422 109.39 201.098 89.0427 185.868 85.3227C185.719 85.0185 185.418 84.7163 185.043 84.5632C166.586 77.2745 145.055 85.8536 133.202 101.113C124.123 112.881 117.072 135.581 136.202 141.351C154.959 147.122 174.84 131.634 186.469 118.424ZM185.793 462.574C186.544 461.359 184.667 459.917 183.768 461.055C180.691 464.775 177.991 468.723 175.215 472.747C174.39 473.887 176.341 475.481 177.241 474.266C180.166 470.471 183.092 466.673 185.793 462.574ZM178.966 256.068C180.166 257.283 182.418 255.613 181.367 254.17C178.066 249.462 176.416 244.071 177.616 238.377C177.991 236.479 175.215 235.644 174.691 237.542C172.964 244.149 174.241 251.058 178.966 256.068ZM155.558 64.3689C156.908 65.5837 158.784 63.685 157.584 62.3191C155.934 60.4204 155.258 57.9152 154.883 55.4101C154.657 54.1953 152.857 54.3464 152.556 55.4101C151.584 58.977 152.859 61.9393 155.558 64.3689ZM156.684 154.107C157.659 152.512 155.334 151.298 154.283 152.741C150.982 157.22 145.206 158.586 140.179 156.385C138.903 155.854 137.929 157.449 139.053 158.284C144.906 162.306 153.083 160.105 156.684 154.107ZM149.183 69.8346C150.083 70.7452 151.733 69.6078 150.983 68.3912C148.808 65.1265 147.381 61.9375 147.982 57.9133C148.208 56.3944 145.957 55.7123 145.733 57.2294C144.906 61.7863 145.731 66.6455 149.183 69.8346ZM147.682 148.717C148.882 148.033 148.057 145.907 146.707 146.438C142.957 147.957 139.129 148.184 135.229 146.818C133.954 146.438 133.054 148.488 134.33 149.019C138.829 150.993 143.255 150.993 147.682 148.717ZM120.148 232.154C120.974 233.218 122.549 231.85 121.948 230.711C119.547 225.547 117.747 220.917 117.296 215.222C117.146 213.704 114.97 213.628 114.895 215.222C114.822 221.221 116.472 227.37 120.148 232.154ZM107.769 172.631C112.871 170.657 117.596 162.913 117.522 157.447C117.522 153.272 113.321 147.047 108.818 148.033C108.368 147.804 107.918 147.729 107.543 148.033C102.515 151.526 98.8393 157.902 98.6899 164.127C98.6152 169.215 102.142 174.756 107.769 172.631ZM112.421 232.838C113.246 234.053 115.197 232.989 114.447 231.623C111.146 226.004 109.421 219.855 109.496 213.25C109.57 211.884 107.545 211.96 107.47 213.25C106.944 220.31 108.519 226.991 112.421 232.838ZM111.895 97.3176C112.645 95.9517 110.694 94.2041 109.645 95.5719C106.118 99.7472 104.543 104.378 104.244 109.845C104.169 111.515 106.871 111.895 107.169 110.225C107.995 105.67 109.72 101.417 111.895 97.3176ZM110.17 327.206C110.244 325.612 107.619 325.157 107.394 326.751C106.643 331.155 104.692 334.722 100.717 336.774C99.6663 337.305 100.417 339.203 101.543 338.748C106.419 336.849 110.02 332.597 110.17 327.206ZM105.594 407.304C106.27 405.558 103.419 404.343 102.594 406.013C100.193 410.568 95.9922 413.682 90.8899 413.984C88.939 414.059 88.939 416.869 90.8899 416.944C97.4913 417.25 103.193 413.606 105.594 407.304ZM95.4657 332.294C99.8922 329.409 102.442 325.005 102.293 319.615C102.218 317.87 99.8922 317.945 99.6663 319.615C99.2164 323.64 97.2655 327.36 93.9647 329.865C92.5384 330.926 93.8154 333.356 95.4657 332.294ZM101.617 399.333C101.767 397.967 99.8157 397.587 99.1417 398.649C97.7154 401.003 96.4403 402.597 94.0394 403.963C92.7643 404.647 93.6642 406.468 94.9393 406.242C98.4659 405.558 101.167 402.824 101.617 399.333ZM60.3545 376.86C65.2309 373.595 68.0817 364.485 67.4058 358.867C67.0306 355.982 64.4057 353.477 61.7789 353.021C61.4784 352.337 60.6532 351.882 59.9773 352.337C54.651 356.133 49.0988 363.271 48.5742 370.104C48.1242 376.784 54.8769 380.504 60.3545 376.86ZM30.7954 454.299C31.6953 453.084 30.2708 451.414 29.0704 452.553C26.369 455.211 24.0446 458.172 21.5672 461.057C20.5927 462.271 22.243 464.017 23.2923 462.802C25.8425 459.993 28.4692 457.259 30.7954 454.299Z" fill="#FACCE3"/>
<path d="M387.682 344.973C392.633 347.934 397.211 354.616 393.384 360.232C386.631 370.177 368.326 359.093 369.301 348.769C368.1 348.085 367.499 346.568 368.776 345.353C373.503 340.721 382.431 341.86 387.682 344.973ZM379.804 356.284C382.354 357.803 389.557 360.308 388.657 354.614C388.058 350.97 383.555 348.769 380.405 348.16C377.929 347.629 375.904 348.085 373.727 348.616C374.177 351.958 377.028 354.538 379.804 356.284Z" fill="#1D1D1B"/>
<path d="M388.657 354.615C389.557 360.309 382.354 357.804 379.804 356.285C377.028 354.539 374.177 351.956 373.727 348.616C375.902 348.085 377.928 347.63 380.405 348.161C383.556 348.769 388.058 350.97 388.657 354.615Z" fill="#F49AC7"/>
<path d="M381.531 126.7C381.68 127.915 379.806 128.523 379.655 127.231C378.68 121.765 378.004 116.298 377.403 110.757C377.254 109.922 378.678 109.693 378.904 110.528C379.88 115.92 380.78 121.234 381.531 126.7Z" fill="#1D1D1B"/>
<path d="M371.702 112.806C375.902 119.26 377.704 126.395 376.429 133.988C376.128 135.658 373.428 135.203 373.503 133.533C373.804 126.777 372.603 120.17 369.226 114.325C368.251 112.655 370.727 111.212 371.702 112.806Z" fill="#1D1D1B"/>
<path d="M363.825 314.301C372.978 321.816 378.529 339.354 366.375 347.173C354.746 354.689 335.916 345.124 328.487 335.405C323.385 328.725 320.159 312.098 329.763 309.062C332.688 307.468 336.665 307.392 340.116 307.241C348.52 307.012 357.147 308.834 363.825 314.301ZM357.897 342.314C373.277 339.581 364.123 322.043 356.021 317.566C350.543 314.53 335.613 310.885 330.438 315.742C329.837 316.273 329.163 316.351 328.413 316.351C327.438 322.804 334.49 332.978 338.391 335.787C343.119 339.125 351.746 343.454 357.897 342.314Z" fill="#1D1D1B"/>
<path d="M356.021 317.566C364.123 322.045 373.277 339.583 357.897 342.315C351.746 343.454 343.117 339.126 338.391 335.786C334.49 332.976 327.438 322.803 328.413 316.349C329.163 316.349 329.837 316.274 330.438 315.741C335.615 310.884 350.545 314.528 356.021 317.566Z" fill="#F49AC7"/>
<path d="M359.023 382.705C360.598 383.769 359.624 386.501 357.673 385.894C353.246 384.528 349.121 382.25 344.995 380.124C342.743 379.061 344.694 375.949 346.871 376.86C350.995 378.605 355.196 380.275 359.023 382.705Z" fill="#1D1D1B"/>
<path d="M349.119 385.741C350.545 386.045 350.245 388.55 348.744 388.397C342.217 387.637 336.215 384.298 331.488 379.743C330.737 378.908 331.863 377.845 332.688 378.529C337.716 382.477 343.042 384.375 349.119 385.741Z" fill="#1D1D1B"/>
<path d="M341.467 213.78C341.991 212.794 343.718 213.476 343.266 214.54C341.39 219.248 338.614 223.347 335.39 227.294C334.639 228.129 333.138 226.914 333.814 226.003C336.741 222.208 339.142 218.031 341.467 213.78Z" fill="#1D1D1B"/>
<path d="M337.867 227.371C339.291 226.307 340.792 228.51 339.666 229.725C334.415 235.19 328.338 239.823 322.487 244.605C321.212 245.591 319.335 243.845 320.611 242.63C326.163 237.393 331.713 231.926 337.867 227.371Z" fill="#1D1D1B"/>
<path d="M333.289 150.691C334.79 157.144 333.14 164.053 329.238 169.368C326.012 173.847 318.509 169.748 321.66 164.888C324.136 161.093 324.886 157.144 324.812 152.969C324.812 152.893 324.812 152.893 324.812 152.818C324.812 151.452 324.662 150.084 324.511 148.643C324.136 145.453 328.863 144.467 330.287 147.048C330.437 147.275 330.513 147.579 330.663 147.807C331.865 148.336 332.989 149.398 333.289 150.691Z" fill="#1D1D1B"/>
<path d="M330.138 473.658C330.888 475.101 328.788 476.392 327.886 474.948C326.611 472.747 325.035 470.924 322.935 469.482C321.585 468.572 322.786 466.446 324.21 467.281C326.837 468.876 328.713 470.85 330.138 473.658Z" fill="#1D1D1B"/>
<path d="M312.658 210.441C315.059 209.832 316.784 213.326 314.383 214.616C296.828 224.031 274.169 217.046 260.966 203.456C259.841 202.317 261.491 200.722 262.691 201.71C277.996 214.161 294.427 214.541 312.658 210.441Z" fill="#1D1D1B"/>
<path d="M307.106 415.275C311.381 419.299 314.157 427.725 310.556 432.964C307.255 437.823 300.127 436.988 296.302 433.193C291.801 428.713 292.025 420.514 295.327 415.351C295.703 414.82 296.378 414.667 296.903 414.82C299.379 412.39 304.556 412.921 307.106 415.275ZM304.031 430.686C310.709 429.851 304.406 412.542 298.63 419.526C298.329 419.83 298.029 419.981 297.73 420.057C297.504 425.145 297.879 431.521 304.031 430.686Z" fill="#1D1D1B"/>
<path d="M298.628 419.526C304.404 412.542 310.707 429.851 304.029 430.686C297.877 431.521 297.502 425.143 297.726 420.057C298.028 419.981 298.329 419.83 298.628 419.526Z" fill="#F49AC7"/>
<path d="M298.779 34.5319C299.304 32.8617 302.08 33.0128 301.856 34.9116C301.331 40.1508 298.255 44.7061 294.353 48.122C293.003 49.3369 291.052 47.4381 292.327 46.0721C295.702 42.7317 297.203 38.9341 298.779 34.5319Z" fill="#1D1D1B"/>
<path d="M288.651 364.483C298.705 372.454 304.406 389.006 300.504 401.456C296.603 414.06 283.924 409.96 277.472 401.912C270.195 392.877 267.568 380.578 270.57 369.416C270.57 360.384 282.5 359.548 288.651 364.483ZM284.975 400.927C297.88 408.596 295.253 388.022 293.152 382.403C292.027 379.367 290.526 376.405 288.651 373.824C287.001 371.47 276.873 360.234 275.223 371.545C275.073 372.229 274.698 372.609 274.248 372.911C273.722 383.161 276.197 395.688 284.975 400.927Z" fill="#1D1D1B"/>
<path d="M291.202 34.151C291.726 33.0117 293.826 33.5426 293.602 34.835C292.927 40.3784 288.5 44.4783 283.549 46.5283C282.574 46.908 281.973 45.3134 282.798 44.8581C287.3 42.3509 289.176 38.7063 291.202 34.151Z" fill="#1D1D1B"/>
<path d="M293.152 382.4C295.253 388.019 297.879 408.593 284.975 400.925C276.197 395.686 273.721 383.16 274.246 372.911C274.696 372.606 275.071 372.227 275.22 371.545C276.871 360.232 286.999 371.469 288.649 373.823C290.526 376.404 292.027 379.364 293.152 382.4Z" fill="#F49AC7"/>
<path d="M287.599 153.196C287.674 157.979 286.173 162.914 283.248 166.785C279.872 171.264 273.269 167.544 275.67 162.306C277.469 158.435 278.071 154.486 278.22 150.538C277.544 148.337 276.57 146.287 276.495 143.933C276.42 140.897 279.796 139.15 282.346 140.593C282.495 140.668 282.572 140.82 282.721 140.897C283.397 141.201 283.922 141.732 284.297 142.416C286.699 145.223 287.525 149.627 287.599 153.196Z" fill="#1D1D1B"/>
<path d="M285.95 417.933C288.201 418.008 288.201 421.273 285.95 421.502C277.547 422.109 269.819 419.68 263.067 414.743C261.116 413.377 262.841 410.187 264.943 411.478C271.32 415.503 278.447 417.628 285.95 417.933Z" fill="#1D1D1B"/>
<path d="M283.924 31.4925C285.125 40.7557 275.822 49.1818 267.57 51.0806C259.843 52.8263 249.489 47.2094 251.44 38.0219C253.09 29.9736 262.619 25.4941 270.421 23.977C272.22 22.3069 274.847 22.0783 277.397 22.9133C281.223 24.1281 283.4 27.6214 283.924 31.4925ZM276.197 38.7058C278.223 36.4273 280.099 32.4051 278.073 29.3671C276.197 26.5577 273.421 27.4684 270.871 28.1523C270.195 28.3809 269.67 28.0767 269.295 27.697C266.144 29.0629 263.143 30.9616 260.668 33.3913C259.092 34.9102 256.917 37.0357 256.917 39.4653C256.992 42.73 260.444 44.931 263.295 45.1596C268.02 45.4618 273.12 42.1216 276.197 38.7058Z" fill="#1D1D1B"/>
<path d="M278.898 406.317C280.549 406.847 280.325 409.733 278.449 409.581C272.596 408.897 267.871 405.102 265.094 400.015C264.269 398.572 266.295 397.51 267.195 398.725C270.045 402.899 274.097 404.949 278.898 406.317Z" fill="#1D1D1B"/>
<path d="M278.073 29.3676C280.099 32.4037 278.222 36.4278 276.197 38.7062C273.12 42.122 268.02 45.4622 263.292 45.1599C260.442 44.9313 256.99 42.7303 256.915 39.4657C256.915 37.0361 259.09 34.9107 260.666 33.3917C263.141 30.9622 266.143 29.0635 269.293 27.6975C269.668 28.0773 270.193 28.3814 270.868 28.1528C273.421 27.4689 276.197 26.5583 278.073 29.3676Z" fill="#F49AC7"/>
<path d="M248.214 23.0689C249.188 28.3075 246.939 33.6972 243.562 37.5681C242.587 38.6317 240.711 37.1884 241.536 35.9736C244.237 31.9498 244.837 28.1545 245.361 23.4468C245.512 21.9298 247.913 21.3215 248.214 23.0689Z" fill="#1D1D1B"/>
<path d="M243.487 67.5554C246.037 69.5296 246.188 73.0209 245.137 75.9057C242.886 82.1307 236.06 86.5345 229.608 86.6101C222.105 86.6856 220.755 79.4726 224.881 74.3112C228.256 70.0605 232.834 67.7065 237.935 66.947C239.06 66.2631 240.335 66.1876 241.611 66.5673C241.685 66.5673 241.76 66.5673 241.836 66.5673C242.212 66.4917 242.436 66.7184 242.512 67.0226C242.886 67.1756 243.186 67.3287 243.487 67.5554ZM237.559 76.5896C237.634 76.5896 242.061 70.8955 238.909 71.4264C237.858 71.655 237.033 71.1997 236.658 70.5158C233.282 72.337 230.206 74.9196 228.856 78.1086C228.031 80.0828 228.18 80.387 230.28 80.1584C231.781 80.0072 233.206 79.55 234.481 78.868C235.608 78.2597 236.66 77.5021 237.559 76.5896Z" fill="#1D1D1B"/>
<path d="M238.911 71.4292C242.062 70.8983 237.636 76.5926 237.561 76.5926C236.661 77.5032 235.61 78.2627 234.484 78.8711C233.209 79.555 231.783 80.0103 230.284 80.1615C228.183 80.3882 228.034 80.0859 228.859 78.1116C230.209 74.9225 233.286 72.3417 236.661 70.5186C237.035 71.2006 237.86 71.6559 238.911 71.4292Z" fill="#F49AC7"/>
<path d="M211.827 12.7399C233.51 10.9187 228.258 31.1129 219.179 41.5132C215.729 45.3843 211.152 49.0287 206.876 51.7624C196.072 58.5958 178.742 64.8965 169.889 52.9772C160.586 40.4496 174.915 26.3293 185.944 19.8001C194.121 16.8396 202.525 14.41 211.077 12.5869C211.301 12.6644 211.602 12.7399 211.827 12.7399Z" fill="#F49AC7"/>
<path d="M210.475 368.507C211.601 373.822 210.475 378.528 207.925 383.16C206.799 385.134 203.949 383.389 204.925 381.414C206.801 377.543 207.4 373.291 207.475 368.964C207.475 367.217 210.1 366.762 210.475 368.507Z" fill="#1D1D1B"/>
<path d="M202.823 365.319C204.774 370.027 203.723 375.037 200.872 379.137C199.898 380.656 197.497 379.288 198.471 377.694C200.723 373.974 200.723 370.254 200.197 366.079C200.047 364.711 202.299 364.104 202.823 365.319Z" fill="#1D1D1B"/>
<path d="M181.892 334.95C190.296 345.199 199.148 363.572 191.421 376.402C183.769 389.081 170.489 380.957 164.862 370.936C161.112 364.332 159.837 356.359 160.361 348.768C160.662 345.048 160.662 339.505 163.287 336.469C163.287 333.204 165.312 330.624 168.764 329.333C174.163 327.435 178.59 330.926 181.892 334.95ZM180.466 372.38C185.494 373.519 187.743 371.394 187.219 366.002C187.219 365.016 187.219 363.952 187.219 362.888C186.918 358.333 185.044 353.474 183.093 349.45C182.118 347.476 180.993 345.579 179.867 343.756C179.792 343.605 169.813 328.952 168.988 338.213C168.764 340.111 167.112 341.022 165.688 340.718C165.613 346.716 167.263 359.471 167.338 359.775C168.163 362.431 169.214 365.089 170.713 367.519C173.939 372.835 174.24 372.986 180.466 372.38Z" fill="#1D1D1B"/>
<path d="M183.693 388.095C187.518 391.74 192.17 396.295 191.42 402.141C190.895 406.24 187.369 410.265 183.017 410.265C177.991 410.189 175.514 404.721 175.14 400.319C174.765 395.231 176.641 390.374 180.842 387.489C181.292 387.185 181.742 387.338 182.042 387.64C182.567 387.564 183.168 387.564 183.693 388.095ZM183.017 404.799C186.017 404.874 187.068 400.928 186.392 398.574C185.642 395.613 183.392 393.259 181.29 391.133C180.465 393.032 179.789 395.005 179.714 397.056C179.567 399.257 180.091 404.799 183.017 404.799Z" fill="#1D1D1B"/>
<path d="M187.144 436.155C191.42 438.129 191.196 445.417 189.846 449.213C188.27 453.541 183.769 457.716 178.893 456.728C173.042 455.589 173.942 449.135 175.741 444.96C177.466 441.089 180.168 437.445 184.445 436.988C184.893 436.002 186.243 435.699 187.144 436.155ZM185.718 444.505C185.944 442.684 185.194 441.165 184.667 439.57C182.266 440.634 180.991 443.29 180.166 445.795C179.415 447.92 177.69 453.463 182.042 450.958C184.217 449.668 185.492 447.01 185.718 444.505Z" fill="#1D1D1B"/>
<path d="M185.867 85.3239C201.098 89.0439 194.42 109.391 186.468 118.426C174.839 131.635 154.958 147.123 136.203 141.354C117.073 135.584 124.124 112.883 133.203 101.116C145.056 85.8567 166.589 77.2776 185.044 84.5663C185.417 84.7156 185.718 85.0197 185.867 85.3239ZM171.613 122.828C178.065 117.438 200.722 95.4201 182.042 89.877C181.142 89.5729 180.617 88.8908 180.392 88.0558C170.038 87.9046 160.361 88.8153 151.058 94.5851C145.581 98.0008 140.856 102.556 137.254 108.023C132.152 115.843 130.877 119.336 134.854 127.536C135.378 133.154 138.154 135.659 143.182 134.9C146.709 134.9 150.084 134.445 153.385 133.381C160.135 131.331 166.212 127.307 171.613 122.828Z" fill="#1D1D1B"/>
<path d="M187.219 366.002C187.744 371.392 185.494 373.518 180.467 372.38C174.24 372.989 173.94 372.836 170.714 367.521C169.213 365.092 168.164 362.433 167.338 359.777C167.264 359.473 165.613 346.718 165.688 340.72C167.112 341.024 168.765 340.112 168.989 338.215C169.814 328.952 179.793 343.605 179.867 343.758C180.993 345.579 182.117 347.478 183.093 349.452C185.044 353.476 186.919 358.335 187.219 362.891C187.219 363.952 187.219 365.016 187.219 366.002Z" fill="#F49AC7"/>
<path d="M186.394 398.573C187.07 400.927 186.019 404.873 183.019 404.798C180.093 404.798 179.569 399.255 179.718 397.054C179.793 395.004 180.469 393.03 181.294 391.131C183.392 393.258 185.644 395.612 186.394 398.573Z" fill="#F49AC7"/>
<path d="M183.767 461.056C184.667 459.917 186.544 461.36 185.793 462.575C183.092 466.674 180.166 470.47 177.241 474.267C176.341 475.482 174.39 473.888 175.215 472.748C177.991 468.722 180.693 464.776 183.767 461.056Z" fill="#1D1D1B"/>
<path d="M184.667 439.57C185.192 441.164 185.942 442.683 185.718 444.505C185.494 447.01 184.217 449.668 182.042 450.959C177.691 453.464 179.416 447.923 180.166 445.795C180.991 443.29 182.266 440.634 184.667 439.57Z" fill="#F49AC7"/>
<path d="M182.042 89.8782C200.723 95.4212 178.066 117.436 171.614 122.828C166.213 127.308 160.136 131.332 153.383 133.382C150.082 134.445 146.707 134.901 143.18 134.901C138.155 135.66 135.378 133.155 134.852 127.536C130.875 119.337 132.151 115.844 137.253 108.024C140.854 102.559 145.581 98.0019 151.057 94.5862C160.36 88.8164 170.038 87.9058 180.39 88.057C180.616 88.8901 181.142 89.574 182.042 89.8782Z" fill="#F49AC7"/>
<path d="M181.366 254.171C182.417 255.614 180.166 257.284 178.965 256.069C174.238 251.059 172.963 244.15 174.688 237.545C175.213 235.647 177.989 236.482 177.614 238.38C176.415 244.073 178.065 249.463 181.366 254.171Z" fill="#1D1D1B"/>
<path d="M157.584 62.3158C158.784 63.6817 156.908 65.5805 155.558 64.3656C152.857 61.936 151.582 58.9755 152.558 55.4066C152.859 54.343 154.658 54.1918 154.884 55.4066C155.259 57.9137 155.933 60.4189 157.584 62.3158Z" fill="#1D1D1B"/>
<path d="M154.283 152.74C155.334 151.296 157.659 152.511 156.684 154.106C153.083 160.104 144.906 162.305 139.053 158.281C137.927 157.446 138.903 155.851 140.178 156.382C145.206 158.585 150.982 157.219 154.283 152.74Z" fill="#1D1D1B"/>
<path d="M150.982 68.3908C151.733 69.6056 150.082 70.7448 149.183 69.8342C145.731 66.645 144.906 61.7858 145.731 57.2306C145.955 55.7116 148.206 56.3956 147.98 57.9146C147.381 61.9388 148.807 65.126 150.982 68.3908Z" fill="#1D1D1B"/>
<path d="M146.705 146.438C148.055 145.907 148.88 148.033 147.68 148.717C143.253 150.996 138.827 150.996 134.326 149.022C133.05 148.491 133.95 146.44 135.225 146.82C139.129 148.184 142.954 147.958 146.705 146.438Z" fill="#1D1D1B"/>
<path d="M121.948 230.71C122.547 231.85 120.973 233.215 120.148 232.154C116.472 227.37 114.822 221.221 114.896 215.225C114.971 213.63 117.148 213.706 117.297 215.225C117.747 220.917 119.547 225.549 121.948 230.71Z" fill="#1D1D1B"/>
<path d="M117.521 157.447C117.596 162.913 112.869 170.657 107.769 172.631C102.142 174.756 98.6151 169.215 98.6917 164.128C98.841 157.903 102.517 151.525 107.545 148.033C107.92 147.729 108.37 147.805 108.82 148.033C113.321 147.047 117.521 153.272 117.521 157.447ZM111.221 161.016C113.172 156.916 111.521 154.183 107.92 152.513C106.719 154.336 105.594 156.233 104.92 158.282C104.319 159.877 102.369 166.177 104.845 167.392C107.018 168.38 110.619 162.382 111.221 161.016Z" fill="#1D1D1B"/>
<path d="M114.447 231.623C115.197 232.989 113.246 234.053 112.421 232.838C108.519 226.993 106.944 220.31 107.47 213.25C107.545 211.96 109.57 211.884 109.496 213.25C109.419 219.855 111.144 226.005 114.447 231.623Z" fill="#1D1D1B"/>
<path d="M109.645 95.5715C110.696 94.2056 112.645 95.9512 111.894 97.3172C109.719 101.417 107.992 105.669 107.167 110.224C106.867 111.894 104.167 111.515 104.242 109.845C104.542 104.377 106.118 99.7467 109.645 95.5715Z" fill="#1D1D1B"/>
<path d="M107.918 152.511C111.519 154.181 113.17 156.915 111.219 161.015C110.618 162.381 107.018 168.379 104.841 167.393C102.366 166.178 104.317 159.878 104.916 158.283C105.594 156.231 106.718 154.334 107.918 152.511Z" fill="#F49AC7"/>
<path d="M107.393 326.75C107.617 325.156 110.244 325.611 110.169 327.206C110.02 332.596 106.418 336.849 101.542 338.746C100.416 339.201 99.6657 337.304 100.717 336.771C104.691 334.723 106.642 331.154 107.393 326.75Z" fill="#1D1D1B"/>
<path d="M102.592 406.013C103.417 404.343 106.268 405.558 105.592 407.303C103.191 413.606 97.4899 417.249 90.8885 416.947C88.9376 416.871 88.9376 414.062 90.8885 413.986C95.9908 413.682 100.191 410.568 102.592 406.013Z" fill="#1D1D1B"/>
<path d="M102.292 319.616C102.442 325.006 99.8916 329.41 95.4651 332.294C93.8147 333.358 92.5396 330.928 93.9641 329.865C97.2648 327.36 99.2157 323.64 99.6657 319.616C99.8916 317.946 102.216 317.868 102.292 319.616Z" fill="#1D1D1B"/>
<path d="M99.1413 398.649C99.8171 397.585 101.768 397.965 101.617 399.333C101.167 402.827 98.4655 405.559 94.9408 406.243C93.6657 406.472 92.7658 404.648 94.0409 403.964C96.4399 402.598 97.715 401.003 99.1413 398.649Z" fill="#1D1D1B"/>
<path d="M83.6853 303.368C99.4402 305.949 83.6106 323.866 78.5083 328.497C73.6319 332.901 64.5549 340.112 57.5016 339.581C54.8002 339.355 53.4504 338.215 53.0005 336.545C58.7768 321.588 68.7555 309.897 82.1842 302.304C82.4848 302.837 82.9366 303.217 83.6853 303.368Z" fill="#F49AC7"/>
<path d="M67.4059 358.866C68.0817 364.485 65.2309 373.595 60.3545 376.859C54.8769 380.504 48.1261 376.784 48.576 370.103C49.1006 363.27 54.6529 356.134 59.9792 352.337C60.655 351.881 61.4802 352.337 61.7808 353.02C64.4057 353.476 67.0306 355.981 67.4059 358.866ZM60.5785 366.761C60.7279 366.306 63.2053 356.739 60.2033 358.486C59.6021 358.866 58.9281 358.79 58.4017 358.486C55.7749 362.055 53.2247 366.155 53.5253 369.875C53.7493 374.203 57.2759 372.76 58.9263 370.483C59.6786 369.419 60.1286 367.976 60.5785 366.761Z" fill="#1D1D1B"/>
<path d="M60.2027 358.487C63.2029 356.742 60.7273 366.307 60.578 366.762C60.1281 367.977 59.6781 369.418 58.9276 370.482C57.2773 372.76 53.7507 374.201 53.5266 369.873C53.2261 366.154 55.7763 362.054 58.403 358.486C58.9276 358.792 59.6035 358.867 60.2027 358.487Z" fill="#F49AC7"/>
<path d="M60.0534 397.813C65.6803 398.042 58.5524 410.188 57.352 412.011C54.8764 415.655 46.5481 421.654 47.5245 412.922C48.275 406.088 52.6268 400.243 58.0278 396.294C58.3284 397.054 58.9277 397.738 60.0534 397.813Z" fill="#F49AC7"/>
<path d="M29.0688 452.552C30.2693 451.413 31.6937 453.083 30.7939 454.298C28.4677 457.259 25.8428 459.993 23.2907 462.803C22.2396 464.017 20.5892 462.272 21.5656 461.057C24.0431 458.172 26.3693 455.209 29.0688 452.552Z" fill="#1D1D1B"/>
</svg>
