<svg width="657" height="677" viewBox="0 0 657 677" fill="none" xmlns="http://www.w3.org/2000/svg">
<g id="octoreac">
<rect id="Rectangle 22" y="431.076" width="515.263" height="447.542" rx="10" transform="rotate(-56.7842 0 431.076)" fill="#5918DF"/>
<g id="octopus">
<path id="Vector" d="M598.958 436.377C607.287 464.619 563.546 476.159 543.516 478.742C509.68 483.145 475.92 472.137 448.611 452.245C449.061 454.446 449.662 456.573 450.037 458.774C452.588 473.198 452.063 488.382 455.965 502.58C460.991 520.953 470.445 528.469 479.897 543.35C485.825 552.689 488.599 558.763 488.375 570.074C488.375 572.275 485.825 573.414 484.098 572.655C482.748 576.45 479.82 577.818 474.494 576.526C460.839 572.957 450.937 546.309 440.133 538.11C424.304 526.039 402.321 525.582 386.116 513.283C374.337 504.248 366.31 492.253 361.133 478.587C356.105 489.975 349.354 500.984 340.951 511.233C327.448 527.707 323.546 546.991 311.616 563.012C308.539 567.187 305.915 573.337 299.763 574.096C294.511 574.703 291.886 573.488 290.234 570.907C283.857 566.428 282.206 561.189 282.057 552.154C281.831 545.019 285.283 538.412 287.383 531.883C295.712 506.676 300.437 489.291 292.335 462.643C287.458 446.7 278.906 430.225 274.78 414.053C265.102 429.846 265.328 450.344 254.223 465.908C243.345 481.245 226.839 491.417 211.235 500.984C198.557 508.728 184.828 515.561 173.723 525.658C165.546 533.097 161.045 543.12 153.616 550.711C149.791 554.659 147.314 557.24 143.938 558.075C144.463 560.276 142.288 562.783 139.738 561.34C127.808 554.811 126.234 548.206 129.46 534.843C132.912 519.963 146.642 506.829 153.768 493.542C165.322 471.829 166.446 450.875 167.271 426.732C167.721 412.003 170.798 398.11 176.199 386.037C177.548 382.546 179.35 379.281 181 377.079C192.63 358.022 211.76 345.496 238.619 345.343C216.788 275.045 191.28 187.584 238.769 121.76C275.306 71.1961 347.179 51.306 406.447 59.9607C466.466 68.7684 510.955 116.066 520.557 176.271C531.96 247.713 490.247 303.21 440.432 347.396C459.788 343.676 478.618 349.826 495.275 362.429C514.107 376.627 564.146 461.961 591.681 434.251C592.956 433.037 594.681 433.341 595.807 434.251C597.157 434.1 598.508 434.707 598.958 436.377ZM515.006 471.226C528.361 472.669 595.131 469.556 593.555 441.618C581.628 454.525 564.971 451.183 551.318 439.492C512.906 406.77 495.501 341.402 433.53 353.474C429.779 356.663 425.952 359.852 422.127 362.964C418.302 366.077 412.749 360.839 416.575 357.345C463.69 314.525 513.955 270.037 513.955 200.265C513.955 123.432 456.562 68.0864 382.139 66.5674C373.212 66.3388 364.133 66.9472 354.981 68.0108C362.109 73.3253 365.335 83.1192 360.983 93.0643C352.506 112.044 327.224 126.772 306.891 124.723C287.234 122.824 281.833 108.02 291.136 90.7859C292.036 89.1913 293.087 87.8254 294.061 86.382C268.554 99.5161 246.796 119.18 234.042 145.828C203.432 209.677 229.165 281.044 243.869 345.348C243.944 345.879 243.869 346.335 243.72 346.714C244.545 348.384 243.72 350.739 241.394 350.965C232.391 351.8 224.289 353.926 216.935 357.039C226.988 360.379 225.187 375.261 219.485 383.003C211.833 393.404 196.304 406.691 182.423 404.945C180.698 404.717 179.272 404.261 178.071 403.579C176.721 408.894 175.745 414.512 175.295 420.433C174.321 433.341 175.896 446.475 174.02 459.38C173.945 460.064 173.719 460.899 173.495 461.659C176.871 455.965 181.973 451.714 188.351 449.891C189.176 449.662 189.7 450.27 189.777 450.954C192.478 451.334 194.728 453.155 195.628 455.965C196.903 460.14 194.803 464.544 193.078 468.264C190.076 474.489 184.299 482.841 176.348 481.551C170.87 480.64 169.67 475.857 170.122 471.149C159.994 495.065 134.111 536.668 139.663 552.005C142.889 550.639 156.392 533.936 156.392 534.087C161.045 527.862 166.446 522.774 172.448 517.915C184.527 507.893 198.331 500.606 211.536 492.407C237.944 476.008 251.374 460.975 260.526 431.442C263.827 420.813 266.003 413.145 272.98 405.098C271.104 391.28 273.581 377.766 285.884 365.163C287.159 363.873 289.486 365.618 288.434 367.137C279.656 379.741 277.556 391.735 278.906 403.579C279.806 404.565 280.181 405.933 279.507 407.299C284.083 433.112 303.889 458.014 306.066 485.042C307.716 505.769 281.308 548.132 293.462 565.746C303.441 568.1 317.096 530.898 319.495 526.874C325.047 517.611 333.075 511.006 339.676 502.731C367.585 467.504 371.487 424.533 354.981 383.459C353.631 380.118 359.256 377.764 360.683 381.029C373.962 411.321 374.561 441.994 364.433 470.236C364.883 470.616 365.333 471.071 365.559 471.755C378.088 504.706 400.444 512.752 430.155 525.508C439.833 529.684 448.085 534.618 455.138 542.591C457.163 544.867 476.669 576.452 482.147 568.1C477.196 543.426 452.888 525.28 447.485 499.164C438.257 454.674 437.882 421.801 399.246 391.66C397.146 389.99 398.945 386.65 401.346 388.015C425.353 401.15 440.208 421.497 447.336 446.93C469.093 458.698 490.174 468.721 515.006 471.226ZM347.179 99.5161C356.258 89.1158 361.51 68.9196 339.827 70.7427C339.603 70.7427 339.303 70.6671 339.077 70.5916C330.524 72.4128 322.121 74.8424 313.944 77.8048C302.916 84.334 288.586 98.4563 297.889 110.982C306.742 122.901 324.072 116.601 334.876 109.767C339.151 107.032 343.727 103.387 347.179 99.5161ZM206.51 386.497C211.612 381.866 227.442 363.948 211.687 361.367C210.937 361.216 210.487 360.837 210.186 360.304C196.757 367.895 186.779 379.588 181.002 394.545C181.452 396.215 182.802 397.354 185.503 397.581C192.555 398.114 201.634 390.9 206.51 386.497ZM185.352 470.011C186.553 468.188 193.681 456.042 188.054 455.813C186.928 455.738 186.329 455.054 186.028 454.294C180.627 458.243 176.275 464.088 175.525 470.922C174.55 479.652 182.877 473.656 185.352 470.011Z" fill="#1D1D1B"/>
<path id="Vector_2" d="M593.558 441.616C595.133 469.554 528.363 472.668 515.009 471.224C490.177 468.719 469.093 458.697 447.338 446.93C440.21 421.497 425.357 401.15 401.348 388.016C398.947 386.65 397.148 389.99 399.248 391.66C437.886 421.801 438.261 454.674 447.487 499.165C452.888 525.282 477.196 543.426 482.149 568.1C476.671 576.452 457.166 544.868 455.14 542.591C448.089 534.618 439.835 529.684 430.157 525.509C400.448 512.754 378.09 504.706 365.561 471.755C365.337 471.071 364.885 470.616 364.435 470.236C374.563 441.994 373.964 411.322 360.685 381.029C359.258 377.765 353.633 380.119 354.983 383.459C371.489 424.531 367.587 467.504 339.678 502.732C333.077 511.007 325.049 517.611 319.497 526.874C317.096 530.899 303.441 568.1 293.464 565.746C281.311 548.132 307.718 505.768 306.068 485.042C303.893 458.015 284.087 433.112 279.509 407.299C280.185 405.934 279.81 404.566 278.908 403.579C277.558 391.736 279.658 379.741 288.437 367.138C289.488 365.619 287.161 363.873 285.886 365.163C273.583 377.767 271.106 391.28 272.982 405.098C266.005 413.147 263.829 420.813 260.528 431.442C251.374 460.975 237.946 476.008 211.538 492.407C198.333 500.606 184.529 507.895 172.45 517.916C166.448 522.775 161.047 527.861 156.395 534.088C156.395 533.936 142.891 550.638 139.665 552.005C134.113 536.668 159.996 495.065 170.124 471.149C169.674 475.857 170.874 480.639 176.35 481.551C184.303 482.841 190.08 474.491 193.08 468.264C194.805 464.544 196.905 460.14 195.63 455.965C194.73 453.156 192.479 451.334 189.779 450.955C189.704 450.271 189.18 449.664 188.353 449.891C181.975 451.712 176.875 455.965 173.497 461.659C173.723 460.9 173.947 460.065 174.022 459.381C175.898 446.473 174.323 433.339 175.297 420.434C175.747 414.511 176.724 408.894 178.073 403.579C179.274 404.263 180.7 404.719 182.425 404.945C196.304 406.691 211.835 393.406 219.487 383.004C225.189 375.259 226.99 360.38 216.937 357.039C224.289 353.926 232.392 351.801 241.396 350.966C243.722 350.739 244.547 348.385 243.722 346.715C243.871 346.335 243.948 345.88 243.871 345.349C229.167 281.044 203.434 209.677 234.044 145.828C246.799 119.18 268.554 99.5164 294.064 86.3823C293.089 87.8257 292.038 89.1916 291.138 90.7862C281.835 108.02 287.236 122.824 306.893 124.723C327.224 126.773 352.508 112.044 360.985 93.0646C365.337 83.1196 362.111 73.3256 354.983 68.0112C364.137 66.9475 373.214 66.3411 382.141 66.5678C456.564 68.0867 513.957 123.433 513.957 200.265C513.957 270.037 463.692 314.525 416.577 357.346C412.751 360.839 418.302 366.076 422.129 362.964C425.954 359.851 429.782 356.664 433.532 353.474C495.501 341.404 512.906 406.77 551.32 439.492C564.973 451.183 581.628 454.523 593.558 441.616ZM521.384 418.233C525.209 412.614 520.634 405.934 515.683 402.973C510.431 399.86 501.503 398.722 496.776 403.353C495.501 404.568 496.1 406.087 497.301 406.769C496.326 417.093 514.631 428.178 521.384 418.233ZM507.655 185.23C507.804 186.521 509.68 185.914 509.531 184.699C508.78 179.234 507.881 173.919 506.904 168.527C506.68 167.692 505.254 167.921 505.403 168.756C506.004 174.299 506.68 179.765 507.655 185.23ZM504.429 191.988C505.704 184.395 503.904 177.259 499.702 170.806C498.727 169.211 496.252 170.655 497.226 172.325C500.602 178.17 501.802 184.775 501.503 191.533C501.429 193.203 504.128 193.658 504.429 191.988ZM494.375 405.174C506.529 397.354 500.977 379.816 491.825 372.301C485.149 366.835 476.52 365.012 468.117 365.241C464.667 365.392 460.69 365.469 457.763 367.062C448.16 370.098 451.386 386.725 456.488 393.406C463.916 403.124 482.746 412.691 494.375 405.174ZM485.674 443.894C487.624 444.503 488.599 441.769 487.023 440.705C483.198 438.276 478.996 436.606 474.87 434.86C472.695 433.949 470.744 437.061 472.993 438.125C477.119 440.25 481.247 442.527 485.674 443.894ZM476.744 446.4C478.245 446.551 478.546 444.046 477.119 443.743C471.042 442.377 465.716 440.479 460.689 436.53C459.863 435.846 458.738 436.91 459.488 437.745C464.215 442.3 470.217 445.64 476.744 446.4ZM471.268 272.54C471.718 271.477 469.993 270.795 469.469 271.781C467.142 276.032 464.742 280.209 461.816 284.005C461.14 284.915 462.641 286.13 463.392 285.295C466.616 281.346 469.392 277.247 471.268 272.54ZM467.667 287.724C468.793 286.51 467.292 284.309 465.867 285.37C459.716 289.925 454.164 295.391 448.611 300.63C447.336 301.845 449.212 303.59 450.488 302.604C456.339 297.823 462.415 293.19 467.667 287.724ZM457.238 227.366C461.14 222.052 462.791 215.143 461.29 208.689C460.989 207.399 459.863 206.335 458.665 205.804C458.515 205.578 458.439 205.273 458.289 205.045C456.863 202.464 452.138 203.45 452.513 206.639C452.663 208.081 452.814 209.449 452.814 210.815C452.814 210.89 452.814 210.89 452.814 210.966C452.888 215.141 452.138 219.09 449.662 222.885C446.511 227.746 454.012 231.846 457.238 227.366ZM455.889 532.95C456.788 534.392 458.889 533.101 458.14 531.66C456.714 528.851 454.839 526.876 452.213 525.282C450.788 524.447 449.588 526.572 450.938 527.483C453.038 528.926 454.614 530.747 455.889 532.95ZM442.383 272.616C444.784 271.326 443.059 267.832 440.658 268.441C422.428 272.54 405.997 272.161 390.692 259.711C389.491 258.724 387.841 260.317 388.967 261.456C402.172 275.046 424.829 282.03 442.383 272.616ZM438.558 490.965C442.159 485.726 439.383 477.3 435.108 473.276C432.558 470.922 427.381 470.391 424.905 472.821C424.381 472.67 423.705 472.821 423.329 473.352C420.029 478.515 419.803 486.714 424.304 491.194C428.129 494.989 435.257 495.824 438.558 490.965ZM429.854 92.9097C430.078 91.011 427.304 90.8599 426.778 92.53C425.202 96.9338 423.701 100.729 420.326 104.07C419.05 105.435 421.001 107.334 422.351 106.119C426.253 102.704 429.33 98.1486 429.854 92.9097ZM428.505 459.458C432.406 447.008 426.705 430.456 416.651 422.485C410.5 417.551 398.57 418.386 398.57 427.42C395.57 438.58 398.195 450.879 405.472 459.915C411.924 467.962 424.603 472.061 428.505 459.458ZM421.603 92.8341C421.828 91.5438 419.726 91.0129 419.202 92.1502C417.176 96.7052 415.3 100.35 410.799 102.855C409.973 103.31 410.573 104.905 411.549 104.525C416.5 102.477 420.927 98.3772 421.603 92.8341ZM411.249 224.786C414.174 220.915 415.675 215.98 415.6 211.196C415.526 207.627 414.701 203.225 412.3 200.416C411.924 199.732 411.4 199.201 410.724 198.897C410.575 198.822 410.5 198.669 410.349 198.593C407.798 197.15 404.421 198.897 404.498 201.933C404.572 204.287 405.549 206.337 406.223 208.538C406.073 212.487 405.472 216.433 403.673 220.306C401.272 225.545 407.873 229.265 411.249 224.786ZM413.95 479.501C416.202 479.273 416.202 476.008 413.95 475.932C406.447 475.628 399.321 473.503 392.943 469.479C390.843 468.188 389.118 471.377 391.067 472.743C397.82 477.678 405.547 480.108 413.95 479.501ZM395.57 109.082C403.822 107.183 413.125 98.757 411.924 89.4939C411.4 85.6209 409.223 82.1296 405.398 80.9148C402.847 80.0798 400.221 80.3084 398.421 81.9785C390.619 83.4974 381.09 87.9769 379.44 96.0232C377.489 105.211 387.841 110.827 395.57 109.082ZM406.447 467.582C408.323 467.733 408.547 464.848 406.897 464.317C402.095 462.951 398.044 460.902 395.193 456.726C394.293 455.511 392.268 456.575 393.093 458.017C395.869 463.103 400.596 466.898 406.447 467.582ZM371.561 95.5679C374.937 91.6949 377.188 86.3049 376.214 81.0678C375.913 79.3222 373.512 79.9286 373.363 81.4476C372.838 86.1537 372.237 89.9511 369.538 93.9753C368.711 95.1882 370.587 96.6316 371.561 95.5679ZM373.137 133.909C374.188 131.024 374.037 127.53 371.487 125.558C371.186 125.329 370.886 125.178 370.512 125.027C370.438 124.723 370.212 124.496 369.836 124.572C369.762 124.572 369.687 124.572 369.611 124.572C368.335 124.192 367.06 124.268 365.935 124.952C360.832 125.711 356.256 128.065 352.881 132.316C348.755 137.479 350.105 144.691 357.608 144.615C364.06 144.537 370.886 140.134 373.137 133.909ZM335.926 441.161C338.476 436.53 339.602 431.822 338.476 426.508C338.101 424.762 335.476 425.217 335.476 426.963C335.401 431.291 334.8 435.542 332.925 439.413C331.949 441.389 334.8 443.135 335.926 441.161ZM328.872 437.137C331.723 433.037 332.774 428.027 330.823 423.318C330.299 422.104 328.047 422.71 328.197 424.078C328.721 428.253 328.721 431.973 326.471 435.693C325.497 437.29 327.898 438.655 328.872 437.137ZM319.42 434.405C327.147 421.575 318.294 403.202 309.891 392.952C306.591 388.928 302.164 385.437 296.761 387.334C293.309 388.624 291.284 391.205 291.284 394.469C288.659 397.506 288.659 403.049 288.358 406.769C287.834 414.362 289.109 422.332 292.859 428.937C298.488 438.96 311.768 447.083 319.42 434.405ZM319.42 460.142C320.171 454.297 315.518 449.742 311.693 446.097C311.168 445.566 310.567 445.566 310.043 445.642C309.742 445.338 309.292 445.187 308.842 445.491C304.642 448.376 302.765 453.235 303.141 458.321C303.516 462.725 305.991 468.19 311.017 468.266C315.369 468.264 318.895 464.242 319.42 460.142ZM317.844 507.213C319.194 503.417 319.42 496.129 315.143 494.154C314.243 493.699 312.891 494.003 312.442 494.989C308.164 495.445 305.465 499.089 303.738 502.962C301.938 507.137 301.036 513.591 306.889 514.73C311.768 515.715 316.269 511.539 317.844 507.213ZM314.469 176.424C322.422 167.39 329.098 147.043 313.868 143.323C313.719 143.019 313.418 142.716 313.043 142.563C294.586 135.274 273.055 143.854 261.202 159.113C252.123 170.881 245.072 193.581 264.202 199.351C282.959 205.122 302.84 189.634 314.469 176.424ZM313.793 520.574C314.544 519.359 312.667 517.917 311.768 519.055C308.691 522.775 305.991 526.723 303.215 530.747C302.39 531.887 304.341 533.481 305.241 532.266C308.166 528.471 311.092 524.673 313.793 520.574ZM306.966 314.068C308.166 315.283 310.418 313.613 309.367 312.17C306.066 307.462 304.416 302.071 305.616 296.377C305.991 294.479 303.215 293.643 302.691 295.542C300.964 302.149 302.241 309.058 306.966 314.068ZM283.558 122.369C284.908 123.584 286.784 121.685 285.584 120.319C283.934 118.42 283.258 115.915 282.883 113.41C282.657 112.195 280.857 112.346 280.556 113.41C279.584 116.977 280.859 119.939 283.558 122.369ZM284.684 212.107C285.659 210.512 283.334 209.298 282.283 210.741C278.982 215.22 273.206 216.586 268.179 214.385C266.903 213.854 265.929 215.449 267.053 216.284C272.906 220.306 281.083 218.105 284.684 212.107ZM277.183 127.835C278.083 128.745 279.733 127.608 278.982 126.391C276.808 123.127 275.381 119.937 275.982 115.913C276.208 114.394 273.957 113.712 273.733 115.229C272.906 119.786 273.731 124.645 277.183 127.835ZM275.682 206.717C276.882 206.033 276.057 203.907 274.707 204.438C270.957 205.957 267.129 206.184 263.229 204.818C261.954 204.438 261.054 206.488 262.33 207.019C266.829 208.993 271.255 208.993 275.682 206.717ZM248.148 290.154C248.974 291.218 250.549 289.85 249.948 288.711C247.547 283.547 245.747 278.917 245.296 273.222C245.146 271.704 242.97 271.628 242.895 273.222C242.822 279.221 244.472 285.37 248.148 290.154ZM235.769 230.631C240.871 228.657 245.596 220.913 245.522 215.447C245.522 211.272 241.321 205.047 236.818 206.033C236.368 205.804 235.918 205.729 235.543 206.033C230.515 209.526 226.839 215.902 226.69 222.127C226.615 227.215 230.142 232.756 235.769 230.631ZM240.421 290.838C241.246 292.053 243.197 290.989 242.447 289.623C239.146 284.005 237.421 277.855 237.496 271.25C237.57 269.884 235.545 269.96 235.47 271.25C234.944 278.31 236.519 284.991 240.421 290.838ZM239.895 155.318C240.645 153.952 238.694 152.204 237.645 153.572C234.118 157.747 232.543 162.378 232.244 167.845C232.169 169.515 234.871 169.895 235.169 168.225C235.995 163.67 237.72 159.417 239.895 155.318ZM238.17 385.206C238.244 383.612 235.619 383.157 235.394 384.751C234.643 389.155 232.692 392.722 228.717 394.774C227.666 395.305 228.417 397.203 229.543 396.748C234.419 394.849 238.02 390.596 238.17 385.206ZM233.594 465.303C234.27 463.558 231.419 462.343 230.594 464.013C228.193 468.568 223.992 471.682 218.89 471.984C216.939 472.059 216.939 474.869 218.89 474.944C225.491 475.25 231.193 471.606 233.594 465.303ZM223.466 390.294C227.892 387.409 230.442 383.005 230.293 377.615C230.218 375.87 227.892 375.945 227.666 377.615C227.216 381.64 225.265 385.359 221.965 387.865C220.538 388.926 221.815 391.356 223.466 390.294ZM229.617 457.333C229.767 455.967 227.816 455.587 227.142 456.649C225.715 459.003 224.44 460.597 222.039 461.963C220.764 462.647 221.664 464.468 222.939 464.242C226.466 463.558 229.167 460.824 229.617 457.333ZM188.354 434.86C193.231 431.595 196.082 422.485 195.406 416.867C195.031 413.982 192.406 411.477 189.779 411.021C189.478 410.337 188.653 409.882 187.977 410.337C182.651 414.133 177.099 421.271 176.574 428.104C176.124 434.784 182.877 438.504 188.354 434.86ZM158.795 512.299C159.695 511.084 158.271 509.414 157.07 510.553C154.369 513.211 152.045 516.172 149.567 519.057C148.593 520.271 150.243 522.017 151.292 520.802C153.842 517.993 156.469 515.259 158.795 512.299Z" fill="#FACCE3"/>
<path id="Vector_3" d="M515.682 402.973C520.633 405.934 525.211 412.616 521.384 418.232C514.631 428.177 496.326 417.093 497.301 406.769C496.1 406.085 495.499 404.568 496.776 403.353C501.503 398.721 510.431 399.86 515.682 402.973ZM507.804 414.284C510.354 415.803 517.557 418.308 516.657 412.614C516.058 408.97 511.555 406.769 508.405 406.16C505.929 405.629 503.904 406.085 501.727 406.616C502.177 409.958 505.028 412.538 507.804 414.284Z" fill="#1D1D1B"/>
<path id="Vector_4" d="M516.657 412.615C517.557 418.309 510.354 415.804 507.804 414.285C505.028 412.539 502.177 409.956 501.727 406.616C503.902 406.085 505.928 405.63 508.405 406.161C511.556 406.769 516.058 408.97 516.657 412.615Z" fill="#F49AC7"/>
<path id="Vector_5" d="M509.531 184.7C509.68 185.915 507.806 186.523 507.655 185.231C506.68 179.765 506.004 174.298 505.403 168.757C505.254 167.922 506.678 167.693 506.904 168.528C507.88 173.92 508.78 179.234 509.531 184.7Z" fill="#1D1D1B"/>
<path id="Vector_6" d="M499.702 170.806C503.902 177.26 505.704 184.395 504.429 191.988C504.128 193.658 501.428 193.203 501.503 191.533C501.804 184.777 500.603 178.17 497.226 172.325C496.251 170.655 498.727 169.212 499.702 170.806Z" fill="#1D1D1B"/>
<path id="Vector_7" d="M491.825 372.301C500.978 379.816 506.529 397.354 494.375 405.173C482.746 412.689 463.916 403.124 456.487 393.405C451.385 386.725 448.159 370.098 457.763 367.062C460.688 365.468 464.665 365.392 468.116 365.241C476.52 365.012 485.147 366.834 491.825 372.301ZM485.897 400.314C501.277 397.581 492.123 380.043 484.021 375.566C478.543 372.53 463.613 368.885 458.438 373.742C457.837 374.273 457.163 374.351 456.413 374.351C455.438 380.804 462.49 390.978 466.391 393.787C471.119 397.125 479.746 401.454 485.897 400.314Z" fill="#1D1D1B"/>
<path id="Vector_8" d="M484.021 375.566C492.123 380.045 501.277 397.583 485.897 400.315C479.746 401.454 471.117 397.126 466.391 393.786C462.49 390.976 455.438 380.803 456.413 374.349C457.163 374.349 457.837 374.274 458.438 373.741C463.615 368.884 478.545 372.528 484.021 375.566Z" fill="#F49AC7"/>
<path id="Vector_9" d="M487.023 440.705C488.598 441.769 487.624 444.501 485.673 443.894C481.246 442.528 477.121 440.25 472.995 438.124C470.743 437.061 472.694 433.949 474.871 434.86C478.995 436.605 483.196 438.275 487.023 440.705Z" fill="#1D1D1B"/>
<path id="Vector_10" d="M477.119 443.741C478.545 444.045 478.245 446.55 476.744 446.397C470.217 445.637 464.215 442.298 459.488 437.743C458.737 436.908 459.863 435.845 460.688 436.529C465.716 440.477 471.042 442.375 477.119 443.741Z" fill="#1D1D1B"/>
<path id="Vector_11" d="M469.467 271.78C469.991 270.794 471.718 271.476 471.266 272.54C469.39 277.248 466.614 281.347 463.39 285.294C462.639 286.129 461.138 284.914 461.814 284.003C464.741 280.208 467.142 276.031 469.467 271.78Z" fill="#1D1D1B"/>
<path id="Vector_12" d="M465.867 285.371C467.291 284.307 468.792 286.51 467.666 287.725C462.415 293.19 456.338 297.823 450.487 302.605C449.212 303.591 447.335 301.845 448.611 300.63C454.163 295.393 459.713 289.926 465.867 285.371Z" fill="#1D1D1B"/>
<path id="Vector_13" d="M461.289 208.691C462.79 215.144 461.14 222.053 457.238 227.368C454.012 231.847 446.509 227.748 449.66 222.888C452.136 219.093 452.886 215.144 452.812 210.969C452.812 210.893 452.812 210.893 452.812 210.818C452.812 209.452 452.662 208.084 452.511 206.643C452.136 203.453 456.863 202.467 458.287 205.048C458.437 205.275 458.513 205.579 458.663 205.807C459.865 206.336 460.989 207.398 461.289 208.691Z" fill="#1D1D1B"/>
<path id="Vector_14" d="M458.138 531.658C458.888 533.101 456.788 534.392 455.886 532.948C454.611 530.747 453.035 528.924 450.935 527.482C449.585 526.572 450.786 524.446 452.21 525.281C454.837 526.876 456.713 528.85 458.138 531.658Z" fill="#1D1D1B"/>
<path id="Vector_15" d="M440.658 268.441C443.059 267.832 444.784 271.326 442.383 272.616C424.828 282.031 402.169 275.046 388.966 261.456C387.841 260.317 389.491 258.722 390.691 259.71C405.996 272.161 422.427 272.541 440.658 268.441Z" fill="#1D1D1B"/>
<path id="Vector_16" d="M435.106 473.275C439.381 477.299 442.157 485.725 438.556 490.964C435.255 495.823 428.127 494.988 424.302 491.193C419.801 486.713 420.025 478.514 423.327 473.351C423.703 472.82 424.378 472.667 424.903 472.82C427.379 470.39 432.556 470.921 435.106 473.275ZM432.031 488.686C438.709 487.851 432.406 470.542 426.63 477.526C426.329 477.83 426.029 477.981 425.73 478.057C425.504 483.145 425.879 489.521 432.031 488.686Z" fill="#1D1D1B"/>
<path id="Vector_17" d="M426.628 477.526C432.404 470.542 438.707 487.851 432.029 488.686C425.877 489.521 425.502 483.143 425.726 478.057C426.028 477.981 426.329 477.83 426.628 477.526Z" fill="#F49AC7"/>
<path id="Vector_18" d="M426.779 92.5319C427.304 90.8617 430.08 91.0128 429.856 92.9116C429.331 98.1508 426.255 102.706 422.353 106.122C421.003 107.337 419.052 105.438 420.327 104.072C423.702 100.732 425.203 96.9341 426.779 92.5319Z" fill="#1D1D1B"/>
<path id="Vector_19" d="M416.651 422.483C426.705 430.454 432.406 447.006 428.504 459.456C424.603 472.06 411.924 467.96 405.472 459.912C398.195 450.877 395.568 438.578 398.57 427.416C398.57 418.384 410.5 417.548 416.651 422.483ZM412.975 458.927C425.88 466.596 423.253 446.022 421.152 440.403C420.027 437.367 418.526 434.405 416.651 431.824C415.001 429.47 404.873 418.234 403.223 429.545C403.073 430.229 402.698 430.609 402.248 430.911C401.722 441.161 404.197 453.688 412.975 458.927Z" fill="#1D1D1B"/>
<path id="Vector_20" d="M419.202 92.151C419.726 91.0117 421.826 91.5426 421.602 92.835C420.927 98.3784 416.5 102.478 411.549 104.528C410.574 104.908 409.973 103.313 410.798 102.858C415.3 100.351 417.176 96.7063 419.202 92.151Z" fill="#1D1D1B"/>
<path id="Vector_21" d="M421.152 440.4C423.253 446.019 425.879 466.593 412.975 458.925C404.197 453.686 401.721 441.16 402.246 430.911C402.696 430.606 403.071 430.227 403.22 429.545C404.871 418.232 414.999 429.469 416.649 431.823C418.526 434.404 420.027 437.364 421.152 440.4Z" fill="#F49AC7"/>
<path id="Vector_22" d="M415.599 211.196C415.674 215.979 414.173 220.914 411.248 224.785C407.872 229.264 401.269 225.544 403.67 220.306C405.469 216.435 406.071 212.486 406.22 208.538C405.544 206.337 404.57 204.287 404.495 201.933C404.42 198.897 407.796 197.15 410.346 198.593C410.495 198.668 410.572 198.82 410.721 198.897C411.397 199.201 411.922 199.732 412.297 200.416C414.699 203.223 415.525 207.627 415.599 211.196Z" fill="#1D1D1B"/>
<path id="Vector_23" d="M413.95 475.933C416.201 476.008 416.201 479.273 413.95 479.502C405.547 480.109 397.819 477.68 391.067 472.743C389.116 471.377 390.841 468.187 392.943 469.478C399.32 473.503 406.447 475.628 413.95 475.933Z" fill="#1D1D1B"/>
<path id="Vector_24" d="M411.924 89.4925C413.125 98.7557 403.822 107.182 395.57 109.081C387.843 110.826 377.489 105.209 379.44 96.0219C381.09 87.9736 390.619 83.4941 398.421 81.977C400.22 80.3069 402.847 80.0783 405.397 80.9133C409.223 82.1281 411.4 85.6214 411.924 89.4925ZM404.197 96.7058C406.223 94.4273 408.099 90.4051 406.073 87.3671C404.197 84.5577 401.421 85.4684 398.871 86.1523C398.195 86.3809 397.67 86.0767 397.295 85.697C394.144 87.0629 391.143 88.9616 388.668 91.3913C387.092 92.9102 384.917 95.0357 384.917 97.4653C384.992 100.73 388.444 102.931 391.295 103.16C396.02 103.462 401.12 100.122 404.197 96.7058Z" fill="#1D1D1B"/>
<path id="Vector_25" d="M406.898 464.317C408.549 464.847 408.325 467.733 406.449 467.581C400.596 466.897 395.871 463.102 393.094 458.015C392.269 456.572 394.295 455.51 395.195 456.725C398.045 460.899 402.097 462.949 406.898 464.317Z" fill="#1D1D1B"/>
<path id="Vector_26" d="M406.073 87.3676C408.099 90.4037 406.222 94.4278 404.197 96.7062C401.12 100.122 396.02 103.462 391.292 103.16C388.442 102.931 384.99 100.73 384.915 97.4657C384.915 95.0361 387.09 92.9107 388.666 91.3917C391.141 88.9622 394.143 87.0635 397.293 85.6975C397.668 86.0773 398.193 86.3814 398.868 86.1528C401.421 85.4689 404.197 84.5583 406.073 87.3676Z" fill="#F49AC7"/>
<path id="Vector_27" d="M376.214 81.0689C377.188 86.3075 374.939 91.6972 371.562 95.5681C370.587 96.6317 368.711 95.1884 369.536 93.9736C372.237 89.9498 372.837 86.1545 373.361 81.4468C373.512 79.9298 375.913 79.3215 376.214 81.0689Z" fill="#1D1D1B"/>
<path id="Vector_28" d="M371.487 125.555C374.037 127.53 374.188 131.021 373.137 133.906C370.886 140.131 364.06 144.535 357.608 144.61C350.105 144.686 348.755 137.473 352.881 132.311C356.256 128.06 360.834 125.707 365.935 124.947C367.06 124.263 368.335 124.188 369.611 124.567C369.685 124.567 369.76 124.567 369.837 124.567C370.212 124.492 370.436 124.718 370.512 125.023C370.886 125.176 371.186 125.329 371.487 125.555ZM365.559 134.59C365.634 134.59 370.061 128.896 366.909 129.426C365.858 129.655 365.033 129.2 364.658 128.516C361.282 130.337 358.206 132.92 356.856 136.109C356.031 138.083 356.18 138.387 358.28 138.158C359.781 138.007 361.206 137.55 362.481 136.868C363.608 136.26 364.66 135.502 365.559 134.59Z" fill="#1D1D1B"/>
<path id="Vector_29" d="M366.911 129.429C370.062 128.898 365.636 134.593 365.561 134.593C364.661 135.503 363.61 136.263 362.484 136.871C361.209 137.555 359.783 138.01 358.284 138.161C356.183 138.388 356.034 138.086 356.859 136.112C358.209 132.922 361.286 130.342 364.661 128.519C365.035 129.201 365.86 129.656 366.911 129.429Z" fill="#F49AC7"/>
<path id="Vector_30" d="M339.827 70.7399C361.51 68.9187 356.258 89.1129 347.179 99.5132C343.729 103.384 339.152 107.029 334.876 109.762C324.072 116.596 306.742 122.896 297.889 110.977C288.586 98.4496 302.915 84.3293 313.944 77.8001C322.121 74.8396 330.525 72.41 339.077 70.5869C339.301 70.6644 339.602 70.7399 339.827 70.7399Z" fill="#F49AC7"/>
<path id="Vector_31" d="M338.475 426.507C339.601 431.822 338.475 436.528 335.925 441.16C334.799 443.134 331.949 441.389 332.925 439.414C334.801 435.543 335.4 431.291 335.475 426.964C335.475 425.217 338.1 424.762 338.475 426.507Z" fill="#1D1D1B"/>
<path id="Vector_32" d="M330.823 423.319C332.774 428.027 331.723 433.037 328.872 437.137C327.898 438.656 325.497 437.288 326.471 435.694C328.723 431.974 328.723 428.254 328.197 424.079C328.047 422.711 330.299 422.104 330.823 423.319Z" fill="#1D1D1B"/>
<path id="Vector_33" d="M309.892 392.95C318.296 403.199 327.148 421.572 319.421 434.402C311.769 447.081 298.489 438.957 292.862 428.936C289.112 422.332 287.837 414.359 288.361 406.768C288.662 403.048 288.662 397.505 291.287 394.469C291.287 391.204 293.312 388.624 296.764 387.333C302.163 385.435 306.59 388.926 309.892 392.95ZM308.466 430.38C313.494 431.519 315.743 429.394 315.219 424.002C315.219 423.016 315.219 421.952 315.219 420.888C314.918 416.333 313.044 411.474 311.093 407.45C310.118 405.476 308.993 403.579 307.867 401.756C307.792 401.605 297.813 386.952 296.988 396.213C296.764 398.111 295.112 399.022 293.688 398.718C293.613 404.716 295.263 417.471 295.338 417.775C296.163 420.431 297.214 423.089 298.713 425.519C301.939 430.835 302.24 430.986 308.466 430.38Z" fill="#1D1D1B"/>
<path id="Vector_34" d="M311.693 446.095C315.518 449.74 320.17 454.295 319.42 460.141C318.895 464.24 315.369 468.265 311.017 468.265C305.991 468.189 303.514 462.721 303.14 458.319C302.765 453.231 304.641 448.374 308.842 445.489C309.292 445.185 309.742 445.338 310.042 445.64C310.567 445.564 311.168 445.564 311.693 446.095ZM311.017 462.799C314.017 462.874 315.068 458.928 314.392 456.574C313.642 453.613 311.392 451.259 309.29 449.133C308.465 451.032 307.789 453.005 307.714 455.056C307.567 457.257 308.091 462.799 311.017 462.799Z" fill="#1D1D1B"/>
<path id="Vector_35" d="M315.144 494.155C319.42 496.129 319.196 503.417 317.846 507.213C316.27 511.541 311.769 515.716 306.893 514.728C301.042 513.589 301.942 507.135 303.741 502.96C305.466 499.089 308.168 495.445 312.445 494.988C312.893 494.002 314.243 493.699 315.144 494.155ZM313.718 502.505C313.944 500.684 313.194 499.165 312.667 497.57C310.266 498.634 308.991 501.29 308.166 503.795C307.415 505.92 305.69 511.463 310.042 508.958C312.217 507.668 313.492 505.01 313.718 502.505Z" fill="#1D1D1B"/>
<path id="Vector_36" d="M313.867 143.324C329.098 147.044 322.42 167.391 314.468 176.426C302.839 189.635 282.958 205.123 264.203 199.354C245.073 193.584 252.124 170.883 261.203 159.116C273.056 143.857 294.589 135.278 313.044 142.566C313.417 142.716 313.718 143.02 313.867 143.324ZM299.613 180.828C306.065 175.438 328.722 153.42 310.042 147.877C309.142 147.573 308.617 146.891 308.392 146.056C298.038 145.905 288.361 146.815 279.058 152.585C273.581 156.001 268.856 160.556 265.254 166.023C260.152 173.843 258.877 177.336 262.854 185.536C263.378 191.154 266.154 193.659 271.182 192.9C274.709 192.9 278.084 192.445 281.385 191.381C288.135 189.331 294.212 185.307 299.613 180.828Z" fill="#1D1D1B"/>
<path id="Vector_37" d="M315.219 424.002C315.744 429.392 313.494 431.518 308.467 430.38C302.24 430.989 301.94 430.836 298.714 425.521C297.213 423.092 296.164 420.433 295.338 417.777C295.264 417.473 293.613 404.718 293.688 398.72C295.112 399.024 296.765 398.112 296.989 396.215C297.814 386.952 307.793 401.605 307.867 401.758C308.993 403.579 310.117 405.478 311.093 407.452C313.044 411.476 314.919 416.335 315.219 420.891C315.219 421.952 315.219 423.016 315.219 424.002Z" fill="#F49AC7"/>
<path id="Vector_38" d="M314.394 456.573C315.07 458.927 314.019 462.873 311.019 462.798C308.093 462.798 307.569 457.255 307.718 455.054C307.793 453.004 308.469 451.03 309.294 449.131C311.392 451.258 313.644 453.612 314.394 456.573Z" fill="#F49AC7"/>
<path id="Vector_39" d="M311.767 519.056C312.667 517.917 314.544 519.36 313.793 520.575C311.092 524.674 308.166 528.47 305.241 532.267C304.341 533.482 302.39 531.888 303.215 530.748C305.991 526.722 308.693 522.776 311.767 519.056Z" fill="#1D1D1B"/>
<path id="Vector_40" d="M312.667 497.57C313.192 499.164 313.942 500.683 313.718 502.505C313.494 505.01 312.217 507.668 310.042 508.959C305.691 511.464 307.416 505.923 308.166 503.795C308.991 501.29 310.266 498.634 312.667 497.57Z" fill="#F49AC7"/>
<path id="Vector_41" d="M310.042 147.878C328.723 153.421 306.066 175.436 299.614 180.828C294.213 185.308 288.136 189.332 281.383 191.382C278.082 192.445 274.707 192.901 271.18 192.901C266.155 193.66 263.378 191.155 262.852 185.536C258.875 177.337 260.151 173.844 265.253 166.024C268.854 160.559 273.581 156.002 279.057 152.586C288.36 146.816 298.038 145.906 308.39 146.057C308.616 146.89 309.142 147.574 310.042 147.878Z" fill="#F49AC7"/>
<path id="Vector_42" d="M309.366 312.171C310.417 313.614 308.166 315.284 306.965 314.069C302.238 309.059 300.963 302.15 302.688 295.545C303.213 293.647 305.989 294.482 305.614 296.38C304.415 302.073 306.065 307.463 309.366 312.171Z" fill="#1D1D1B"/>
<path id="Vector_43" d="M285.584 120.316C286.784 121.682 284.908 123.58 283.558 122.366C280.857 119.936 279.582 116.976 280.558 113.407C280.859 112.343 282.658 112.192 282.884 113.407C283.259 115.914 283.933 118.419 285.584 120.316Z" fill="#1D1D1B"/>
<path id="Vector_44" d="M282.283 210.74C283.334 209.296 285.659 210.511 284.684 212.106C281.083 218.104 272.906 220.305 267.053 216.281C265.927 215.446 266.903 213.851 268.178 214.382C273.206 216.585 278.982 215.219 282.283 210.74Z" fill="#1D1D1B"/>
<path id="Vector_45" d="M278.982 126.391C279.733 127.606 278.082 128.745 277.183 127.834C273.731 124.645 272.906 119.786 273.731 115.231C273.955 113.712 276.206 114.396 275.98 115.915C275.381 119.939 276.807 123.126 278.982 126.391Z" fill="#1D1D1B"/>
<path id="Vector_46" d="M274.705 204.438C276.055 203.907 276.88 206.033 275.68 206.717C271.253 208.996 266.827 208.996 262.326 207.022C261.05 206.491 261.95 204.44 263.225 204.82C267.129 206.184 270.954 205.958 274.705 204.438Z" fill="#1D1D1B"/>
<path id="Vector_47" d="M249.948 288.71C250.547 289.85 248.973 291.215 248.148 290.154C244.472 285.37 242.822 279.221 242.896 273.225C242.971 271.63 245.148 271.706 245.297 273.225C245.747 278.917 247.547 283.549 249.948 288.71Z" fill="#1D1D1B"/>
<path id="Vector_48" d="M245.521 215.447C245.596 220.913 240.869 228.657 235.769 230.631C230.142 232.756 226.615 227.215 226.692 222.128C226.841 215.903 230.517 209.525 235.545 206.033C235.92 205.729 236.37 205.805 236.82 206.033C241.321 205.047 245.521 211.272 245.521 215.447ZM239.221 219.016C241.172 214.916 239.521 212.183 235.92 210.513C234.719 212.336 233.594 214.233 232.92 216.282C232.319 217.877 230.369 224.177 232.845 225.392C235.018 226.38 238.619 220.382 239.221 219.016Z" fill="#1D1D1B"/>
<path id="Vector_49" d="M242.447 289.623C243.197 290.989 241.246 292.053 240.421 290.838C236.519 284.993 234.944 278.31 235.47 271.25C235.545 269.96 237.57 269.884 237.496 271.25C237.419 277.855 239.144 284.005 242.447 289.623Z" fill="#1D1D1B"/>
<path id="Vector_50" d="M237.645 153.572C238.696 152.206 240.645 153.951 239.894 155.317C237.719 159.417 235.992 163.669 235.167 168.224C234.867 169.894 232.167 169.515 232.242 167.845C232.542 162.377 234.118 157.747 237.645 153.572Z" fill="#1D1D1B"/>
<path id="Vector_51" d="M235.918 210.511C239.519 212.181 241.17 214.915 239.219 219.015C238.618 220.381 235.018 226.379 232.841 225.393C230.366 224.178 232.317 217.878 232.916 216.283C233.594 214.231 234.718 212.334 235.918 210.511Z" fill="#F49AC7"/>
<path id="Vector_52" d="M235.393 384.75C235.617 383.156 238.244 383.611 238.169 385.206C238.02 390.596 234.418 394.849 229.542 396.746C228.416 397.201 227.666 395.304 228.717 394.771C232.691 392.723 234.642 389.154 235.393 384.75Z" fill="#1D1D1B"/>
<path id="Vector_53" d="M230.592 464.013C231.417 462.343 234.268 463.558 233.592 465.303C231.191 471.606 225.49 475.249 218.888 474.947C216.938 474.871 216.938 472.062 218.888 471.986C223.991 471.682 228.191 468.568 230.592 464.013Z" fill="#1D1D1B"/>
<path id="Vector_54" d="M230.292 377.616C230.442 383.006 227.892 387.41 223.465 390.294C221.815 391.358 220.54 388.928 221.964 387.865C225.265 385.36 227.216 381.64 227.666 377.616C227.892 375.946 230.216 375.868 230.292 377.616Z" fill="#1D1D1B"/>
<path id="Vector_55" d="M227.141 456.649C227.817 455.585 229.768 455.965 229.617 457.333C229.167 460.827 226.465 463.559 222.941 464.243C221.666 464.472 220.766 462.648 222.041 461.964C224.44 460.598 225.715 459.003 227.141 456.649Z" fill="#1D1D1B"/>
<path id="Vector_56" d="M211.685 361.368C227.44 363.949 211.611 381.866 206.508 386.497C201.632 390.901 192.555 398.112 185.502 397.581C182.8 397.355 181.45 396.215 181 394.545C186.777 379.588 196.755 367.897 210.184 360.304C210.485 360.837 210.937 361.217 211.685 361.368Z" fill="#F49AC7"/>
<path id="Vector_57" d="M195.406 416.866C196.082 422.485 193.231 431.595 188.354 434.859C182.877 438.504 176.126 434.784 176.576 428.103C177.101 421.27 182.653 414.134 187.979 410.337C188.655 409.881 189.48 410.337 189.781 411.02C192.406 411.476 195.031 413.981 195.406 416.866ZM188.579 424.761C188.728 424.306 191.205 414.739 188.203 416.486C187.602 416.866 186.928 416.79 186.402 416.486C183.775 420.055 181.225 424.155 181.525 427.875C181.749 432.203 185.276 430.76 186.926 428.483C187.679 427.419 188.129 425.976 188.579 424.761Z" fill="#1D1D1B"/>
<path id="Vector_58" d="M188.203 416.487C191.203 414.742 188.727 424.307 188.578 424.762C188.128 425.977 187.678 427.418 186.928 428.482C185.277 430.76 181.751 432.201 181.527 427.873C181.226 424.154 183.776 420.054 186.403 416.486C186.928 416.792 187.603 416.867 188.203 416.487Z" fill="#F49AC7"/>
<path id="Vector_59" d="M188.053 455.813C193.68 456.042 186.552 468.188 185.352 470.011C182.876 473.655 174.548 479.654 175.525 470.922C176.275 464.088 180.627 458.243 186.028 454.294C186.328 455.054 186.928 455.738 188.053 455.813Z" fill="#F49AC7"/>
<path id="Vector_60" d="M157.069 510.552C158.269 509.413 159.694 511.083 158.794 512.298C156.468 515.259 153.843 517.993 151.291 520.803C150.24 522.017 148.589 520.272 149.566 519.057C152.043 516.172 154.369 513.209 157.069 510.552Z" fill="#1D1D1B"/>
</g>
</g>
</svg>
