<svg width="326" height="228" viewBox="0 0 326 228" fill="none" xmlns="http://www.w3.org/2000/svg">
<g id="orange-coral">
<path id="Vector" d="M286.537 145.393C284.862 151.805 281.66 159.572 274.525 170.357C273.083 169.388 271.558 168.238 270.04 166.876C262.301 159.935 258.219 150.997 257.561 139.551C257 129.792 248.958 122.351 239.6 122.94C230.242 123.525 223.111 131.912 223.672 141.672C224.92 163.363 233.836 181.829 249.456 195.075C249.672 195.257 249.886 195.433 250.101 195.611C242.06 201.416 232.353 206.702 220.642 210.972C218.193 199.866 214.766 189.234 211.449 178.943C205.446 160.317 199.776 142.726 199.19 123.067C198.932 114.409 199.255 104.401 199.894 94.1858C217.031 92.8496 245.315 87.6905 263.446 68.8994C270.096 62.0071 270.13 50.7983 263.52 43.8635C256.912 36.9266 246.164 36.8934 239.515 43.7851C230.97 52.6404 215.628 56.6315 203.133 58.2485C205.116 40.664 207.095 27.5254 207.137 27.2472C208.605 17.591 202.289 8.52186 193.031 6.99052C183.768 5.45852 175.075 12.0461 173.607 21.7029C173.218 24.2629 164.087 84.849 165.258 124.165C165.999 149.051 173.049 170.924 179.27 190.224C189.218 221.089 197.013 245.275 181.139 275.854C174.791 257.624 164.595 234.561 148.512 211.056C142.491 202.257 136.152 193.381 129.439 183.984C114.603 163.215 98.7111 140.967 86.9139 119.962C102.4 110.819 122.539 90.1084 127.79 43.5394C128.885 33.8288 122.224 25.0312 112.914 23.889C103.599 22.7481 95.1677 29.6936 94.0726 39.4036C90.7094 69.2335 80.0469 82.2319 72.3177 87.8227C70.3037 81.435 69.0678 75.3542 68.817 69.6883C68.384 59.9213 60.4568 52.3582 51.0766 52.8211C41.7123 53.272 34.4715 61.5555 34.9039 71.3226C36.5396 108.247 62.2103 148.516 90.1535 188.174C71.1219 188.846 47.3601 186.372 35.5476 173.628C29.0161 166.58 18.2307 166.407 11.4929 173.256C4.70094 180.161 4.96327 191.728 11.6304 198.762C26.68 214.642 49.8567 223.013 80.5308 223.647C81.7596 223.672 82.9726 223.684 84.1741 223.684C96.517 223.684 107.274 222.42 113.797 221.431C116.22 224.875 118.584 228.267 120.879 231.623C150.75 275.282 157.227 317.72 157.283 318.096C158.234 324.856 162.832 330.441 169.094 332.447C170.735 332.971 172.412 333.227 174.075 333.227C178.76 333.226 183.326 331.2 186.592 327.482C193.771 319.312 199.697 311.394 204.562 303.706C209.728 305.132 217.39 306.814 225.996 307.275C227.563 307.359 229.085 307.4 230.57 307.4C256.422 307.4 270.076 295.088 277.048 284.424C282.33 276.346 280.332 265.332 272.586 259.824C264.841 254.315 254.28 256.399 248.999 264.478C243.222 273.313 229.411 272.665 219.728 270.887C222.127 262.695 223.425 254.774 223.89 247.092C270.671 232.475 294.857 204.513 307.041 182.934C312.793 172.747 316.446 163.105 318.763 155.087C321.891 144.266 314.439 133.254 303.619 132.627C295.756 132.172 288.607 137.468 286.537 145.393Z" fill="#F15A24"/>
<path id="orange branch" d="M174.075 340C171.741 340 169.425 339.637 167.189 338.922C158.577 336.164 152.167 328.375 150.859 319.081C150.805 318.728 144.297 277.51 115.594 235.558C114.127 233.415 112.557 231.146 110.837 228.684C103.146 229.695 92.3706 230.665 80.404 230.42C47.984 229.75 23.2926 220.702 7.01285 203.525C2.50995 198.774 -0.0375755 192.212 0.0216397 185.522C0.0802182 178.974 2.54433 172.898 6.96064 168.408C11.4635 163.829 17.4303 161.352 23.6931 161.46C29.9807 161.558 35.8487 164.208 40.2179 168.923C48.4367 177.791 64.1364 180.636 77.3369 181.321C52.5264 145.349 30.0157 107.722 28.4169 71.6375C27.8209 58.1549 37.8512 46.6805 50.7773 46.0576C57.0408 45.7555 63.0298 48.002 67.6619 52.4008C72.3005 56.8069 75.0154 62.8359 75.3052 69.3783C75.3803 71.0843 75.5637 72.8766 75.854 74.7473C80.632 68.0322 85.564 56.8945 87.6245 38.6154C89.1354 25.2146 100.814 15.5889 113.673 17.1654C126.525 18.7412 135.752 30.9289 134.241 44.333C129.298 88.1681 111.632 110.665 95.7541 122.162C106.934 141.143 121.003 160.838 134.648 179.941C141.394 189.384 147.746 198.278 153.8 207.126C164.644 222.974 173.862 240.017 181.305 257.959C187.315 236.443 181.127 217.239 173.117 192.389C166.753 172.639 159.54 150.263 158.769 124.379C157.58 84.4154 166.802 23.2303 167.196 20.6451C169.223 7.31598 181.266 -1.80896 194.051 0.305432C206.831 2.41915 215.58 14.9833 213.554 28.3118C213.487 28.754 212.169 37.5523 210.632 50.1337C221.68 47.8021 230.157 43.9412 234.941 38.9846C239.369 34.3946 245.241 31.8698 251.482 31.8698C251.507 31.8698 251.532 31.8698 251.556 31.8698C257.825 31.8904 263.712 34.455 268.13 39.0935C272.548 43.7294 274.971 49.884 274.951 56.4224C274.932 62.9601 272.472 69.0987 268.026 73.7073C250.787 91.5747 225.789 98.1629 206.05 100.402C205.619 109 205.496 116.535 205.684 122.86C206.24 141.517 211.76 158.647 217.605 176.782C220.225 184.912 222.915 193.255 225.167 201.943C230.184 199.792 234.926 197.371 239.359 194.697C226.008 180.815 218.385 162.788 217.193 142.08C216.817 135.555 218.901 129.266 223.06 124.374C227.22 119.483 232.957 116.573 239.215 116.182C245.461 115.785 251.5 117.96 256.192 122.3C260.882 126.639 263.672 132.623 264.047 139.149C264.563 148.111 267.402 154.94 272.947 160.484C276.535 154.338 278.902 148.871 280.274 143.615C283.126 132.701 293.087 125.236 303.982 125.867C311.157 126.282 317.639 130.042 321.765 136.18C325.875 142.297 327.049 149.902 324.984 157.044C322.052 167.194 317.899 177.062 312.641 186.374C300.476 207.917 276.326 236.513 229.994 252.204C229.551 256.536 228.858 260.853 227.922 265.125C235.804 265.64 241.389 264.102 243.636 260.665C247.168 255.262 252.506 251.619 258.665 250.403C264.825 249.188 271.071 250.547 276.248 254.232C281.427 257.914 284.921 263.48 286.086 269.904C287.252 276.329 285.948 282.842 282.416 288.243C274.683 300.074 259.41 314.176 230.574 314.176C228.969 314.176 227.318 314.131 225.666 314.043C218.723 313.671 212.367 312.548 207.402 311.397C202.77 318.284 197.396 325.217 191.383 332.061C186.947 337.105 180.639 340 174.075 340ZM113.798 214.659C115.846 214.659 117.798 215.672 119.033 217.425C121.71 221.23 124.044 224.589 126.165 227.69C156.906 272.62 163.638 316.634 163.703 317.074C164.293 321.264 167.156 324.742 171.001 325.973C172 326.292 173.034 326.455 174.075 326.455C177.007 326.455 179.824 325.162 181.803 322.908C188.509 315.275 194.342 307.561 199.142 299.975C200.677 297.549 203.525 296.415 206.222 297.158C210.892 298.447 218.171 300.075 226.328 300.512C227.758 300.588 229.186 300.627 230.57 300.627C253.733 300.627 265.712 289.741 271.682 280.609C273.259 278.197 273.841 275.289 273.32 272.42C272.8 269.551 271.239 267.065 268.926 265.421C266.613 263.776 263.825 263.169 261.075 263.711C258.324 264.255 255.94 265.882 254.362 268.295C248.319 277.54 235.954 280.743 218.601 277.559C216.77 277.222 215.164 276.084 214.192 274.429C213.219 272.775 212.973 270.766 213.516 268.911C215.645 261.64 216.955 254.156 217.408 246.667C217.58 243.839 219.422 241.421 222.025 240.607C267.1 226.522 290.093 199.602 301.444 179.5C306.175 171.121 309.91 162.251 312.544 153.136C313.451 149.995 312.934 146.649 311.123 143.955C309.297 141.239 306.43 139.576 303.258 139.393C298.44 139.113 294.052 142.387 292.801 147.176C290.596 155.611 286.488 164.2 279.868 174.206C277.876 177.218 273.951 178.035 271.004 176.053C269.158 174.812 267.409 173.453 265.805 172.014C256.791 163.93 251.835 153.146 251.076 139.96C250.909 137.044 249.663 134.372 247.569 132.435C245.474 130.498 242.771 129.525 239.99 129.703C237.193 129.878 234.632 131.178 232.774 133.362C230.917 135.547 229.986 138.355 230.155 141.269C231.291 161.017 239.382 177.807 253.553 189.823C253.693 189.941 253.835 190.058 253.974 190.174L254.139 190.31C255.748 191.644 256.658 193.694 256.59 195.836C256.522 197.979 255.486 199.962 253.795 201.182C244.736 207.723 234.302 213.169 222.783 217.368C221.041 218.003 219.12 217.836 217.503 216.904C215.886 215.974 214.726 214.369 214.312 212.492C211.934 201.709 208.557 191.234 205.291 181.103C199.131 161.986 193.313 143.936 192.698 123.279C192.456 115.143 192.696 105.207 193.412 93.7482C193.622 90.3787 196.18 87.6859 199.407 87.4343C214.328 86.2708 241.89 81.6921 258.867 64.0976C260.852 62.039 261.951 59.2984 261.96 56.3785C261.969 53.4593 260.887 50.7107 258.914 48.6402C256.94 46.5683 254.312 45.4228 251.513 45.4135C251.502 45.4135 251.491 45.4135 251.48 45.4135C248.692 45.4135 246.07 46.5411 244.092 48.5904C233.902 59.1517 216.628 63.3273 203.932 64.9716C201.952 65.2292 199.97 64.522 198.555 63.0551C197.139 61.5888 196.449 59.5255 196.682 57.459C198.647 40.0398 200.636 26.7618 200.72 26.2053C201.627 20.2361 197.72 14.6254 192.013 13.6817C186.302 12.7368 180.926 16.8128 180.021 22.7655C179.635 25.2989 170.596 85.2574 171.748 123.957C172.46 147.842 179.347 169.211 185.424 188.065C195.429 219.108 204.068 245.913 186.849 279.08C185.632 281.425 183.195 282.808 180.659 282.609C178.109 282.412 175.907 280.673 175.034 278.166C167.185 255.622 156.484 234.368 143.227 214.991C137.251 206.257 130.936 197.417 124.251 188.058C109.023 166.741 93.2958 144.725 81.3107 123.387C80.4314 121.822 80.1914 119.955 80.6441 118.204C81.0955 116.453 82.2021 114.964 83.7156 114.069C98.1737 105.533 116.437 86.231 121.34 42.7492C122.015 36.7633 117.894 31.3207 112.155 30.6167C106.414 29.9142 101.197 34.2113 100.522 40.1966C96.9238 72.1142 85.21 86.7403 76.0183 93.3903C74.3329 94.6088 72.198 94.9263 70.2534 94.2463C68.3095 93.5669 66.7884 91.9705 66.1478 89.9398C63.8811 82.7479 62.5962 76.0402 62.3294 70.0019C62.1995 67.0773 60.9878 64.3832 58.9153 62.4149C56.8504 60.4532 54.1685 59.4532 51.3822 59.588C45.6033 59.8669 41.1227 64.9915 41.3889 71.0126C42.9826 106.97 70.0961 148.274 95.3842 184.165C96.8105 186.19 97.0454 188.871 95.9935 191.132C94.943 193.392 92.7775 194.861 90.37 194.945C70.8876 195.633 44.7527 193.308 30.8766 178.337C28.925 176.231 26.3043 175.048 23.497 175.005C20.7049 174.954 18.0352 176.063 16.0244 178.108C14.1047 180.06 13.0331 182.737 13.007 185.648C12.9789 188.755 14.1594 191.8 16.2472 194.003C30.066 208.585 51.7369 216.28 80.6575 216.877C93.9064 217.148 105.646 215.824 112.86 214.73C113.175 214.682 113.488 214.659 113.798 214.659Z" fill="black"/>
<path id="Vector_2" d="M111.616 197.665C109.532 197.665 107.485 196.62 106.23 194.684L90.6126 170.591C88.6031 167.492 89.3838 163.281 92.3553 161.186C95.3263 159.092 99.3637 159.904 101.373 163.004L116.99 187.097C119 190.196 118.219 194.407 115.247 196.502C114.133 197.287 112.868 197.665 111.616 197.665Z" fill="black"/>
<path id="Vector_3" d="M83.6144 154.466C81.5304 154.466 79.484 153.422 78.229 151.486L73.6395 144.406C71.63 141.307 72.4106 137.096 75.3822 135.001C78.3531 132.908 82.3906 133.72 84.3995 136.819L88.989 143.899C90.9985 146.998 90.2178 151.209 87.2462 153.304C86.1313 154.09 84.8668 154.466 83.6144 154.466Z" fill="black"/>
</g>
</svg>
