<svg width="418" height="418" viewBox="0 0 418 418" fill="none" xmlns="http://www.w3.org/2000/svg">
<g clip-path="url(#clip0)">
<path d="M340.165 416.698H314.703C303.992 416.698 294.01 411.312 286.594 401.532C279.479 392.149 275.561 379.745 275.561 366.607V215.433C275.561 212.779 277.713 210.627 280.367 210.627C283.021 210.627 285.173 212.779 285.173 215.433V366.607C285.173 388.927 298.42 407.085 314.703 407.085H340.165C342.819 407.085 344.971 409.237 344.971 411.891C344.971 414.546 342.819 416.698 340.165 416.698Z" fill="#75D8B4"/>
<path d="M332.535 416.698C319.96 416.698 309.73 403.893 309.73 388.153V185.155C309.73 182.501 311.882 180.349 314.536 180.349C317.19 180.349 319.342 182.501 319.342 185.155V388.154C319.342 398.416 325.384 407.086 332.535 407.086C335.189 407.086 337.341 409.238 337.341 411.892C337.341 414.546 335.189 416.698 332.535 416.698Z" fill="#75D8B4"/>
<path d="M308.06 416.697H301.724C285.904 416.697 271.119 408.687 260.091 394.143C249.364 379.995 243.456 361.258 243.456 341.382V254.161C243.456 251.507 245.608 249.355 248.262 249.355C250.916 249.355 253.068 251.507 253.068 254.161V341.382C253.068 377.611 274.895 407.085 301.723 407.085H308.059C310.713 407.085 312.865 409.237 312.865 411.891C312.866 414.545 310.714 416.697 308.06 416.697Z" fill="#75D8B4"/>
<path d="M346.012 416.698H320.551C317.897 416.698 315.745 414.546 315.745 411.892C315.745 409.238 317.897 407.086 320.551 407.086H346.012C362.295 407.086 375.542 388.928 375.542 366.608V215.433C375.542 212.779 377.694 210.627 380.348 210.627C383.002 210.627 385.154 212.779 385.154 215.433V366.607C385.154 379.745 381.236 392.148 374.121 401.532C366.706 411.312 356.723 416.698 346.012 416.698Z" fill="#75D8B4"/>
<path d="M328.181 416.698C325.527 416.698 323.375 414.546 323.375 411.892C323.375 409.238 325.527 407.086 328.181 407.086C335.332 407.086 341.374 398.416 341.374 388.154V185.155C341.374 182.501 343.526 180.349 346.18 180.349C348.834 180.349 350.986 182.501 350.986 185.155V388.154C350.986 403.893 340.755 416.698 328.181 416.698Z" fill="#75D8B4"/>
<path d="M358.992 416.697H352.656C350.002 416.697 347.85 414.545 347.85 411.891C347.85 409.237 350.002 407.085 352.656 407.085H358.992C385.821 407.085 407.648 377.611 407.648 341.382V254.161C407.648 251.507 409.8 249.355 412.454 249.355C415.108 249.355 417.26 251.507 417.26 254.161V341.382C417.26 361.258 411.352 379.995 400.625 394.143C389.597 408.687 374.812 416.697 358.992 416.697Z" fill="#75D8B4"/>
<path d="M209.023 171.416C182.699 171.416 160.769 190.191 155.871 215.079C151.729 206.251 148.306 196.595 148.306 179.7C148.306 159.541 153.174 149.685 158.328 139.25C163.815 128.138 169.49 116.648 169.49 93.9121H158.453C158.453 114.071 153.585 123.927 148.432 134.362C145.975 139.337 143.482 144.391 141.477 150.492C136.054 126.292 114.457 108.204 88.621 108.204C88.621 136.715 110.648 160.066 138.61 162.208C137.769 167.245 137.271 172.978 137.271 179.699C137.271 202.434 142.946 213.924 148.433 225.035C153.586 235.469 158.454 245.325 158.454 265.483C158.454 275.057 157.349 282.292 155.644 288.383C151.479 262.599 129.127 242.905 102.167 242.905C102.167 271.579 124.446 295.036 152.636 296.946C151.326 300.058 149.893 302.975 148.433 305.932C142.946 317.044 137.271 328.534 137.271 351.269H148.308C148.308 331.111 153.176 321.255 158.33 310.82C163.817 299.709 169.492 288.218 169.492 265.483C169.492 246.193 165.407 235 160.817 225.263C187.926 222.288 209.023 199.32 209.023 171.416Z" fill="#9BC9CC"/>
<path d="M386.295 416.697C386.295 340.964 324.901 279.571 249.169 279.571C173.437 279.571 112.043 340.965 112.043 416.697" fill="#E8BF4D"/>
<path d="M193.984 416.697C193.984 363.13 150.559 319.705 96.992 319.705C43.425 319.705 0 363.13 0 416.697" fill="#F9D25B"/>
<path d="M82.621 284.589H78.485C68.544 284.589 60.486 292.647 60.486 302.588V416.699H100.621V302.588C100.62 292.647 92.561 284.589 82.621 284.589Z" fill="#F74B4B"/>
<path d="M80.5531 316.22C86.7105 316.22 91.7021 311.228 91.7021 305.071C91.7021 298.913 86.7105 293.922 80.5531 293.922C74.3956 293.922 69.4041 298.913 69.4041 305.071C69.4041 311.228 74.3956 316.22 80.5531 316.22Z" fill="#7F3030"/>
<path d="M35.795 316.549H31.659C21.718 316.549 13.66 324.607 13.66 334.548V416.698H53.795V334.548C53.794 324.608 45.735 316.549 35.795 316.549Z" fill="#F74B4B"/>
<path d="M33.727 348.181C39.8844 348.181 44.876 343.189 44.876 337.032C44.876 330.874 39.8844 325.883 33.727 325.883C27.5696 325.883 22.578 330.874 22.578 337.032C22.578 343.189 27.5696 348.181 33.727 348.181Z" fill="#7F3030"/>
<path d="M243.157 316.549H239.021C229.08 316.549 221.022 324.607 221.022 334.548V416.698H261.157V334.548C261.156 324.608 253.097 316.549 243.157 316.549Z" fill="#F74B4B"/>
<path d="M241.089 348.181C247.246 348.181 252.238 343.189 252.238 337.032C252.238 330.874 247.246 325.883 241.089 325.883C234.932 325.883 229.94 330.874 229.94 337.032C229.94 343.189 234.932 348.181 241.089 348.181Z" fill="#7F3030"/>
<path d="M30.384 223.869C18.3 223.869 8.46899 214.038 8.46899 201.954C8.46899 189.87 18.3 180.039 30.384 180.039C42.468 180.039 52.299 189.87 52.299 201.954C52.299 214.038 42.468 223.869 30.384 223.869ZM30.384 189.039C23.263 189.039 17.469 194.832 17.469 201.954C17.469 209.076 23.263 214.869 30.384 214.869C37.505 214.869 43.299 209.076 43.299 201.954C43.299 194.832 37.505 189.039 30.384 189.039Z" fill="#51CAF4"/>
<path d="M285.038 75.0635C277.755 75.0635 271.83 69.1385 271.83 61.8555C271.83 54.5725 277.755 48.6475 285.038 48.6475C292.32 48.6475 298.245 54.5725 298.245 61.8555C298.245 69.1385 292.321 75.0635 285.038 75.0635ZM285.038 57.6485C282.718 57.6485 280.83 59.5365 280.83 61.8565C280.83 64.1765 282.718 66.0645 285.038 66.0645C287.357 66.0645 289.245 64.1765 289.245 61.8565C289.245 59.5355 287.358 57.6485 285.038 57.6485Z" fill="#51CAF4"/>
<path d="M266.541 35.5645C256.891 35.5645 249.039 27.7125 249.039 18.0625C249.039 8.41255 256.891 0.560547 266.541 0.560547C276.191 0.560547 284.043 8.41255 284.043 18.0625C284.043 27.7125 276.192 35.5645 266.541 35.5645ZM266.541 9.56055C261.853 9.56055 258.039 13.3745 258.039 18.0625C258.039 22.7505 261.853 26.5645 266.541 26.5645C271.229 26.5645 275.043 22.7505 275.043 18.0625C275.043 13.3745 271.229 9.56055 266.541 9.56055Z" fill="#51CAF4"/>
<path d="M213.033 268.217C198.333 268.217 186.374 256.258 186.374 241.557C186.374 226.857 198.333 214.898 213.033 214.898C227.733 214.898 239.693 226.857 239.693 241.557C239.693 256.258 227.733 268.217 213.033 268.217ZM213.033 223.898C203.296 223.898 195.374 231.82 195.374 241.557C195.374 251.295 203.296 259.217 213.033 259.217C222.771 259.217 230.693 251.295 230.693 241.557C230.693 231.82 222.771 223.898 213.033 223.898Z" fill="#51CAF4"/>
<path d="M42.577 171.988C25.61 171.988 11.806 158.185 11.806 141.218C11.806 124.251 25.61 110.448 42.577 110.448C59.544 110.448 73.347 124.251 73.347 141.218C73.347 158.185 59.544 171.988 42.577 171.988ZM42.577 119.449C30.573 119.449 20.806 129.215 20.806 141.219C20.806 153.223 30.573 162.989 42.577 162.989C54.581 162.989 64.347 153.223 64.347 141.219C64.347 129.215 54.581 119.449 42.577 119.449Z" fill="#51CAF4"/>
<path d="M379.885 121.353C370.055 137.023 354.595 145.893 338.385 147.973C317.195 150.703 294.725 141.823 281.875 121.353C293.215 103.283 312.045 94.2529 330.885 94.2529C333.395 94.2529 335.895 94.4129 338.385 94.7329C354.595 96.8129 370.055 105.683 379.885 121.353Z" fill="#F9993A"/>
<path d="M379.885 121.353C370.055 137.023 354.595 145.893 338.385 147.973C333.445 140.303 330.585 131.163 330.585 121.353C330.585 111.543 333.445 102.403 338.385 94.7334C354.595 96.8134 370.055 105.683 379.885 121.353Z" fill="#F9D43A"/>
<path d="M350.26 129.339C354.947 129.339 358.746 125.54 358.746 120.853C358.746 116.166 354.947 112.367 350.26 112.367C345.573 112.367 341.774 116.166 341.774 120.853C341.774 125.54 345.573 129.339 350.26 129.339Z" fill="#4D4D4D"/>
<path d="M245.709 94.7333C244.758 94.6113 243.806 94.5193 242.852 94.4443V148.262C243.806 148.186 244.759 148.096 245.709 147.973C261.919 145.893 277.379 137.023 287.209 121.353C277.379 105.683 261.918 96.8133 245.709 94.7333Z" fill="#F9993A"/>
</g>
<defs>
<clipPath id="clip0">
<rect width="417.26" height="417.26" fill="white"/>
</clipPath>
</defs>
</svg>
