<svg width="519" height="482" viewBox="0 0 519 482" fill="none" xmlns="http://www.w3.org/2000/svg">
<path d="M456.599 418.434C489.395 398.497 518.991 377.654 518.991 341.404C519.791 278.874 466.998 265.28 451 211.812V210V211.812L456.599 418.434Z" fill="#0F597A"/>
<path d="M458.685 418C461.887 380.812 461.086 349.048 434.672 332.004C388.247 302.564 352.228 337.427 301 330.454V331.229L458.685 418Z" fill="#0D415E"/>
<path d="M201.02 218.971C217.002 232.066 248.167 217.43 171.452 308.322C94.7371 399.214 19.6202 462.376 3.63792 449.282C-12.3444 436.187 24.4149 344.525 112.318 262.106C199.421 180.458 185.037 206.647 201.02 218.971Z" fill="#0F597A"/>
<path d="M209.242 201.035C189.242 223.367 150.042 222.597 122.042 199.495C94.0421 176.392 78.0421 125.566 107.642 116.325C93.2421 120.946 173.242 99.3832 201.242 122.486C229.242 146.359 229.242 178.702 209.242 201.035Z" fill="#0E91AF"/>
<path d="M251.642 313.468C225.242 269.573 216.442 212.586 222.842 169.461C110.042 150.209 130.842 134.037 91.6421 273.424C68.4421 354.283 76.4421 449.004 181.242 474.417C271.642 495.98 445.242 463.636 482.042 402.029C406.842 439.763 304.442 400.489 251.642 313.468Z" fill="#0E91AF"/>
<path d="M115 119.95C115 127.871 108.647 135 101.5 135C94.3529 135 88 128.663 88 119.95C88 112.03 94.3529 115.99 101.5 115.99C108.647 116.782 115 112.03 115 119.95Z" fill="#00233F"/>
<path d="M285 480.489L141.437 342L88 393.549C99.9636 431.248 127.879 462.023 181.316 475.103C210.028 482.027 246.717 483.566 285 480.489Z" fill="#057091"/>
<path d="M146.724 318.435C167.437 328.445 196.115 313.045 162.657 378.496C129.199 443.947 85.3842 488.608 64.6719 478.598C43.9596 468.588 54.3158 407.757 87.7741 342.305C121.232 276.854 126.012 308.424 146.724 318.435Z" fill="#0E91AF"/>
<path d="M114.842 145.588C116.609 145.588 118.042 144.209 118.042 142.508C118.042 140.806 116.609 139.427 114.842 139.427C113.075 139.427 111.642 140.806 111.642 142.508C111.642 144.209 113.075 145.588 114.842 145.588Z" fill="#0F597A"/>
<path d="M126.042 155.599C127.809 155.599 129.242 154.22 129.242 152.518C129.242 150.817 127.809 149.438 126.042 149.438C124.274 149.438 122.842 150.817 122.842 152.518C122.842 154.22 124.274 155.599 126.042 155.599Z" fill="#0F597A"/>
<path d="M110.042 160.22C111.809 160.22 113.242 158.841 113.242 157.139C113.242 155.438 111.809 154.059 110.042 154.059C108.274 154.059 106.842 155.438 106.842 157.139C106.842 158.841 108.274 160.22 110.042 160.22Z" fill="#0F597A"/>
<path d="M109.504 380.379C124.085 350.79 130.728 324.439 124.341 321.523C117.954 318.606 100.956 340.228 86.3744 369.817C71.7931 399.405 65.1504 425.756 71.5375 428.673C77.9245 431.589 94.9227 409.967 109.504 380.379Z" fill="#1AB9D3"/>
<path d="M121.044 245.785C126.664 223.027 128.085 203.859 124.216 202.974C120.348 202.089 112.655 219.82 107.034 242.579C101.413 265.338 99.9926 284.505 103.861 285.39C107.73 286.276 115.423 268.544 121.044 245.785Z" fill="#1AB9D3"/>
<path d="M104.978 307.873C106.514 301.668 104.973 295.998 101.535 295.209C98.0969 294.42 94.0638 298.811 92.5269 305.016C90.99 311.221 92.5313 316.892 95.9694 317.681C99.4076 318.47 103.441 314.079 104.978 307.873Z" fill="#1AB9D3"/>
<path d="M73 131C107.794 131 136 103.466 136 69.5C136 35.5345 107.794 8 73 8C38.2061 8 10 35.5345 10 69.5C10 103.466 38.2061 131 73 131Z" fill="#E0A617"/>
<path d="M135.287 55C143.292 88.2993 122.478 121.599 88.854 129.343C54.4298 137.087 20.0056 116.952 12 84.4273" fill="#DD7B19"/>
<path d="M116.85 59.1265C108.637 26.4717 82.4854 4.54282 58.4389 10.1469C34.3923 15.751 21.5565 46.7659 29.7694 79.4207C37.9823 112.075 64.1337 134.004 88.1803 128.4C112.227 122.796 125.063 91.7812 116.85 59.1265Z" fill="#F2CF3B"/>
<path d="M116.608 59C124.645 92.0512 111.785 122.796 87.6732 128.177C63.5609 133.557 37.0374 112.036 29 78.9844" fill="#E0B70B"/>
<path d="M93.5254 64.5581C85.3089 31.9028 69.5974 7.5407 58.4326 10.1438C47.2679 12.7468 44.8779 41.3294 53.0944 73.9847C61.3109 106.64 77.0225 131.002 88.1872 128.399C99.3519 125.796 101.742 97.2134 93.5254 64.5581Z" fill="#E0A617"/>
<path d="M92.0226 65C99.9864 98.079 98.3937 126.542 87.2443 128.85C76.095 131.158 60.9638 106.541 53 74.2313" fill="#DD7B19"/>
<path d="M145.242 124.796C154.52 124.796 162.042 123.072 162.042 120.945C162.042 118.819 154.52 117.095 145.242 117.095C135.964 117.095 128.442 118.819 128.442 120.945C128.442 123.072 135.964 124.796 145.242 124.796Z" fill="#1AB9D3"/>
<path d="M181.799 143.595C181.204 140.241 173.308 138.741 164.163 140.244C155.018 141.747 148.086 145.684 148.681 149.038C149.276 152.392 157.172 153.892 166.317 152.389C175.462 150.886 182.394 146.949 181.799 143.595Z" fill="#1AB9D3"/>
<path d="M163 144C167.418 144 171 140.418 171 136C171 131.582 167.418 128 163 128C158.582 128 155 131.582 155 136C155 140.418 158.582 144 163 144Z" fill="#00233F"/>
<path d="M161 138C163.761 138 166 135.985 166 133.5C166 131.015 163.761 129 161 129C158.239 129 156 131.015 156 133.5C156 135.985 158.239 138 161 138Z" fill="#0A3856"/>
<path d="M198.842 305.767C203.702 305.767 207.642 301.974 207.642 297.296C207.642 292.617 203.702 288.825 198.842 288.825C193.982 288.825 190.042 292.617 190.042 297.296C190.042 301.974 193.982 305.767 198.842 305.767Z" fill="#1AB9D3"/>
<path d="M191.642 281.894C194.293 281.894 196.442 279.825 196.442 277.273C196.442 274.722 194.293 272.653 191.642 272.653C188.991 272.653 186.842 274.722 186.842 277.273C186.842 279.825 188.991 281.894 191.642 281.894Z" fill="#1AB9D3"/>
<path d="M185.242 264.183C186.126 264.183 186.842 263.493 186.842 262.642C186.842 261.791 186.126 261.102 185.242 261.102C184.358 261.102 183.642 261.791 183.642 262.642C183.642 263.493 184.358 264.183 185.242 264.183Z" fill="#1AB9D3"/>
<path d="M200.442 349.662C203.977 349.662 206.842 346.904 206.842 343.502C206.842 340.099 203.977 337.341 200.442 337.341C196.907 337.341 194.042 340.099 194.042 343.502C194.042 346.904 196.907 349.662 200.442 349.662Z" fill="#057091"/>
<path d="M222.042 362.754C223.809 362.754 225.242 361.374 225.242 359.673C225.242 357.972 223.809 356.593 222.042 356.593C220.275 356.593 218.842 357.972 218.842 359.673C218.842 361.374 220.275 362.754 222.042 362.754Z" fill="#057091"/>
<path d="M206.042 269.573C207.809 269.573 209.242 268.194 209.242 266.492C209.242 264.791 207.809 263.412 206.042 263.412C204.275 263.412 202.842 264.791 202.842 266.492C202.842 268.194 204.275 269.573 206.042 269.573Z" fill="#057091"/>
<path d="M226 222H100L108.025 199H222.79L226 222Z" fill="#E29524"/>
<path d="M114 199H222.8L226 222" fill="#E07127"/>
</svg>
