<?xml version="1.0" encoding="iso-8859-1"?>
<!-- Generator: Adobe Illustrator 19.0.0, SVG Export Plug-In . SVG Version: 6.00 Build 0)  -->
<svg xmlns="http://www.w3.org/2000/svg" xmlns:xlink="http://www.w3.org/1999/xlink" version="1.1" id="Capa_1" x="0px" y="0px" viewBox="0 0 465.001 465.001" style="enable-background:new 0 0 465.001 465.001;" xml:space="preserve" width="512" height="512">
<g>
	<path style="fill:#FF9212;" d="M315.688,457.5h-166.38c17.16-27.93,48-46.56,83.19-46.56S298.528,429.57,315.688,457.5z"/>
	<path style="fill:#C2DC71;" d="M25.568,155.94l164.69,164.69c-17.69,17.68-46.36,17.68-64.05,0   c-10.21-10.21-14.51-24.08-12.93-37.39c-13.31,1.58-27.18-2.72-37.39-12.93s-14.51-24.08-12.93-37.39   c-13.31,1.58-27.18-2.72-37.39-12.93C7.878,202.3,7.878,173.63,25.568,155.94z"/>
	<path style="fill:#C2DC71;" d="M232.498,7.5v232.9c-25.01,0-45.29-20.27-45.29-45.29c0-14.43,6.77-27.29,17.29-35.58   c-10.52-8.29-17.29-21.14-17.29-35.58s6.77-27.29,17.29-35.58c-10.52-8.29-17.29-21.14-17.29-35.58   C187.208,27.78,207.488,7.5,232.498,7.5z"/>
	<path style="fill:#C2DC71;" d="M439.418,155.93l-0.3,0.31l-164.38,164.39c-17.68-17.69-17.68-46.36,0-64.05   c10.21-10.21,24.08-14.51,37.39-12.94c-1.58-13.3,2.72-27.17,12.93-37.38c10.21-10.21,24.08-14.51,37.39-12.94   c-1.58-13.3,2.72-27.17,12.93-37.38C393.068,138.25,421.728,138.25,439.418,155.93z"/>
	<path style="fill:#8AA92C;" d="M190.258,256.58c17.68,17.69,17.68,46.36,0,64.05L25.568,155.94c17.69-17.69,46.36-17.69,64.05,0   c10.21,10.21,14.51,24.08,12.93,37.38c13.31-1.57,27.18,2.73,37.39,12.94c10.21,10.21,14.51,24.08,12.93,37.38   C166.178,242.07,180.048,246.37,190.258,256.58z"/>
	<path style="fill:#8AA92C;" d="M277.788,52.79c0,14.44-6.77,27.29-17.29,35.58c10.52,8.29,17.29,21.14,17.29,35.58   s-6.77,27.29-17.29,35.58c10.52,8.29,17.29,21.15,17.29,35.58c0,25.02-20.28,45.29-45.29,45.29V7.5   C257.508,7.5,277.788,27.78,277.788,52.79z"/>
	<path style="fill:#8AA92C;" d="M439.428,155.94c17.69,17.69,17.69,46.36,0,64.05c-10.21,10.21-24.08,14.51-37.39,12.93   c1.58,13.31-2.72,27.18-12.93,37.39c-10.21,10.21-24.08,14.51-37.38,12.93c1.57,13.31-2.73,27.18-12.94,37.39   c-17.69,17.68-46.36,17.68-64.05,0l164.38-164.39C439.118,156.24,439.418,155.93,439.428,155.94z"/>
	<path style="fill:#591200;" d="M444.73,150.636c-9.97-9.97-23.227-15.46-37.327-15.46s-27.356,5.49-37.328,15.461   c-9.441,9.442-14.836,21.834-15.404,34.924c-13.2,0.586-25.52,6.001-34.915,15.396c-9.442,9.442-14.837,21.833-15.405,34.924   c-13.2,0.586-25.52,6.001-34.915,15.396c-9.97,9.971-15.461,23.227-15.461,37.327c0,11.568,3.702,22.563,10.535,31.647   l-24.513,24.513v-97.403c25.567-3.654,45.288-25.686,45.288-52.246c0-13.35-4.945-25.924-13.796-35.581   c8.851-9.657,13.796-22.231,13.796-35.582c0-13.35-4.945-25.924-13.796-35.581c8.851-9.657,13.796-22.231,13.796-35.581   C285.286,23.681,261.605,0,232.498,0S179.71,23.681,179.71,52.788c0,13.35,4.945,25.924,13.796,35.581   c-8.851,9.657-13.796,22.231-13.796,35.581c0,13.351,4.945,25.925,13.796,35.582c-8.851,9.657-13.796,22.231-13.796,35.581   c0,26.561,19.721,48.592,45.288,52.246v97.403l-24.513-24.513c6.833-9.083,10.535-20.079,10.535-31.647   c0-14.101-5.491-27.356-15.461-37.326c-9.395-9.396-21.715-14.811-34.915-15.396c-0.568-13.091-5.963-25.481-15.405-34.923   c-9.395-9.396-21.715-14.811-34.915-15.396c-0.568-13.09-5.963-25.481-15.405-34.925c-9.971-9.97-23.227-15.46-37.327-15.46   c-14.091,0-27.339,5.483-37.307,15.442c-20.601,20.622-20.596,54.098-0.02,74.673c9.395,9.395,21.715,14.809,34.914,15.395   c0.569,13.091,5.963,25.482,15.405,34.925c9.396,9.395,21.716,14.809,34.915,15.396c0.568,13.09,5.963,25.481,15.405,34.924   c9.97,9.97,23.227,15.461,37.327,15.461c11.568,0,22.563-3.702,31.647-10.534l35.12,35.12v37.729   c-33.814,2.362-64.11,20.621-82.083,49.868c-2.169,3.529-1.066,8.147,2.463,10.316c3.528,2.169,8.148,1.065,10.316-2.463   c16.543-26.92,45.255-42.991,76.804-42.991s60.261,16.071,76.804,42.991c1.416,2.305,3.876,3.574,6.397,3.574   c1.339,0,2.695-0.358,3.919-1.111c3.529-2.169,4.632-6.787,2.463-10.316c-17.974-29.247-48.269-47.506-82.083-49.868v-37.729   l35.12-35.12c9.083,6.833,20.079,10.534,31.647,10.534c14.101,0,27.357-5.491,37.327-15.461   c9.442-9.442,14.837-21.834,15.405-34.924c13.199-0.587,25.52-6.001,34.915-15.396c9.442-9.442,14.836-21.834,15.405-34.925   c13.199-0.586,25.519-6,34.914-15.395C465.312,204.709,465.312,171.219,444.73,150.636z M268.976,288.603   c0-10.094,3.931-19.583,11.068-26.721c7.129-7.129,16.615-11.056,26.709-11.056c1.495,0,3.005,0.089,4.489,0.266   c2.279,0.263,4.562-0.521,6.186-2.146c1.625-1.624,2.415-3.904,2.145-6.186c-1.375-11.595,2.558-22.966,10.791-31.198   c7.129-7.129,16.615-11.056,26.709-11.056c1.495,0,3.005,0.089,4.489,0.266c2.281,0.265,4.562-0.521,6.186-2.146   c1.625-1.624,2.415-3.904,2.145-6.186c-1.375-11.595,2.558-22.966,10.79-31.198c7.137-7.138,16.627-11.067,26.721-11.067   c7.546,0,14.753,2.198,20.893,6.288L275.265,309.495C271.174,303.355,268.976,296.148,268.976,288.603z M194.71,195.113   c0-11.642,5.26-22.464,14.431-29.69c1.805-1.422,2.858-3.593,2.858-5.891s-1.053-4.469-2.858-5.891   c-9.171-7.227-14.431-18.049-14.431-29.691c0-11.642,5.26-22.464,14.431-29.69c1.805-1.422,2.858-3.593,2.858-5.891   s-1.053-4.469-2.858-5.891c-9.171-7.227-14.431-18.049-14.431-29.69c0-18.269,13.032-33.549,30.288-37.038v72.619   c0,4.143,3.358,7.5,7.5,7.5s7.5-3.357,7.5-7.5V15.75c17.256,3.489,30.288,18.77,30.288,37.038c0,11.642-5.26,22.464-14.431,29.69   c-1.805,1.422-2.858,3.593-2.858,5.891s1.053,4.469,2.858,5.891c9.171,7.227,14.431,18.049,14.431,29.69   c0,11.643-5.26,22.465-14.431,29.691c-1.805,1.422-2.858,3.593-2.858,5.891s1.053,4.469,2.858,5.891   c9.171,7.227,14.431,18.049,14.431,29.69c0,18.27-13.032,33.549-30.288,37.038V118.369c0-4.143-3.358-7.5-7.5-7.5   s-7.5,3.357-7.5,7.5v113.782C207.742,228.663,194.71,213.383,194.71,195.113z M158.232,326.391   c-10.094,0-19.583-3.931-26.721-11.068c-8.232-8.231-12.166-19.603-10.791-31.198c0.271-2.281-0.52-4.562-2.145-6.187   c-1.415-1.414-3.326-2.196-5.303-2.196c-0.293,0-0.589,0.018-0.884,0.052c-1.484,0.177-2.995,0.266-4.49,0.266   c-10.093,0-19.579-3.926-26.708-11.056c-8.232-8.231-12.165-19.603-10.791-31.198c0.271-2.281-0.52-4.562-2.145-6.187   c-1.625-1.624-3.904-2.41-6.186-2.145c-1.484,0.177-2.994,0.266-4.489,0.266c-10.094,0-19.58-3.927-26.709-11.056   c-12.918-12.918-14.507-32.938-4.773-47.607l101.669,101.669c1.464,1.464,3.384,2.196,5.303,2.196s3.839-0.732,5.303-2.196   c2.929-2.93,2.929-7.678,0-10.607L36.7,156.464c6.14-4.091,13.347-6.288,20.892-6.288c10.094,0,19.583,3.93,26.72,11.066   c8.232,8.233,12.165,19.604,10.791,31.199c-0.271,2.281,0.52,4.562,2.145,6.186c1.625,1.625,3.905,2.41,6.186,2.146   c1.484-0.177,2.994-0.266,4.489-0.266c10.095,0,19.58,3.927,26.709,11.057c8.232,8.231,12.166,19.603,10.791,31.197   c-0.271,2.281,0.52,4.562,2.145,6.186c1.625,1.625,3.903,2.412,6.186,2.146c1.484-0.177,2.994-0.266,4.489-0.266   c10.094,0,19.58,3.927,26.709,11.057c7.137,7.137,11.068,16.626,11.068,26.72c0,7.546-2.198,14.753-6.289,20.893l-30.143-30.143   c-2.929-2.928-7.678-2.928-10.606,0c-2.929,2.93-2.929,7.678,0,10.607l30.142,30.142   C172.984,324.192,165.777,326.391,158.232,326.391z M434.124,214.684c-7.129,7.129-16.615,11.056-26.709,11.056   c-1.494,0-3.005-0.089-4.489-0.266c-2.282-0.264-4.562,0.521-6.186,2.145c-1.625,1.625-2.415,3.905-2.145,6.187   c1.375,11.596-2.559,22.967-10.791,31.198c-7.129,7.129-16.614,11.056-26.708,11.056c-1.495,0-3.005-0.089-4.49-0.266   c-2.28-0.266-4.562,0.521-6.187,2.145c-1.625,1.625-2.415,3.905-2.145,6.187c1.375,11.596-2.558,22.967-10.791,31.198   c-7.137,7.138-16.627,11.068-26.721,11.068c-7.545,0-14.752-2.198-20.892-6.289l153.025-153.025   C448.631,181.746,447.042,201.766,434.124,214.684z"/>
</g>















</svg>
