<svg width="176" height="142" viewBox="0 0 176 142" fill="none" xmlns="http://www.w3.org/2000/svg">
<g id="shell" clip-path="url(#clip0)">
<path id="Vector" d="M34.1972 59.5984L19.9076 52.5456C14.7696 50.0099 15.0013 43.9336 20.316 41.6472C22.6167 40.6576 24.8486 39.5812 26.2656 36.9917C30.0774 31.2371 23.1203 27.4372 28.6196 21.7115C34.53 16.3987 40.3373 21.3654 46.1408 17.6157C52.2203 14.2366 47.9472 8.39516 55.6049 5.42815C63.4667 2.87521 66.1559 9.30013 73.2302 7.92701C80.3971 6.92414 79.5315 0.207452 87.9764 0C96.4223 0.206066 95.5584 6.92303 102.726 7.92534C109.801 9.29791 112.489 2.87272 120.353 5.42538C128.012 8.39128 123.74 14.2338 129.82 17.6121C135.624 21.3612 141.431 16.394 147.342 21.7062C152.843 27.4331 145.887 31.2332 149.7 36.9889C151.124 39.5918 153.371 40.6659 155.684 41.6599C160.989 43.94 161.231 50.0021 156.115 52.547L142.233 59.4509C126.037 67.506 107.385 71.7716 88.359 71.7716H87.7732C68.8657 71.7713 50.3259 67.559 34.1972 59.5984Z" fill="#4A8EB9"/>
<path id="Vector_2" d="M141.803 82.401L156.093 89.4536C161.231 91.9893 160.999 98.0656 155.684 100.352C153.384 101.342 151.152 102.418 149.735 105.008C145.923 110.762 152.88 114.562 147.381 120.288C141.47 125.6 135.663 120.634 129.86 124.383C123.78 127.763 128.053 133.604 120.396 136.571C112.534 139.124 109.845 132.699 102.77 134.072C95.6037 135.075 96.4693 141.792 88.0244 141.999C79.5785 141.793 80.4423 135.076 73.2748 134.074C66.1994 132.702 63.5117 139.127 55.6477 136.574C47.9887 133.608 52.2611 127.766 46.1809 124.387C40.377 120.638 34.5701 125.605 28.6586 120.293C23.1573 114.566 30.1137 110.766 26.3009 105.011C24.8764 102.408 22.6289 101.334 20.3166 100.34C15.0115 98.0595 14.7695 91.9974 19.8858 89.4525L33.7668 82.5486C49.9628 74.4935 68.615 71.7705 87.6411 71.7705H88.2269C107.134 71.7708 125.674 74.4405 141.803 82.401Z" fill="#3768AF"/>
<g id="Group">
<path id="Vector_3" d="M26.3006 97.2973C24.8761 94.6944 22.6286 93.6202 20.3162 92.6263C19.295 92.1872 18.4631 91.6073 17.8192 90.9395C14.9837 93.8665 15.8723 98.4294 20.3162 100.34C22.6286 101.333 24.8761 102.408 26.3006 105.011C26.446 105.23 26.5704 105.445 26.6856 105.659C27.24 103.033 28.3961 100.46 26.3006 97.2973Z" fill="#495577"/>
<path id="Vector_4" d="M155.684 92.6392C153.384 93.6288 151.151 94.7052 149.734 97.2947C147.64 100.457 148.795 103.028 149.35 105.654C149.466 105.441 149.59 105.226 149.734 105.008C151.152 102.419 153.384 101.343 155.684 100.353C160.129 98.4404 161.016 93.8778 158.181 90.9521C157.537 91.6192 156.705 92.1996 155.684 92.6392Z" fill="#495577"/>
<path id="Vector_5" d="M147.38 112.575C141.47 117.887 135.662 112.921 129.859 116.67C123.779 120.049 128.053 125.891 120.395 128.858C112.533 131.411 109.844 124.986 102.769 126.359C95.603 127.362 96.4686 134.079 88.0237 134.286C79.5781 134.08 80.4416 127.363 73.2745 126.361C66.1991 124.988 63.5113 131.414 55.6474 128.861C47.9883 125.895 52.2608 120.053 46.1805 116.674C40.3767 112.925 34.5697 117.892 28.6583 112.58C28.0626 111.96 27.6205 111.364 27.2874 110.784C26.6731 113.836 25.1892 116.682 28.6583 120.293C34.5697 125.605 40.3763 120.639 46.1805 124.387C52.2608 127.766 47.9886 133.608 55.6474 136.574C63.5113 139.126 66.1987 132.701 73.2745 134.074C80.4416 135.076 79.5781 141.793 88.0237 141.999C96.4686 141.792 95.6033 135.075 102.769 134.072C109.843 132.699 112.532 139.124 120.395 136.571C128.053 133.605 123.779 127.763 129.859 124.384C135.662 120.634 141.47 125.6 147.38 120.288C150.848 116.677 149.364 113.833 148.749 110.781C148.417 111.36 147.975 111.955 147.38 112.575Z" fill="#495577"/>
</g>
<g id="Group_2">
<path id="Vector_6" d="M149.699 44.7017C151.124 47.3046 153.371 48.3787 155.684 49.3727C156.705 49.8118 157.537 50.3917 158.181 51.0595C161.016 48.1325 160.128 43.5696 155.684 41.6593C153.371 40.6656 151.124 39.5911 149.699 36.9883C149.554 36.7689 149.43 36.5537 149.314 36.3398C148.76 38.966 147.604 41.5386 149.699 44.7017Z" fill="#61ACD2"/>
<path id="Vector_7" d="M20.3162 49.3603C22.6162 48.3707 24.8489 47.2944 26.2658 44.7048C28.3602 41.5428 27.2046 38.971 26.6498 36.3457C26.5346 36.5587 26.4105 36.7734 26.2658 36.9914C24.8485 39.5809 22.6166 40.657 20.3162 41.6468C15.8708 43.5591 14.9843 48.1217 17.8192 51.0476C18.4627 50.3804 19.2942 49.7999 20.3162 49.3603Z" fill="#61ACD2"/>
<path id="Vector_8" d="M28.6198 29.4247C34.5302 24.1119 40.3375 29.0785 46.141 25.3289C52.2206 21.9497 47.9474 16.1083 55.6051 13.1413C63.467 10.5884 66.1561 17.0133 73.2305 15.6402C80.3969 14.637 79.5317 7.92035 87.9763 7.7129C96.4218 7.91896 95.5583 14.6359 102.726 15.6382C109.801 17.0108 112.489 10.5856 120.353 13.1383C128.012 16.1042 123.74 21.9464 129.82 25.325C135.624 29.0741 141.431 24.1069 147.342 29.4191C147.937 30.0393 148.379 30.6355 148.713 31.2155C149.327 28.1628 150.811 25.3172 147.342 21.7059C141.43 16.3937 135.624 21.3607 129.82 17.6118C123.74 14.2332 128.012 8.39128 120.353 5.4251C112.489 2.87299 109.802 9.29819 102.726 7.92507C95.5583 6.92303 96.4218 0.206066 87.9763 0C79.5314 0.207452 80.3969 6.92414 73.2305 7.92728C66.1568 9.30069 63.4673 2.87577 55.6051 5.42843C47.9474 8.39488 52.2206 14.2368 46.141 17.616C40.3375 21.3654 34.5302 16.3987 28.6198 21.7115C25.1524 25.3217 26.636 28.1666 27.2507 31.218C27.5834 30.6392 28.0251 30.044 28.6198 29.4247Z" fill="#61ACD2"/>
<path id="Vector_9" d="M88.0216 128.562C85.5253 126.442 81.7358 124.076 76.0564 123.193C74.4789 122.914 72.8818 122.772 71.3027 122.772C67.7524 122.772 64.789 123.47 62.4405 124.271C61.2497 121.533 59.0257 118.162 54.3985 115.472C50.5471 113.085 46.1599 111.861 41.0263 111.741C41.5124 108.762 41.5292 104.661 38.6813 100.145C37.5091 98.1128 36.0794 96.4895 34.5938 95.1849L40.9909 92.0032C53.3377 85.8625 68.597 82.877 87.641 82.877H88.2268C107.176 82.877 122.351 85.8204 134.619 91.8751L141.395 95.2195C139.927 96.5167 138.514 98.1283 137.353 100.143C134.506 104.657 134.523 108.757 135.009 111.737C129.876 111.857 125.49 113.082 121.639 115.469C117.013 118.159 114.79 121.529 113.6 124.267C111.252 123.466 108.29 122.769 104.742 122.769C103.161 122.769 101.564 122.911 99.9851 123.191C94.3043 124.076 90.5172 126.442 88.0216 128.562Z" fill="#61ACD2"/>
</g>
<path id="Vector_10" d="M87.7728 60.6644C71.3946 60.6644 55.3525 57.0193 41.3812 50.1237L34.6049 46.7792C36.0727 45.4821 37.4858 43.8702 38.647 41.8567C41.4939 37.3415 41.4767 33.2421 40.9903 30.2624C46.1242 30.142 50.5101 28.9175 54.3608 26.5304C58.987 23.8399 61.2096 20.4702 62.3997 17.7323C64.7478 18.533 67.7096 19.2302 71.2577 19.2302C72.8383 19.2302 74.4364 19.0882 76.0149 18.8078C81.6943 17.9242 85.4814 15.5579 87.9773 13.4385C90.4736 15.5579 94.2628 17.9234 99.9415 18.8064C101.519 19.0863 103.117 19.2283 104.696 19.2283C108.246 19.2283 111.21 18.5299 113.559 17.7287C114.75 20.4663 116.974 23.8374 121.6 26.5271C125.451 28.9139 129.838 30.1384 134.973 30.2582C134.487 33.238 134.469 37.3385 137.318 41.8542C138.49 43.8863 139.92 45.5101 141.405 46.8144L135.008 49.9958C120.975 56.9754 104.843 60.6647 88.3582 60.6647H87.7728V60.6644V60.6644Z" fill="#E0E0E0"/>
<path id="Vector_11" d="M87.6181 91.5767C99.234 91.5767 108.651 83.9792 108.651 74.6072C108.651 65.2352 99.234 57.6377 87.6181 57.6377C76.0021 57.6377 66.5854 65.2352 66.5854 74.6072C66.5854 83.9792 76.0021 91.5767 87.6181 91.5767Z" fill="#E46A53"/>
<path id="Vector_12" d="M78.0423 74.8045C80.5768 74.8045 82.6313 73.1468 82.6313 71.1019C82.6313 69.0571 80.5768 67.3994 78.0423 67.3994C75.5078 67.3994 73.4532 69.0571 73.4532 71.1019C73.4532 73.1468 75.5078 74.8045 78.0423 74.8045Z" fill="white"/>
</g>
<defs>
<clipPath id="clip0">
<rect width="176" height="142" fill="white"/>
</clipPath>
</defs>
</svg>
