<svg width="381" height="370" viewBox="0 0 381 370" fill="none" xmlns="http://www.w3.org/2000/svg">
<g clip-path="url(#clip0)">
<path d="M190.5 16.0645L247.023 127.285L373.41 145.12L281.955 231.692L303.545 353.934L190.5 296.219L77.456 353.934L99.0449 231.692L7.59022 145.12L133.978 127.285L190.5 16.0645Z" fill="#FF931E"/>
<path d="M190.5 232.907C206.429 232.907 219.341 220.368 219.341 204.9C219.341 189.431 206.429 176.892 190.5 176.892C174.572 176.892 161.66 189.431 161.66 204.9C161.66 220.368 174.572 232.907 190.5 232.907Z" fill="#F15A24"/>
<path d="M380.628 142.841C379.736 140.173 377.36 138.229 374.501 137.825L252.062 120.548L197.306 12.8026C196.027 10.2871 193.389 8.69434 190.5 8.69434C187.612 8.69434 184.973 10.2871 183.694 12.8026L128.938 120.548L6.4993 137.826C3.64031 138.229 1.26576 140.173 0.372053 142.842C-0.520914 145.51 0.22397 148.439 2.29268 150.398L90.8899 234.265L69.9751 352.689C69.4862 355.454 70.6567 358.248 72.9941 359.898C75.3307 361.547 78.43 361.765 80.9869 360.459L190.5 304.546L300.012 360.458C301.123 361.025 302.336 361.304 303.543 361.304C305.116 361.304 306.683 360.83 308.005 359.897C310.342 358.248 311.513 355.453 311.024 352.687L290.109 234.265L378.707 150.397C380.777 148.439 381.522 145.51 380.628 142.841ZM276.658 226.414C274.869 228.108 274.053 230.547 274.476 232.938L293.465 340.461L194.032 289.695C192.926 289.131 191.713 288.849 190.5 288.849C189.287 288.849 188.074 289.131 186.969 289.695L87.5353 340.461L106.525 232.938C106.948 230.546 106.131 228.107 104.342 226.414L23.9002 150.266L135.069 134.579C137.541 134.23 139.679 132.722 140.784 130.547L190.5 32.719L240.217 130.547C241.323 132.722 243.459 134.23 245.931 134.579L357.1 150.266L276.658 226.414Z" fill="black"/>
<path d="M198.09 170.3V87.7087C198.09 83.638 194.692 80.3384 190.5 80.3384C186.309 80.3384 182.911 83.638 182.911 87.7087V170.299C166.454 173.7 154.07 187.919 154.07 204.899C154.07 213.982 157.615 222.274 163.429 228.545L113.429 295.377C110.965 298.67 111.717 303.28 115.108 305.672C116.455 306.623 118.016 307.079 119.563 307.079C121.91 307.079 124.224 306.026 125.71 304.041L175.704 237.216C180.23 239.178 185.234 240.278 190.5 240.278C195.767 240.278 200.772 239.178 205.296 237.216L233.438 274.831C234.923 276.816 237.238 277.87 239.585 277.87C241.132 277.87 242.693 277.412 244.04 276.462C247.431 274.068 248.182 269.46 245.718 266.167L217.571 228.545C223.385 222.274 226.93 213.982 226.93 204.899C226.93 203.656 226.862 202.427 226.733 201.216L307.614 175.695C311.601 174.437 313.783 170.279 312.487 166.407C311.192 162.536 306.912 160.417 302.923 161.675L222.025 187.202C216.935 178.687 208.3 172.409 198.09 170.3ZM169.249 204.899C169.249 193.52 178.782 184.262 190.5 184.262C202.218 184.262 211.752 193.52 211.752 204.899C211.752 216.279 202.218 225.537 190.5 225.537C178.782 225.537 169.249 216.28 169.249 204.899Z" fill="black"/>
<path d="M130.544 193.353C133.743 193.353 136.718 191.372 137.76 188.257C139.056 184.385 136.874 180.228 132.888 178.97L78.078 161.675C74.0917 160.418 69.8099 162.536 68.5144 166.407C67.2188 170.279 69.4006 174.436 73.387 175.695L128.197 192.989C128.976 193.236 129.767 193.353 130.544 193.353Z" fill="black"/>
<path d="M262.259 288.275C259.795 284.983 255.05 284.252 251.658 286.645C248.267 289.039 247.516 293.647 249.979 296.94L255.292 304.042C256.777 306.027 259.091 307.08 261.438 307.08C262.985 307.08 264.547 306.623 265.894 305.673C269.285 303.279 270.036 298.671 267.572 295.378L262.259 288.275Z" fill="black"/>
</g>
<defs>
<clipPath id="clip0">
<rect width="381" height="370" fill="white"/>
</clipPath>
</defs>
</svg>
