<svg width="106" height="111" viewBox="0 0 106 111" fill="none" xmlns="http://www.w3.org/2000/svg">
<g clip-path="url(#clip0)">
<path d="M65.9442 110.802C52.6644 109.065 43.2096 96.3388 44.8683 82.4324L45.8078 74.5566L57.5254 76.0891L56.5859 83.9649C55.7342 91.1057 60.5891 97.6404 67.4077 98.5321C74.2269 99.424 80.4672 94.34 81.3187 87.1996L89.16 21.4541L100.878 22.9866L93.0363 88.7321C91.3776 102.638 79.2243 112.539 65.9442 110.802Z" fill="#B9E578"/>
<g opacity="0.1">
<path opacity="0.1" d="M70.8859 110.802C57.6059 109.065 48.1513 96.3386 49.8099 82.4322L50.6734 75.1929L45.8077 74.5566L44.8683 82.4324C43.2096 96.3386 52.6642 109.066 65.9442 110.802C67.8066 111.046 69.6469 111.06 71.4393 110.867C71.255 110.848 71.0704 110.826 70.8859 110.802Z" fill="black"/>
<path opacity="0.1" d="M72.3493 98.5323C79.1685 99.4242 85.4089 94.3402 86.2604 87.1998L94.0256 22.0904L89.1599 21.4541L81.3187 87.1996C80.639 92.899 76.5252 97.2844 71.4252 98.3703C71.7293 98.4345 72.0365 98.4913 72.3493 98.5323Z" fill="black"/>
</g>
<path d="M51.1095 80.127C46.3796 79.5083 42.437 76.7343 40.8201 72.8871C39.9005 70.6993 40.8487 68.1453 42.938 67.1823C45.0273 66.2193 47.4662 67.2122 48.3858 69.4001C48.6691 70.0741 49.9373 71.2506 52.1338 71.5376C54.3448 71.8268 55.8472 71.0071 56.2745 70.4227C57.6624 68.5253 60.2566 68.1648 62.0687 69.6177C63.881 71.0711 64.2249 73.7875 62.8374 75.6852C60.3771 79.0496 55.8832 80.7514 51.1095 80.127Z" fill="#FFD782"/>
<path d="M88.8068 24.42L100.525 25.9521L102.809 6.79671L91.0908 5.2646L88.8068 24.42Z" fill="#FFD782"/>
<g opacity="0.1">
<path opacity="0.1" d="M95.9585 5.905L91.0903 5.26807L88.8058 24.4226L93.6715 25.0588L95.9585 5.905Z" fill="black"/>
</g>
<path d="M88.2922 8.12296L104.851 10.2881L105.82 2.16512L89.2607 -2.74866e-06L88.2922 8.12296Z" fill="#B9E578"/>
<path d="M11.9137 47.4958C11.9137 47.4958 10.5136 42.9248 6.71362 42.6876C6.59479 42.68 6.47637 42.6755 6.35858 42.6733C2.416 42.602 -0.520028 46.5038 0.325668 50.537C0.763732 52.6262 1.35665 54.8003 2.15597 56.9494C3.37535 60.2281 7.13244 61.5811 9.97012 59.6972C10.3962 59.4145 10.8282 59.0822 11.2609 58.6924C14.8787 55.4301 11.9137 47.4958 11.9137 47.4958Z" fill="#70BBD6"/>
<path opacity="0.1" d="M11.9137 47.4958C11.9137 47.4958 10.5136 42.9248 6.71362 42.6876C6.59479 42.68 6.47637 42.6755 6.35858 42.6733C2.416 42.602 -0.520028 46.5038 0.325668 50.537C0.763732 52.6262 1.35665 54.8003 2.15597 56.9494C3.37535 60.2281 7.13244 61.5811 9.97012 59.6972C10.3962 59.4145 10.8282 59.0822 11.2609 58.6924C14.8787 55.4301 11.9137 47.4958 11.9137 47.4958Z" fill="black"/>
<path d="M89.9078 47.4958C89.9078 47.4958 91.3079 42.9248 95.1078 42.6876C95.2266 42.68 95.3451 42.6755 95.4629 42.6733C99.4054 42.602 102.341 46.5038 101.496 50.537C101.058 52.6262 100.465 54.8003 99.6655 56.9494C98.4461 60.2281 94.689 61.5811 91.8513 59.6972C91.4253 59.4145 90.9932 59.0822 90.5605 58.6924C86.943 55.4301 89.9078 47.4958 89.9078 47.4958Z" fill="#70BBD6"/>
<path d="M95.242 37.0146C95.242 37.0146 96.8667 66.4536 76.7445 66.4536C56.6223 66.4536 62.9227 50.5455 50.9105 50.1269C38.8983 50.5455 45.1991 66.4536 25.0765 66.4536C4.95389 66.4536 6.57945 37.0146 6.57945 37.0146C14.5731 29.0374 31.3655 23.5435 50.7871 23.5435C70.2089 23.5435 87.0015 29.0374 94.995 37.0146H95.242Z" fill="#FFD782"/>
<path d="M76.7445 58.6917C73.294 58.6917 70.7813 58.1248 69.2759 57.0063C68.1289 56.1544 67.3642 54.8749 66.2117 52.8576C64.039 49.0554 60.4019 42.6915 51.1572 42.3691L50.9107 42.3607L50.6641 42.3691C41.4192 42.6915 37.7824 49.0554 35.6097 52.8576C34.4568 54.8746 33.692 56.1544 32.5451 57.0063C31.0398 58.1245 28.5272 58.6917 25.0767 58.6917C22.3123 58.6917 20.277 57.862 18.6709 56.08C16.6123 53.7959 15.1407 49.9292 14.4155 44.898C14.1874 43.3154 14.0698 41.8586 14.0116 40.6623C17.1356 38.3598 21.4558 36.2994 26.5072 34.7288C33.7102 32.4896 42.1059 31.3057 50.7871 31.3057C59.4683 31.3057 67.8639 32.4893 75.067 34.7288C80.2492 36.34 84.6609 38.4665 87.8021 40.841C87.547 45.417 86.4608 52.4295 83.132 56.1008C81.5288 57.8681 79.4994 58.6917 76.7445 58.6917Z" fill="#7DD2F0"/>
<g opacity="0.1">
<path opacity="0.1" d="M16.4645 35.2934C20.9817 30.7855 28.1551 27.0277 36.9879 24.5029C23.6172 26.4068 12.6012 31.0055 6.57923 37.015C6.57923 37.015 4.9545 66.454 25.0767 66.454C27.4585 66.454 29.4664 66.229 31.1821 65.835C15.0231 61.4672 16.4645 35.2934 16.4645 35.2934Z" fill="black"/>
</g>
</g>
<defs>
<clipPath id="clip0">
<rect width="106" height="111" fill="white"/>
</clipPath>
</defs>
</svg>
