<svg width="287" height="238" viewBox="0 0 287 238" fill="none" xmlns="http://www.w3.org/2000/svg">
<g id="weed-left">
<path id="Vector" d="M243.189 84.087C239.966 84.087 237.353 86.7094 237.353 89.9435V196.226C237.353 233.414 218.544 264.761 193.139 273.717C194.353 272.403 195.521 271.003 196.642 269.519C205.282 258.085 210.04 242.971 210.04 226.962V42.7522C210.04 39.518 207.427 36.8957 204.204 36.8957C200.981 36.8957 198.368 39.518 198.368 42.7522V226.963C198.368 254.161 182.281 276.287 162.509 276.287H161.557C165.903 270.143 168.549 262.063 168.549 253.217V5.85646C168.549 2.62232 165.936 0 162.713 0C159.49 0 156.877 2.62232 156.877 5.85646V253.217C156.877 264.429 150.979 274.075 143.5 275.952C136.022 274.075 130.123 264.429 130.123 253.217V5.85646C130.123 2.62232 127.51 0 124.287 0C121.064 0 118.451 2.62232 118.451 5.85646V253.217C118.451 262.063 121.098 270.143 125.443 276.287H124.491C104.719 276.287 88.6329 254.161 88.6329 226.963V42.7522C88.6329 39.518 86.0197 36.8957 82.7968 36.8957C79.5739 36.8957 76.9607 39.518 76.9607 42.7522V226.963C76.9607 242.972 81.7188 258.086 90.3583 269.52C91.4789 271.004 92.6482 272.403 93.8614 273.719C68.4571 264.762 49.6476 233.416 49.6476 196.227V89.9435C49.6476 86.7094 47.0344 84.087 43.8115 84.087C40.5886 84.087 37.9753 86.7094 37.9753 89.9435V196.226C37.9753 220.445 45.149 243.277 58.1752 260.517C71.566 278.24 89.5193 288 108.73 288H178.27C197.481 288 215.434 278.24 228.826 260.517C241.852 243.278 249.025 220.445 249.025 196.226V89.9435C249.025 86.7094 246.412 84.087 243.189 84.087Z" fill="#53F2BD"/>
</g>
</svg>
