<svg width="200" height="137" viewBox="0 0 200 137" fill="none" xmlns="http://www.w3.org/2000/svg">
<path d="M15.2941 63.4482L52.9412 81.0604V98.6725L15.2941 116.285C15.2941 116.285 5.88234 109.033 5.88234 89.8665C5.88234 70.6995 15.2941 63.4482 15.2941 63.4482Z" fill="#FFDA44"/>
<path d="M38.627 76.84C38.627 76.84 26.147 73.7733 29.6077 55.5585C31.6018 45.0628 46.0976 26.8194 70.5882 17.2158C40.3512 11.5976 -1.52588e-05 11.7115 -1.52588e-05 11.7115C58.8235 -10.3037 135.294 0.703909 158.823 28.2223C158.823 28.2229 158.824 28.2229 158.824 28.2229C162.941 32.5252 176.424 69.9388 182.398 87.6148C189.369 92.9034 200 105.276 200 105.276C200 105.276 184.902 119.035 145.686 129.309C106.471 139.583 58.8235 138.299 41.1765 132.795C26.2665 128.145 24.4276 117.945 34.46 102.984C34.3135 102.892 23.5294 88.7651 23.5294 88.7651L38.627 76.84Z" fill="#FFDA44"/>
<path d="M164.706 94.2684C161.457 94.2684 158.824 91.8043 158.824 88.7646C158.824 85.7249 161.457 83.2607 164.706 83.2607C167.955 83.2607 170.588 85.7249 170.588 88.7646C170.588 91.8043 167.955 94.2684 164.706 94.2684Z" fill="#802812"/>
<path d="M158.823 28.2234C158.823 28.2234 158.823 28.2234 158.823 28.2234C159.661 29.0991 160.887 31.3457 162.358 34.5176L148.496 128.555C147.572 128.808 146.639 129.061 145.686 129.31C137.333 131.499 128.596 133.161 119.849 134.371L137.703 13.2559C146.632 17.42 153.893 22.4571 158.823 28.2234Z" fill="#FF9811"/>
<path d="M170.588 105.276C170.588 110.49 171.706 115.462 173.721 120.002C170.434 121.369 166.804 122.759 162.815 124.138C160.245 118.321 158.824 111.951 158.824 105.276H170.588Z" fill="#FF9811"/>
<path d="M41.1765 132.797C26.2665 128.147 24.4276 117.947 34.46 102.986C34.3135 102.894 23.5294 88.7671 23.5294 88.7671L38.627 76.842C38.627 76.842 26.1471 73.7753 29.6077 55.5605C31.6018 45.0648 46.0976 26.8214 70.5882 17.2178C40.3512 11.5996 -7.62939e-06 11.7135 -7.62939e-06 11.7135C31.8976 -0.22424 68.98 -2.44832 100 2.40107V136.383C74.9312 138.027 52.2 136.236 41.1765 132.797Z" fill="#FF9811"/>
<path d="M55.7753 135.618L35.2929 43.6286C41.9164 34.2628 53.94 23.7434 70.5882 17.2148V136.774C65.2111 136.548 60.2258 136.153 55.7753 135.618Z" fill="#FF5023"/>
<path d="M135.294 99.7722L111.765 83.2607C111.765 83.2607 105.882 105.276 123.529 110.78L135.294 99.7722Z" fill="#FF5023"/>
</svg>
